<?xml version="1.0" encoding="UTF-8"?>
<svg id="Layer_1" xmlns="http://www.w3.org/2000/svg" version="1.1" xmlns:xlink="http://www.w3.org/1999/xlink" viewBox="0 0 256 256">
  <!-- Generator: Adobe Illustrator 30.4.0, SVG Export Plug-In . SVG Version: 2.1.4 Build 226)  -->
  <defs>
    <style>
      .st0 {
        fill: #2746f3;
      }

      .st1 {
        fill: url(#linear-gradient2);
      }

      .st2 {
        fill: #254fee;
      }

      .st3 {
        fill: #0acfae;
      }

      .st4 {
        fill: #0cc6b3;
      }

      .st5 {
        fill: #07dda7;
      }

      .st6 {
        fill: #09d2ac;
      }

      .st7 {
        fill: #0bc9b1;
      }

      .st8 {
        fill: #2068e2;
      }

      .st9 {
        fill: url(#linear-gradient1);
      }

      .st10 {
        fill: #10b1bd;
      }

      .st11 {
        fill: #08d8aa;
      }

      .st12 {
        fill: #09d2ad;
      }

      .st13 {
        fill: #09d5ab;
      }

      .st14 {
        fill: #0fb7ba;
      }

      .st15 {
        fill: #2844f4;
      }

      .st16 {
        fill: #0dc3b4;
      }

      .st17 {
        fill: #2552ed;
      }

      .st18 {
        fill: url(#linear-gradient3);
      }

      .st19 {
        fill: #08dba8;
      }

      .st20 {
        fill: #09d4ab;
      }

      .st21 {
        fill: #235be8;
      }

      .st22 {
        fill: #10b5bb;
      }

      .st23 {
        fill: #0bccaf;
      }

      .st24 {
        fill: #0ad0ad;
      }

      .st25 {
        fill: #264cf0;
      }

      .st26 {
        fill: url(#linear-gradient);
      }

      .st27 {
        fill: #08d8a9;
      }

      .st28 {
        fill: #0fb9b9;
      }

      .st29 {
        fill: #2749f1;
      }
    </style>
    <linearGradient id="linear-gradient" x1="-704.23" y1="741.76" x2="-703.97" y2="879.76" gradientTransform="translate(832 -668)" gradientUnits="userSpaceOnUse">
      <stop offset="0" stop-color="#0fb9b9"/>
      <stop offset="1" stop-color="#2550ee"/>
    </linearGradient>
    <linearGradient id="linear-gradient1" x1="-792.26" y1="765.74" x2="-791.72" y2="847.74" gradientTransform="translate(832 -668)" gradientUnits="userSpaceOnUse">
      <stop offset="0" stop-color="#13a7c2"/>
      <stop offset="1" stop-color="#2069e1"/>
    </linearGradient>
    <linearGradient id="linear-gradient2" x1="-616.26" y1="765.58" x2="-615.72" y2="847.58" gradientTransform="translate(832 -668)" gradientUnits="userSpaceOnUse">
      <stop offset="0" stop-color="#13a7c2"/>
      <stop offset="1" stop-color="#2069e1"/>
    </linearGradient>
    <linearGradient id="linear-gradient3" x1="-704.07" y1="757.88" x2="-703.97" y2="863.88" gradientTransform="translate(832 -668)" gradientUnits="userSpaceOnUse">
      <stop offset="0" stop-color="#11adbf"/>
      <stop offset="1" stop-color="#235ce8"/>
    </linearGradient>
  </defs>
  <path class="st26" d="M192,75l-.7,4.39-34.33.03c-1.49,2.67-1.28,5.54-.72,8.55l35.9.21c-.46,3.23.11,5.5,1.51,6.66,1.5,1.24,3.81,1.22,6.34,1.21v87.92s-11.93.04-11.93.04l.04,7.99,43.68-.03.2,4.02c-.04,2.08-.65,3.24-1.85,3.47l-81.18-.23c-1.43,3-1.27,5.59-.74,8.79,2.79.12,5.76-.57,8.46.36,1.9.65,1.25,3.4,1.37,4.49l.45,1.95-60.86.24.43-1.11c-.31-1.55-.13-5.66,1.87-5.72l7.84-.2c.5-3.22.67-5.76-.73-8.79l-81.14.23c-1.27-.28-1.91-1.43-1.92-3.46l.2-4.02,43.68.03.04-7.98-11.93-.09v-87.9c2.79.1,5.52-.05,6.85-1.7,1.22-1.51,1.24-3.8,1.17-6.34l35.75.04c.52-3.11.74-5.88-.72-8.63-11.75.3-23.44.16-35.05-.41l.18-7h127.52c.59,1.34.32,2.21.3,2.99ZM135.41,207.95c2.42,0,3.86-1.59,4.23-3.27l3.13-14.14c.51-2.32,5.7-4.52,7.72-3.24l14.49,9.16c5.92-4.28,11.21-9.53,15.44-15.46l-9.08-14.53c-1.06-1.69,1.07-6.18,2.5-7.75l14.76-3.06c2.26-.47,3.38-2.46,3.38-4.66v-14.01c0-1.74-.85-3.96-2.6-4.34l-15.08-3.27c-2.07-.45-4.18-6.02-3.04-7.83l9.17-14.54c-4.29-5.94-9.48-11.19-15.48-15.45l-14.45,9.18c-1.68,1.07-6.66-.76-7.57-2.68-3.66-7.66-.76-18.06-7.99-18.06h-13.96c-1.76,0-3.97.87-4.35,2.59l-3.29,15.1c-.45,2.06-5.87,4-7.84,3.03-5.37-2.65-9.14-6.56-14.57-8.78-3.88,1.67-6.14,4.83-9.24,7.95-1.83,1.84-6.2,4.81-5.44,7.93l8.53,14.42c1.07,1.8-1.34,6.57-3.31,7l-14.16,3.1c-2.12.47-3.33,2.33-3.32,4.67v13.93c0,2.78,1.62,4.4,4.16,4.92l13.51,2.78c2.09.43,4.2,6,3.06,7.79l-9.18,14.55c4.26,5.89,9.53,11.23,15.45,15.41l15.17-9.27c1.84-1.12,6.66,1.48,7.07,3.35l3.11,14.18c.37,1.7,1.83,3.22,3.8,3.23l15.26.05Z"/>
  <path class="st9" d="M48,177.34c-.47,2.02-.73,4.02-.78,6.01l-14.52.15-.69-4.96v-82.48s16.01,0,16.01,0v81.28Z"/>
  <path class="st1" d="M224,177.34c-.47,2.02-.73,4.02-.78,6.01l-14.52.15-.69-4.96v-82.48s16.01,0,16.01,0v81.28Z"/>
  <path class="st10" d="M55.95,82.4c.02,1.93.25,3.54-.09,5.61h-31.71c-.4-2.34-.1-4.24-.08-6.42.11-.78.39-1.95.94-1.98,3.43-.16,28.26.02,29.55.75.77.43,1.16,1.22,1.4,2.04Z"/>
  <path class="st10" d="M231.95,82.4l-.09,5.61h-31.71s-.08-6.42-.08-6.42c.11-.78.39-1.95.94-1.98,6.86-.37,17.22.01,24.11.61,3.57-.57,5.85.15,6.84,2.17Z"/>
  <polygon class="st28" points="231.91 78.42 229.63 79.59 201.47 78.7 200.12 76.65 200.16 71.99 231.87 71.99 231.91 78.42"/>
  <path class="st28" d="M55.91,78.42l-2.29,1.17-28.15-.88-1.36-2.05c.02-1.59-.35-2.92.04-4.66h31.71c.37,2.35.02,4.25.04,6.43Z"/>
  <path class="st22" d="M231.91,78.42l.04,3.98-31.89-.81.05-4.94,22.83.88c3.13.04,6.11-.81,8.96.9Z"/>
  <path class="st22" d="M55.91,78.42l.04,3.98-31.89-.81.05-4.94,22.83.88c3.13.04,6.11-.81,8.96.9Z"/>
  <g>
    <path class="st15" d="M85.63,227.51c.95.7.33,4.36-.89,4.37l-68.55.18-.11-5.44.32-1.33c22.66.05,45.34.25,68.06.59l1.17,1.63Z"/>
    <path class="st15" d="M239.89,228.35c-.03,1.26.31,2.21-.12,3.71l-68.48-.21c-1.46,0-1.33-3.23-1.61-4.15l.72-2.24c22.81.19,45.64.34,68.5.45l.98,2.44Z"/>
    <path class="st15" d="M162.16,228.18c.39,1.13,1.32,2.27.65,3.83h-69.67c-.64-2.06.8-3.56.98-5.24l.93-1.23c22.25-.4,44.36-.02,66.33,1.15l.78,1.5Z"/>
    <path class="st17" d="M89.72,212.22l-.94,1.99c-23.84-.21-47.69-.41-71.55-.62l-1.18-2.01c0-1.21-.25-2.2.18-3.59h74.6c.51,1.72-.21,3.09-1.12,4.23Z"/>
    <path class="st17" d="M239.91,212.38c-.09.79-.38,1.98-.94,1.99-23.81.68-48.69-.29-72.36-1.27l-.68-1.26c-.58-1.14-1.3-2.25-.75-3.85h74.61c.44,1.65.11,2.92.11,4.39Z"/>
    <path class="st2" d="M89.72,212.22c.36,1.71-.23,2.88-.95,4.05l-.32,1.33c-23.57.58-47.3.58-71.2,0l-1.18-2.01v-4s73.65.64,73.65.64Z"/>
    <path class="st2" d="M239.91,212.38l.02,4.01-.94,1.99c-23.56-.04-47.09-.31-70.61-.8l-1.11-2.66c-1.53-.78-.98-2.4-1.33-3.09l73.97.54Z"/>
    <path class="st25" d="M239.92,216.39l-.02,4.01c-.09.79-.39,1.98-.95,1.99-20.26.44-43.79.59-63.95-.58-3.56.61-5.87-.07-6.93-2.06-1.16-1.55-1.14-3.24-.8-4.82.62.56,1.5.86,2.79,1.02l69.87.44Z"/>
    <path class="st25" d="M88.77,216.27c.28,1.65-.28,2.84-1.01,4.01l-.95,1.99c-23.17-.22-46.35-.44-69.54-.66l-1.19-2.01v-4.01s72.69.68,72.69.68Z"/>
    <path class="st29" d="M87.76,220.28c.27,1.63-.26,2.83-.94,4.01l-.32,1c-22.62.57-46.43.59-69.3-.16-.69-.02-1.04-.72-1.18-1.51l.05-4.02,71.68.68Z"/>
    <path class="st29" d="M239.9,220.4l.1,4.01-.32,1.33c-23.08-.03-46.23-.05-69.44-.06l-1.04-2.4c-.87-.86-1.23-2.14-1.14-3.53l71.83.65Z"/>
    <path class="st0" d="M162.16,228.18c-4.94-.99-9.7-.72-14.92-.73l-53.12-.69c.13-1.17.28-2.79,1.99-2.79l64.58.2c1.66,0,1.16,3.12,1.46,4.01Z"/>
    <path class="st0" d="M240,224.41l-.11,3.94c-1.28-1.4-2.88-1.11-4.66-1.11h-55.44c-3.54.01-6.83-.68-10.11.46-.4-1.31-.88-3.24-.48-4.42.97.41,2.18.68,3.79.68l67.01.45Z"/>
    <path class="st0" d="M86.82,224.29c.16,1.42-.18,2-1.2,3.22l-69.55-.89-.05-3,70.79.68Z"/>
  </g>
  <path class="st21" d="M107.05,199.24l-82.82.77c-.51-1.71-.3-2.87-.24-4.01.35.52.95,2.68,2.06,2.93l81,.3Z"/>
  <path class="st21" d="M148.97,199.24l80.99-.3c1.09-.28,1.69-2.41,2.05-2.94.06,1.14.27,2.3-.24,4.01l-82.8-.78Z"/>
  <path class="st2" d="M98.08,213.95c-.14.43.27,1.07,1.01,1.07l58.61-.07c.44,0,.5-2.09.35-2.07.49.27,1.49,2.99.74,2.99l-60.78.19c-1.02,0-1.22-1.05-1.01-1.42.17-.31.48-.52,1.08-.69Z"/>
  <path class="st14" d="M156.97,79.42l33.77-.48c.17-1.8.46-3.11,1.26-3.95l-.15,5.02-34.89-.59Z"/>
  <path class="st14" d="M99.05,79.41l-34.05.61c-.88,0-1.01-.68-1-1.02l35.05.41Z"/>
  <path class="st8" d="M32,178.53c.79,1.33,1.11,2.52,1.21,4.44l14.03-.3c-.58-2.69-.4-4.71.75-5.34l-.09,6.67h-15.8s-.11-5.47-.11-5.47Z"/>
  <path class="st8" d="M208,178.53c.79,1.33,1.11,2.52,1.21,4.44l14.03-.3c-.58-2.69-.4-4.71.75-5.34l-.09,6.67h-15.8s-.11-5.47-.11-5.47Z"/>
  <path class="st4" d="M133.19,54.87l3.19-.97,102.38.08,1.21,2-.03,4.03-.7,2c-74-.01-148.02-.03-222.05-.04l-1.23-2,.12-3.99.69-2,102.1-.05,3.95.94c2.06-1.94,8.31-1.94,10.37,0Z"/>
  <path class="st16" d="M239.94,60.01c0,1.13.39,2.31-.25,4.04H16.33c-.61-1.73-.4-2.93-.37-4.08l223.98.04Z"/>
  <path class="st7" d="M239.95,51.98l.02,4-102.91-.05c-1.66,0-2.91-.48-3.87-1.06-1.73-2.66,2.75-6.32,4.89-3.83l1.69-1.41c32.93.44,65.92.56,98.96.34l1.22,2Z"/>
  <path class="st7" d="M122.81,54.87c-.95.64-2.19,1.06-3.86,1.06l-102.87.05c.04-1.27.18-2.73,0-4.03l.69-2c33.39.03,66.79-.04,100.19-.22l1.22,2c1.82-3.24,6.29.24,4.64,3.14Z"/>
  <path class="st23" d="M147.89,46.98c.52-.55,1.13-.92,1.83-1.15,1-.32,18.56-.42,20.97-.27l1.49,1.96c-.06-.84.21-1.46.93-1.77,21.73-.28,43.4.07,65.01,1.05,2.47.58,1.81,2.74,1.82,5.17l-96.91.02c-2.1,0-3.61-.18-4.96-.95-3.22-1.16-1.59-5.19,1.71-4.83,1.39-2.41,6.85-1.71,8.1.76Z"/>
  <path class="st23" d="M17.81,46.86c21.51-.9,43.13-1.2,64.85-.91l1.21,1.97,2.58-1.98c6.29.36,12.56.28,18.81-.24l2.74,1.6c1.1-3.42,7.49-3.49,8.79-.2,2.89-.45,3.87,3.17,1.38,4.62l-102.1.22c-.31-2.18-.77-4.6,1.73-5.09Z"/>
  <path class="st3" d="M218.98,43.08c2.32-.14,4.4.27,7.05.9l12.09,2.84-8.15,1.23-57.8-.51c-2.91.36-2.86-2.87-.08-3.54-.05-.45-.06-.88.07-1.27.75-2.24,41.12-.07,46.81.36Z"/>
  <path class="st3" d="M38.13,42.93c14.84-.97,29.74-1.29,44.68-.94l1.18,2c2.92.08,2.71,3.37-.11,3.94l-63.8.07c-.97,0-1.94-.37-2.26-1.13l20.32-3.93Z"/>
  <path class="st20" d="M75.29,35.53c13.99-1.85,28.08-2.38,42.28-1.56l1.17,2.01c2.65,1.32,1,5.39-1.82,4.93-.91,2.97-7.99,2.84-8.87-.24-.23.77-.59,1.92-1.2,1.97-4.08.33-12.82.01-16.96-.48-3.23.56-5.25-.17-6.04-2.17-.23.77-.58,1.91-1.2,1.97-3.64.34-21.13.13-24.19-.58l-1.39-2.03c5.89-1.68,12.12-3.88,18.21-3.82Z"/>
  <path class="st13" d="M198.86,39.02l-.61,2.28c-8.14.76-16.34,1-24.6.71l-1.43-1.98c-.19.78-.48,1.94-1.1,2.03-4.06.58-11.8.57-16.05.42-3.69.81-6.13.2-7.3-1.81-2.11,1.81-6.74,2.72-8.57.27-3.09-.09-3.8-2.43-1.25-4.18-.82-1.91-.13-2.73,1.88-2.71,13.44-.46,26.82-.06,40.14,1.2,6.13-1.03,12.87,1.81,18.89,3.79Z"/>
  <path class="st19" d="M161.27,31.41c-.19.79-.5,1.96-1.11,2.03-8.41.9-18.96.65-27.22-.34-1.62,2.21-7.71,1.58-9.83-.05-8.75.94-17.59,1.1-26.52.48l-1.38-2.03c4.54-2.01,11.11-3.75,14.8-3.44,11.12-1.44,22.34-1.59,33.19-1.02l14.99,2.79c1.38.26,2.42.4,3.07,1.58Z"/>
  <path class="st6" d="M218.98,43.08c-2.43.15-5.11.82-8,.83l-38.88.08c-2.92-.08-2.71-3.4.11-3.97l22.85-.02c1.42,0,2.95-.86,3.8-.98l20.12,4.06Z"/>
  <path class="st12" d="M57.08,39.35l26.78.64c2.92-.07,2.91,3.24.13,4l-42.04.04c-1.49,0-2.94-.63-3.82-1.09,5.94-2.06,12.62-3.73,18.95-3.58Z"/>
  <path class="st27" d="M179.97,35.23l-4.9.83-35.1-.03c-.94,0-1.7.34-2.02.72-2.59,2.14-5.7-.68-5.01-3.64.72-.95,1.72-1,2.97-1.03l25.36-.66c5.67-.15,13.99,1.7,18.7,3.81Z"/>
  <path class="st11" d="M95.21,31.51l24.88.49c1.26.02,2.26.25,3.02,1.06.99,2.87-2.22,5.64-4.37,2.92l-43.45-.45c6.55-1.73,13.42-4.15,19.92-4.03Z"/>
  <path class="st5" d="M143.2,27.05c-.22.25-1.21,1.33-2.05,1.34-10.61.15-20.96.54-31.15-.32l18.03-3.91c5.27-1.01,10.44,2.01,15.16,2.88Z"/>
  <path class="st24" d="M147.77,40.66l.12,6.32c-2.45-.06-5.56.3-8.1-.76.74-1.47.01-3.85-.59-5.29,2.98-.45,5.88-1.59,8.57-.27Z"/>
  <path class="st24" d="M116.92,40.91c-1.21,1.92-.76,4.1-.12,6.19-2.92-.27-5.86-.34-8.79.2l.05-6.63,8.87.24Z"/>
  <path class="st24" d="M125.19,40.46c1.9-1.07,5.2-.88,6.26.51s1.15,5.29-.42,6.47c-1.47,1.11-5.31,1.15-6.48-.4-1.11-1.47-1.18-5.56.64-6.58Z"/>
  <path class="st18" d="M135.37,187.45l-2.58,12.38c-3.25.37-6.3.35-9.75-.02l-3.65-16.37c-4.48-.94-9.49-4.95-14.27-4.22-5.01.77-8.75,5.7-13.21,7.87l-7.11-6.95,7.76-11.59c1.44-2.16.11-5.1-.79-7.25l-3.83-9.11-15.8-3.4v-9.59s15.82-3.44,15.82-3.44l3.08-7.83c1.02-2.59,3.29-5.83,1.51-8.49l-7.73-11.57,6.77-7.03,11.87,7.68c2.82,1.83,14.81-3.19,15.49-4.49,2.51-4.75,2.43-10.03,3.79-15.44,3.26-1.08,7.25-1.01,10.54-.02,1.2,5.56,1.58,10.47,3.6,15.66l7.17,2.77c2.6,1.01,5.83,3.29,8.49,1.51l11.58-7.73,7,6.77-7.9,12.55c-1.92,3.05,1.38,6.44,2.33,9.16,1.1,3.16,1.81,6.19,5.28,6.94l13.01,2.84-.05,9.76-15.28,3.86c-2.29,3.2-5.87,9.88-5.26,14.13.76,5.26,5.67,8.71,7.86,13.29l-6.96,7.07-12.34-7.95c-3.04-1.96-7.02,1.62-9.96,2.46-3.44.98-5.7,2.14-6.46,5.76ZM132.61,163.73c6.32-.66,10.99-5.46,11.17-11.33s-4.03-10.93-10.11-12.05c-6.52-1.21-13.04,1.53-13.72-3.9-.27-2.12,1.35-4.46,4-4.44l10.25.09c.42,3.66,5.85,5.37,9.16,3.54,1-5.41-4.81-11.09-11.04-11.45.04-2.14-.38-3.49-1.02-4.03-.42-.36-6.34-.63-7.02.51-.34.57-.62,1.86-.47,3.4-5.9.92-9.83,4.03-11.24,9.24-1.32,4.87,1.2,10.64,6.04,13.04,7.92,3.94,16.69-1.11,17.45,5.21.26,2.13-1.35,4.48-4,4.45l-10.24-.11c-.38-3.63-5.93-5.31-9.14-3.53-1.05,5.41,4.82,11.06,11,11.47,0,2.12.42,3.46,1.06,4.02.43.38,6.23.69,7-.51.35-.54.5-2.05.89-3.62ZM104.02,147.89l-.08-7.84h-7.88s0,7.89,0,7.89l7.95-.04ZM160.02,147.89l-.08-7.84h-7.88s0,7.89,0,7.89l7.95-.04Z"/>
</svg>