<?xml version="1.0" encoding="UTF-8"?>
<svg id="Layer_1" xmlns="http://www.w3.org/2000/svg" version="1.1" xmlns:xlink="http://www.w3.org/1999/xlink" viewBox="0 0 256 256">
  <!-- Generator: Adobe Illustrator 30.4.0, SVG Export Plug-In . SVG Version: 2.1.4 Build 226)  -->
  <defs>
    <style>
      .st0 {
        fill: #159ac9;
      }

      .st1 {
        fill: #149fc6;
      }

      .st2 {
        fill: #0acfae;
      }

      .st3 {
        fill: #09d4ac;
      }

      .st4 {
        fill: #149ec6;
      }

      .st5 {
        fill: #2a3cf8;
      }

      .st6 {
        fill: #06e3a4;
      }

      .st7 {
        fill: #188dcf;
      }

      .st8 {
        fill: #0ad0ae;
      }

      .st9 {
        fill: #02f49c;
      }

      .st10 {
        fill: #1b82d5;
      }

      .st11 {
        fill: #1792cd;
      }

      .st12 {
        fill: #13a6c3;
      }

      .st13 {
        fill: #13a5c3;
      }

      .st14 {
        fill: #07dfa6;
      }

      .st15 {
        fill: #1696cb;
      }

      .st16 {
        fill: #206be0;
      }

      .st17 {
        fill: #2165e3;
      }

      .st18 {
        fill: url(#linear-gradient1);
      }

      .st19 {
        fill: #10b3bc;
      }

      .st20 {
        fill: #05e8a1;
      }

      .st21 {
        fill: #2940f6;
      }

      .st22 {
        fill: #2b37fa;
      }

      .st23 {
        fill: #11afbe;
      }

      .st24 {
        fill: #235ae9;
      }

      .st25 {
        fill: #159ac8;
      }

      .st26 {
        fill: #1d77da;
      }

      .st27 {
        fill: #1a86d3;
      }

      .st28 {
        fill: #0ebfb6;
      }

      .st29 {
        fill: #04ec9f;
      }

      .st30 {
        fill: #293cf8;
      }

      .st31 {
        fill: #1890ce;
      }

      .st32 {
        fill: #0bcbb0;
      }

      .st33 {
        fill: #2844f4;
      }

      .st34 {
        fill: #1d76db;
      }

      .st35 {
        fill: #0ebeb6;
      }

      .st36 {
        fill: #2b34fc;
      }

      .st37 {
        fill: #0dc3b4;
      }

      .st38 {
        fill: #1b7ed7;
      }

      .st39 {
        fill: #12aac1;
      }

      .st40 {
        fill: #01f999;
      }

      .st41 {
        fill: #02f49b;
      }

      .st42 {
        fill: #05e7a2;
      }

      .st43 {
        fill: #2455eb;
      }

      .st44 {
        fill: #2749f2;
      }

      .st45 {
        fill: #0cc7b2;
      }

      .st46 {
        fill: #2359e9;
      }

      .st47 {
        fill: #1c7cd8;
      }

      .st48 {
        fill: #07dea6;
      }

      .st49 {
        fill: #12abc0;
      }

      .st50 {
        fill: #198ad0;
      }

      .st51 {
        fill: #1f6ddf;
      }

      .st52 {
        fill: #0fb8b9;
      }

      .st53 {
        fill: #2555eb;
      }

      .st54 {
        fill: #1696ca;
      }

      .st55 {
        fill: #03f09d;
      }

      .st56 {
        fill: #08dba8;
      }

      .st57 {
        fill: #08d9a9;
      }

      .st58 {
        fill: #10b4bc;
      }

      .st59 {
        fill: #09d6ab;
      }

      .st60 {
        fill: #0bccb0;
      }

      .st61 {
        fill: #2260e6;
      }

      .st62 {
        fill: #1a84d4;
      }

      .st63 {
        fill: #159bc8;
      }

      .st64 {
        fill: #264cf0;
      }

      .st65 {
        fill: #1e71dd;
      }

      .st66 {
        fill: #2069e1;
      }

      .st67 {
        fill: #2a39f9;
      }

      .st68 {
        fill: #14a2c4;
      }

      .st69 {
        fill: #00fc97;
      }

      .st70 {
        fill: url(#linear-gradient);
      }

      .st71 {
        fill: #14a0c6;
      }

      .st72 {
        fill: #2550ee;
      }

      .st73 {
        fill: #0fb9b9;
      }

      .st74 {
        fill: #2749f1;
      }

      .st75 {
        fill: #188ecf;
      }

      .st76 {
        fill: #198ad1;
      }
    </style>
    <linearGradient id="linear-gradient" x1="-782.03" y1="774.4" x2="-628.03" y2="774.45" gradientTransform="translate(832 -668)" gradientUnits="userSpaceOnUse">
      <stop offset="0" stop-color="#2456eb"/>
      <stop offset="1" stop-color="#08d9a9"/>
    </linearGradient>
    <linearGradient id="linear-gradient1" x1="-745.3" y1="819.86" x2="-665.3" y2="820.02" gradientTransform="translate(832 -668)" gradientUnits="userSpaceOnUse">
      <stop offset="0" stop-color="#1d75db"/>
      <stop offset="1" stop-color="#0fbab9"/>
    </linearGradient>
  </defs>
  <path class="st40" d="M245.33,102.98c.44,16.81.76,33.82-.15,50.74-1.5,5.41-2.18,11.45-5.48,16.34-2.5-.83-3.42-3.16-2.79-6.98l.73-8-1.84-1.18c3.76-17.1,3.85-34.01.62-51.19l1.8-1.64c-1.13-5.04-1.24-10.04-.3-14.98l2.25-1.06c2.65,5.71,4.25,11.78,5.16,17.95Z"/>
  <path class="st22" d="M17.72,100.88l1.87,1.12c-2.21,14.32-3.55,28.78-.91,43.2l-1.82,1.55-.36,15.72-2.22,1.45c-2.74-2.73-2.35-6.97-3.36-10.21-.91-16.99-.93-33.9-.23-50.77,1.32-5.98,2.67-11.52,5.02-17.14.92-.07,2.04.13,2.27.93,1.41,4.92.83,9.16-.25,14.14Z"/>
  <path class="st36" d="M10.92,153.72c-3.12-9.98-4.22-32.71-2.23-41.73l2-9.03c2.28,3.91,1.42,8.35,1.44,12.96l.1,22.15c.03,5.51.6,10.81-1.3,15.65Z"/>
  <path class="st69" d="M245.18,153.72c-1.9-2.5-1.36-5.62-1.37-8.76l-.06-35.73c0-2.35-.45-4.57,1.58-6.25.38,2.61,1.68,5.55,1.96,9.01,1.15,14.42,1.56,28.45-2.11,41.73Z"/>
  <path class="st9" d="M239.7,170.06c1.01,2.21-.94,4.55-1.89,6.53l-2.7,5.62c-2.4-.09-3.41-2.2-3.03-6.34l.11-4.75-1.53-1.7,4.64-13.66,2.34-.68c2.38,5.26.28,11.08,2.06,14.99Z"/>
  <path class="st5" d="M22.62,85.08c4.5,1.12-.81,12.43-2.62,15.33l-2.28.47c0-.08-.64-9.67-2.02-15.07l4.91-11.76c3.72-.29,3.67,8.05,2.01,11.03Z"/>
  <path class="st41" d="M240.18,85.02c-1.22,5.58-2.05,15.28-1.95,16.04-2.44-.53-3.94-3.08-4.52-7.65-1.98-3.68-2.17-6.48-.55-8.39-1.16-3.72-2.72-10.33,2.13-10.98,1.94,3.57,3.2,7.35,4.89,10.97Z"/>
  <path class="st67" d="M19.81,159.86l.71,8.11c.57,4.47-.54,6.44-3.35,5.92-1.33-3.01-3.44-6.58-2.89-9.96,1.12-6.9.11-12.27,2.58-17.18,3.31,2.82,4.69,9.13,2.94,13.11Z"/>
  <path class="st21" d="M28.05,75.17c2.83,2.15-1.89,11.84-5.43,9.91l-2.01-11.03c1.36-3.26,3.36-6.27,5.37-9.25,4.12.19,3.19,7.2,2.07,10.37Z"/>
  <path class="st30" d="M23.18,169.93l1.53,7.77c.38,3.21-.52,5.36-2.7,6.46-2.5-3.05-3.26-6.7-4.83-10.27,2.99-2.74-.28-8.85,2.64-14.03,3.13-.76,5.91,8.33,3.37,10.06Z"/>
  <path class="st55" d="M235.29,74.05c-2.19,3.44-.45,7.53-2.13,10.98-3.59,1.66-8.02-7.83-5.31-10.08-1.02-3.31-1.91-11.38,3.09-8.9l4.36,8.01Z"/>
  <path class="st55" d="M235.11,182.22c-1.28,2.67-2.57,5.11-4.33,7.69-5.19,2.22-3.67-5.73-3-9.12-2.81-1.59,1.38-10.13,4.42-9.66,2.99,2.26,1.09,6.81,2.91,11.09Z"/>
  <path class="st33" d="M32.86,190.34c2.38,1.91,2.59,7.73-.73,8.39-2.65-1.25-4.84-4.14-5.07-6.98-2.35-2.96-3.51-10.52,1.31-10.6,3.46-.8,8.34,7.09,4.48,9.19Z"/>
  <path class="st29" d="M230.93,66.04c-3.09,1.26-.96,5.49-3.09,8.9-3.36.93-8.78-7.53-4.6-9.08-2.14-2.33-1.39-7.89,1.99-8.12,1.88,2.61,4.07,5.32,5.7,8.3Z"/>
  <path class="st21" d="M28.37,181.14c-1.74,3.39-1.59,7.06-1.31,10.6-3.15-1.25-3.23-5.35-5.06-7.59.84-4.78.73-9.49,1.17-14.23.73-.23,1.79-.54,2.17-.08,1.35,1.61,5.36,9.86,3.03,11.3Z"/>
  <path class="st33" d="M32.73,66.03c4.1,1.43-1.1,9.53-4.68,9.14l-2.07-10.37,4.77-7.07c4.62-2.26,4.36,5.73,1.97,8.3Z"/>
  <path class="st29" d="M230.78,189.91c-1.83,2.68-2.48,6.7-5.88,7.84-3.02-1.38-3.41-4.68-1.17-9.9-2.25-2.36,1.01-7.45,4.05-7.06,2.2,3.63.04,7.78,3,9.12Z"/>
  <path class="st6" d="M220.23,204.91l-6.14,7.15c-4.21-.79-3.21-5.96-1.55-9.07-2.19-2.2,2.58-8.28,5.4-7.06,3.39-.78,4.16,6.47,2.29,8.98Z"/>
  <path class="st20" d="M224.9,197.75c-.19,3.14-2.86,5.04-4.68,7.16l-2.29-8.98c-1.77-2.47,2.99-8.56,5.79-8.09l1.17,9.9Z"/>
  <path class="st61" d="M65.99,32.82c3.37,2.83-5.5,9.06-7.24,5.22-2.96,1.06-4.29-4.88-1.85-6.4,2.4-2.15,4.95-4,7.95-5.62,2.62.39,3.3,5.5,1.13,6.81Z"/>
  <path class="st42" d="M225.24,57.74l-1.99,8.12c-3.11,2.29-8.59-4.74-5.43-7.07-1.3-1.85-1.32-8.18,1.4-8.84,2.64,2.18,4.15,5.19,6.02,7.79Z"/>
  <path class="st48" d="M214.09,212.06c-1.84,2.14-3.99,3.12-5.95,4.87-4.12-.45-3.69-5.24-1.42-7.91-1.45-2.44,3.34-7.47,5.81-6.03.48,3.22.6,6.17,1.55,9.07Z"/>
  <path class="st44" d="M37.61,59.22c4.63,1.02-1.51,9.71-4.88,6.81-.06-.87-1.26-2.15-.56-3.81s.18-3.32-1.42-4.49c1.51-2.24,3.07-4.66,5.05-6.81,3.15-.87,4.1,6.41,1.8,8.3Z"/>
  <path class="st57" d="M208.14,216.93c-1.84,1.65-2.95,5.14-6.3,4.87-3.37.14-3.86-4.8-1.83-6.99-1.69-2.59,4.21-7.56,6.71-5.79.07,2.77.36,5.32,1.42,7.91Z"/>
  <path class="st24" d="M59.35,217.67c2.61,2.45,2.45,7.82-1.63,7.38-1.5-1.34-3.9-2.78-5.71-4.01-2.52-2.8-3.23-8.76,1.22-8.22,2.14-2.18,7.44,2.13,6.11,4.84Z"/>
  <path class="st26" d="M94.2,20.19c-.14,3.45-5.82,5.35-8.17,2.94-2.47-1.16-2.62-6.02-.2-7.32l7.26-2.71c3.34.2,4.26,5.87,1.11,7.09Z"/>
  <path class="st74" d="M38.27,196.9c1.81,2.62,1.17,7.9-2.38,8.09-1.47-1.51-4.03-3.44-3.75-6.26l.73-8.39c3-3.59,7.88,3.93,5.41,6.56Z"/>
  <path class="st59" d="M204,34.97c2.27,2.67,3.28,7.11-.95,7.74-2.53,2.78-8.11-1.39-6.07-4.83-3.32-1.66-2.55-7.54,1.23-6.99,1.42,1.35,3.99,2.83,5.79,4.08Z"/>
  <path class="st61" d="M66.2,222.73c2.05,1.5,1.35,6.83-1.32,7.24-2.7-1.48-4.94-2.94-7.16-4.92,1.54-2.25,1.4-4.72,1.63-7.38,1.54-2.69,8.13,2.33,6.86,5.06Z"/>
  <path class="st31" d="M122.05,240.91c2.53,1.11,3.2,5.61.94,7.25-3.05.1-6.27.13-8.97-1.22-2.06-1.65-1.4-5.59.94-6.94,1.62-2.62,6.11-1.96,7.09.9Z"/>
  <path class="st65" d="M86.12,232.9c2.85.97,1.9,7.09-1.13,7.3-2.47-.74-4.6-2.02-6.98-3.24-2.86-1.03-1.97-6.83,1.06-7.16.89-2.95,7.71.2,7.05,3.1Z"/>
  <path class="st16" d="M79.07,229.8l-1.06,7.16c-2.38-1.22-5.9-1.12-6.95-4.16-2.99-.47-1.91-6.76,1.02-6.84,2.46-1.81,7.17.81,6.99,3.84Z"/>
  <path class="st46" d="M56.91,31.63l1.85,6.4c2.29,3.49-3.12,8.17-5.98,5.01-3.37.84-3.62-4.93-1.86-7.28,1.79-1.8,4.36-2.67,5.99-4.13Z"/>
  <path class="st53" d="M53.23,212.83c-1.61,2.67-1.33,5.46-1.22,8.22-2.52-1.71-4.18-4.07-6.23-6.04-1.48-2.64-2.06-7.26,1.48-8.05,1.88-2.46,7.65,3.38,5.98,5.88Z"/>
  <path class="st73" d="M170.09,15.74c2.8,1.27,2.95,6.51-.12,7.29-1.31,2.77-7.14.76-6.89-2.2-2.94-1.01-3.07-7.07-.06-7.91l7.07,2.82Z"/>
  <path class="st38" d="M100.97,10.92c3,.32,2.93,6.37.01,7.01,1.82,3.38-5.09,5.08-6.78,2.26.03-2.51-.46-4.82-1.11-7.09l7.88-2.18Z"/>
  <path class="st8" d="M198.2,30.89c-1.46,2.31-1.37,4.73-1.23,6.99-2.36,3.28-7.98-1.27-6.89-4.56-2.75-1.13-.86-6.87,2.14-6.56,2.08,1.32,4.12,2.35,5.99,4.13Z"/>
  <path class="st62" d="M107.72,9.82c2.9.68,3.64,5.41,1.2,7-.3,3.4-6.53,4.5-7.93,1.1v-7.01s6.74-1.1,6.74-1.1Z"/>
  <path class="st72" d="M47.25,206.95c-.93,2.75.13,5.45-1.48,8.05-1.95-1.88-3.88-3.85-5.81-5.83-1.76-2.35-.59-7.02,2.55-7.16,2.81-.94,5.92,2.12,4.73,4.93Z"/>
  <path class="st13" d="M147.89,246.81c-2.52.82-5.39.14-7.99.93-2.44-1.04-3.12-6.34-.94-7.9-.02-3.21,6.33-3.27,7.22-.5,2.95-.71,4.43,6.17,1.71,7.48Z"/>
  <path class="st72" d="M47.03,48.75c2.61,2.3-2.58,7.87-5.28,6.26-2.65-1.45-2.34-6.52-1.09-9.03,1.4-2.16,2.93-3.72,5.09-5.16,4.24-.55,4.09,5.53,1.28,7.93Z"/>
  <path class="st56" d="M209.96,40.71c1.78,2.45,1.9,6.94-1.7,7.33-2.39,2.92-8.27-3.03-5.21-5.33.91-2.4,1.2-4.97.95-7.74,2.39,1.66,4.02,3.8,5.97,5.74Z"/>
  <path class="st17" d="M72.08,225.96l-1.02,6.84c-2.69.35-4.34-1.83-6.18-2.83.05-2.48.15-4.77,1.32-7.24,1.86-2.04,7.11.36,5.88,3.23Z"/>
  <path class="st43" d="M52.77,43.04c2.63,2.64-3.11,8.35-5.74,5.71.27-2.56.31-5.28-1.28-7.93,1.58-1.05,3.71-3.61,5.16-5.06l1.86,7.28Z"/>
  <path class="st6" d="M219.21,49.96c.14,3.19.36,6.33-1.4,8.84-2.45,3.12-8.36-4.13-4.23-5.73-2.55-1.69-1.67-7.1,1.47-7.28,1.22,1.21,2.87,3.11,4.15,4.17Z"/>
  <path class="st64" d="M41.75,55.01c2.08,2.72-1.43,6.65-4.14,4.21l-1.8-8.3c1.36-1.48,3.87-3.43,4.86-4.94,1.45,3.07,1.62,6.05,1.09,9.03Z"/>
  <path class="st47" d="M98.17,237.01c4.16,1.17,4.13,6.45-.13,7.1-2.49-.57-4.59-1.35-7.05-2.09-2.08-1.7-1.35-5.75,1.09-7.06.55-2.99,6.59-.83,6.09,2.05Z"/>
  <path class="st35" d="M177.03,237.25c-1.99,1.42-4.45,2.2-6.88,3-3.05.05-3.79-6.02-1.01-7.07-1.62-2.61,5.19-5.59,6.9-3.16,2.42.74,3.13,5.72,1,7.22Z"/>
  <path class="st28" d="M177.24,18.76c2.11,1.66,1.34,6.3-1.2,7.13-.93,2.9-6.84-.03-6.07-2.86l.12-7.29c2.58,1.03,4.76,1.72,7.15,3.01Z"/>
  <path class="st52" d="M170.15,240.25l-6.03,1.97c-3.94-.45-4.51-5.37-1.04-7.08-.55-2.98,4.56-4.48,6.05-1.95l1.01,7.07Z"/>
  <path class="st13" d="M147.02,9.11c3.15.81,1.88,5.8-.09,7.67-1.22,2.83-5.5,1.56-6.91-.81-3.06-.27-3.07-7.06-.16-7.71,2.35.87,4.81.29,7.16.85Z"/>
  <path class="st3" d="M201.84,221.8c-.38,2.77-3.38,3.05-4.92,4.34-2.88,1.19-4.63-5.67-2.09-7.15-1.17-2.65,2.55-5.51,5.18-4.18l1.83,6.99Z"/>
  <path class="st14" d="M215.06,45.78l-1.47,7.28c-2.41,2.97-8.25-2.52-5.33-5.02l1.7-7.33,5.1,5.07Z"/>
  <path class="st34" d="M92.08,234.96c.02,2.46.17,4.87-1.09,7.06l-6-1.81,1.13-7.3c1.46-2.48,6.39-.84,5.96,2.06Z"/>
  <path class="st17" d="M71.23,30.29c1.85,3.01-3.86,6.13-5.24,2.53-1.01-2.01-1.11-4.32-1.13-6.81,1.65-.89,3.35-1.97,5.19-3,3.83-.4,4.01,5.38,1.19,7.28Z"/>
  <path class="st19" d="M163.02,12.93l.06,7.91c-1.26,2.75-6.33,1.04-6.1-1.88-2.94-.83-3.08-6.83-.09-7.7,2.07.26,4.27.93,6.13,1.67Z"/>
  <path class="st65" d="M85.83,15.81c.54,2.58.67,4.86.2,7.32.49,2.88-3.03,4.06-5.2,2.22-3.81.05-3.76-5.62-.85-7.29,1.95-1.32,3.88-1.51,5.85-2.25Z"/>
  <path class="st64" d="M42.52,202.02c-.8,2.55-1.3,4.84-2.55,7.16l-4.08-4.18,2.38-8.09c2.96-1.32,6.15,2.46,4.25,5.12Z"/>
  <path class="st1" d="M138.96,239.84c.94,2.51,1.33,5.26.94,7.9-2.14.65-4.63.04-6.82.1-2.19-1.45-2.09-6.38.88-6.84-1-2.82,3.85-3.78,5-1.16Z"/>
  <path class="st2" d="M196.92,226.15c-1.87,1.57-3.84,2.55-5.74,3.84-2.33-1.29-3.63-5.36-1.46-7.11-1.37-2.95,2.59-5.97,5.11-3.88l2.09,7.15Z"/>
  <path class="st49" d="M152.91,238.13c2.33,1.68,2.87,5.37.19,6.99l-5.21,1.69-1.71-7.48c-.53-2.98,5.74-3.96,6.73-1.21Z"/>
  <path class="st76" d="M114,8.88c3.03.38,2.87,6.48-.02,7.09.82,2.88-4.07,3.54-5.06.85-.72-2.14-.87-4.43-1.2-7,2.19-.36,3.88-.81,6.28-.94Z"/>
  <path class="st45" d="M187.16,23.78c2.29,1.66,1.08,5.91-1.41,7.04-2.4,2.47-8.58-.88-5.39-3.75-2.67-1.9-1.46-6.83,1.9-6.26,1.28.82,3.5,2.44,4.91,2.97Z"/>
  <path class="st76" d="M114.96,240.01c.16,2.37.3,4.8-.94,6.94l-4.07-.11c-3.82-1.03-4.42-6.11-.92-7.77.49-2.96,5.9-1.94,5.93.95Z"/>
  <path class="st63" d="M134.96,8.1c3.02.34,2.89,6.37,0,6.95.34,3-5.45,2.8-5.94-.05-3.03-.03-2.88-6.42,0-6.94l5.95.04Z"/>
  <path class="st32" d="M189.72,222.87c1.43,2.28,1.47,4.62,1.46,7.11-1.5,1.02-3.4,2.16-4.94,3.01-2.74-1.24-2.94-4.89-1.17-7.06-2.54-2.91,2.45-5.5,4.65-3.06Z"/>
  <path class="st51" d="M80.83,25.35c.57,3.16-3.47,5.14-5.65,2.82-2.74-.37-3.17-6.21-.97-7.48,1.7-.95,4.16-1.55,5.77-2.64-.07,2.45-.15,4.88.85,7.29Z"/>
  <path class="st60" d="M192.22,26.75l-2.14,6.56c-1.77,2.55-5.34.54-4.33-2.49.12-2.33.11-4.69,1.41-7.04,1.92.72,3.54,2.01,5.05,2.97Z"/>
  <path class="st37" d="M180.68,227.91c2.69.2,3.55,5.78,1.56,7.26-1.57.86-3.92,1.28-5.21,2.08-1.29-2.39-1.18-4.81-1-7.22-1.54-2.57,3-4.47,4.65-2.12Z"/>
  <path class="st10" d="M103.98,238.04c4.01,1,3.41,8.09-.8,7.25l-5.14-1.19c1.35-2.27,1.44-4.96.13-7.1.13-3,5.78-1.89,5.81,1.03Z"/>
  <path class="st25" d="M133.96,241.01c-.57,2.24.38,4.67-.88,6.84l-5.08.14c-3.02-.36-2.85-6.39.04-6.96-.41-2.98,5.36-2.9,5.92-.03Z"/>
  <path class="st45" d="M185.07,225.94c1.29,2.12,1.03,4.56,1.17,7.06l-3.99,2.18c-1.29-2.38-1.38-4.73-1.56-7.26-.12-3.04,2.28-4.24,4.38-1.97Z"/>
  <path class="st58" d="M164.12,242.23c-1.92.63-3.84,1.49-5.97,1.98-3.06-.34-3.06-6.47-.2-7.25-.92-2.86,3.7-4.27,5.13-1.81-.3,2.29-.38,4.74,1.04,7.08Z"/>
  <path class="st39" d="M151.87,10.26c2.94.72,3.21,6.59.23,7.46-1.91,2.37-4.23,1.94-5.17-.95-1.26-2.55.36-5.19.09-7.67l4.85,1.15Z"/>
  <path class="st15" d="M128.04,241.03l-.04,6.96-5.01.17c-.79-2.26-1.18-4.69-.94-7.25-.32-2.99,5.49-2.76,5.99.13Z"/>
  <path class="st71" d="M139.86,8.26l.16,7.71c-1.18,3.1-4.78,2.08-5.08-.91v-6.95c1.53.01,3.44-.39,4.91.16Z"/>
  <path class="st75" d="M119.04,8.02c3.1.48,2.75,7.02-.13,7.72-.08,3.19-3.88,2.96-4.94.23l.02-7.09c1.43-.08,3.15-.84,5.04-.86Z"/>
  <path class="st23" d="M157.95,236.95l.2,7.25c-1.49.34-3.5.41-5.05.92-.07-2.52-.95-4.74-.19-6.99.53-2.91,3.28-3.52,5.04-1.18Z"/>
  <path class="st37" d="M182.26,20.82c-1.35,2.23-1.29,4.38-1.9,6.26-.76,3.29-4.74,2.09-4.32-1.18-.22-2.38.21-4.64,1.2-7.13,1.41.77,3.43,1.04,5.01,2.06Z"/>
  <path class="st27" d="M109.04,239.06c-.12,2.64-.53,5.49.92,7.77-2.37-.07-4.61-1.04-6.77-1.54,1.63-2.32,1.91-4.92.8-7.25.26-2.98,5.09-1.84,5.06,1.02Z"/>
  <path class="st23" d="M156.9,11.25l.09,7.7c-.81,2.88-5.03,1.58-4.88-1.23l-.23-7.46c1.7.4,3.29.77,5.03.99Z"/>
  <path class="st11" d="M124,7.96c3,0,2.92,6.36,0,6.9-.43,2.64-3.84,3.35-5.09.88l.13-7.72,4.96-.06Z"/>
  <path class="st54" d="M129.01,8.06v6.94c-.16,2.99-4.55,2.63-5.01-.14v-6.9s5.01.1,5.01.1Z"/>
  <path class="st66" d="M74.21,20.69c1.01,2.39.88,4.85.97,7.48.98,2.71-1.97,4.03-3.94,2.12-.03-2.54-.04-4.96-1.19-7.28l4.16-2.32Z"/>
  <path class="st70" d="M85.1,118.02c-6.01,2.49-5.7,13.62-5.11,18.71l2.1,18.19c-14.88.52-26.5-5.37-32.14-18.97-6.42-15.48,1.76-32.89,17.88-38.21,4.35-13.63,21.66-22.76,35.29-18.41,4.31-13.16,15.66-21.02,28.45-21.44s24.86,7.35,29.79,20.16c21.68-5.42,44.8,11.68,46.64,33.79s-13,40.4-34.27,42.81l1.48-10.9c1.04-7.67,1.83-18.8-3.47-25.47l-43.79-18.01-42.84,17.75Z"/>
  <path class="st18" d="M128.27,197.98c-27.39-9.72-43.94-36.55-43.19-64.77l1.55-10.64,41.6-16.66,35.6,14.07c4.69,1.85,5.79,4.25,6.26,9.03,2.95,29.81-13.01,58.11-41.83,68.96ZM128.12,184.92c21.14-10.12,32.66-31.97,29.53-54.28l-29.67-11.93-30.75,12.67c-1.3,22.57,10.18,44.13,30.89,53.55Z"/>
  <path class="st0" d="M133.21,126.74l1.99,1.51c.23,15.31-.03,30.52-.8,45.65l-1.42,1.83c-.66,1.67-2.47,1.99-4.26,2.53-.96.19-1.85-.44-2.32-1.27-1.25-2.22-.37-44.7-.07-50.91l2.01-1.18c2.29-.08,3.55,1.51,4.87,1.84Z"/>
  <path class="st15" d="M128.33,124.9l-.38,50.11c.09,1.29.46,2.21.76,3.24-2.52,1.27-4.98-1.59-6.8-3.11-.73-.94-.87-1.97-.39-3.09l-.47-44.11,1.99-1.21c1.23-.97,3.34-1.77,5.29-1.83Z"/>
  <path class="st4" d="M138.47,128.71l1.98,1.83c-.23,12.96-.4,25.9-.5,38.83l-1.08,1.72c-2.07,1.77-3.61,3.75-5.89,4.63l.23-48.98c2.27.56,3.48,1.28,5.26,1.96Z"/>
  <path class="st11" d="M123.05,126.73l.47,45.47c0,1.27-.61,2.24-1.59,2.94-1.52-1.28-2.85-2.41-4.31-3.33l-1.23-3.43-.15-37.91,1.99-1.21c.79-2.8,3.7-1.64,4.82-2.53Z"/>
  <path class="st7" d="M118.23,129.26l.38,38.46-.99,4.1c-2.32-1.46-3.09-4.35-4.88-5.89-.95-4.04-2.04-33.27-.73-34.5.33-.31.76-.52,1.22-.7,1.5-1.24,3.06-2.01,5.01-1.46Z"/>
  <path class="st68" d="M143.09,131.44c1.18.73,1.5,1.92.95,3.6.17,4.85.58,27.27-.56,29.86-.16.37-.49.68-.85.96,0,2.98-2.18,3.88-3.77,5.24-.33-.95-.75-1.92-.75-3.09l.35-39.29c1.77.68,3.73.65,4.63,2.73Z"/>
  <path class="st12" d="M147.19,132.23l2,1.46c.71,9.07.05,17.89-2,26.43-1.18,1.95-1.67,4.78-4.55,5.73-.43-2.43-.66-4.95-.65-7.84l.06-23.07c0-1.55.41-2.82,1.04-3.51,1.95-.74,2.93.29,4.09.79Z"/>
  <path class="st50" d="M113.22,130.72l.79,31.33c.02,1.53-.46,2.83-1.28,3.87-2.13-1.85-2.77-3.79-4.06-5.98-1.01-5.58-2.89-21.15-.96-25.83.45-1.08,1.34-1.82,2.34-2.38,1.14-.56,2.56-.58,3.17-1.01Z"/>
  <path class="st27" d="M110.05,131.73c-1.55,9.52,0,19.18-1.38,28.21-5.22-8.87-5.59-15.03-6.39-24.55,1.64-2.43,5.56-2.56,7.77-3.66Z"/>
  <path class="st39" d="M147.19,160.12v-27.89c1.92.82,3.68,1.05,5.72,2.08.75,9.22-1.14,18.26-5.72,25.81Z"/>
</svg>