<?xml version="1.0" encoding="UTF-8"?>
<svg id="Layer_1" xmlns="http://www.w3.org/2000/svg" version="1.1" xmlns:xlink="http://www.w3.org/1999/xlink" viewBox="0 0 256 256">
  <!-- Generator: Adobe Illustrator 30.4.0, SVG Export Plug-In . SVG Version: 2.1.4 Build 226)  -->
  <defs>
    <style>
      .st0 {
        fill: #1b82d4;
      }

      .st1 {
        fill: #2358e9;
      }

      .st2 {
        fill: #149ec7;
      }

      .st3 {
        fill: #2843f4;
      }

      .st4 {
        fill: url(#linear-gradient2);
      }

      .st5 {
        fill: #05e6a3;
      }

      .st6 {
        fill: #225ee7;
      }

      .st7 {
        fill: #12a9c1;
      }

      .st8 {
        fill: #264fee;
      }

      .st9 {
        fill: #1791cd;
      }

      .st10 {
        fill: #254fee;
      }

      .st11 {
        fill: #0acfae;
      }

      .st12 {
        fill: #2163e4;
      }

      .st13 {
        fill: #0cc6b3;
      }

      .st14 {
        fill: #2a3cf8;
      }

      .st15 {
        fill: #188dcf;
      }

      .st16 {
        fill: #09d1ad;
      }

      .st17 {
        fill: #03f19d;
      }

      .st18 {
        fill: #09d3ac;
      }

      .st19 {
        fill: #02f39c;
      }

      .st20 {
        fill: #1792cd;
      }

      .st21 {
        fill: #13a5c3;
      }

      .st22 {
        fill: #1f6edf;
      }

      .st23 {
        fill: #159ec6;
      }

      .st24 {
        fill: #0bc9b1;
      }

      .st25 {
        fill: #2c32fd;
      }

      .st26 {
        fill: #264bf0;
      }

      .st27 {
        fill: #235ce8;
      }

      .st28 {
        fill: #293ef7;
      }

      .st29 {
        fill: #2165e3;
      }

      .st30 {
        fill: #188fce;
      }

      .st31 {
        fill: url(#linear-gradient1);
      }

      .st32 {
        fill: #10b1bd;
      }

      .st33 {
        fill: #0cc6b2;
      }

      .st34 {
        fill: #2747f2;
      }

      .st35 {
        fill: #1795cb;
      }

      .st36 {
        fill: #00fe96;
      }

      .st37 {
        fill: #10b3bc;
      }

      .st38 {
        fill: #2940f6;
      }

      .st39 {
        fill: #2551ed;
      }

      .st40 {
        fill: #2a39fa;
      }

      .st41 {
        fill: #2b37fa;
      }

      .st42 {
        fill: #11afbe;
      }

      .st43 {
        fill: #1698c9;
      }

      .st44 {
        fill: #2841f5;
      }

      .st45 {
        fill: #1d77da;
      }

      .st46 {
        fill: #01f79a;
      }

      .st47 {
        fill: #0ebfb6;
      }

      .st48 {
        fill: #04ec9f;
      }

      .st49 {
        fill: #2842f5;
      }

      .st50 {
        fill: #0acdaf;
      }

      .st51 {
        fill: #159cc8;
      }

      .st52 {
        fill: #293cf8;
      }

      .st53 {
        fill: #1e74dc;
      }

      .st54 {
        fill: #1890ce;
      }

      .st55 {
        fill: #02f69a;
      }

      .st56 {
        fill: #1988d1;
      }

      .st57 {
        fill: #05e5a3;
      }

      .st58 {
        fill: #2458ea;
      }

      .st59 {
        fill: #0dc3b4;
      }

      .st60 {
        fill: #1b7ed7;
      }

      .st61 {
        fill: #1a87d2;
      }

      .st62 {
        fill: #2162e5;
      }

      .st63 {
        fill: #0dc1b5;
      }

      .st64 {
        fill: #1b7fd6;
      }

      .st65 {
        fill: #00fe97;
      }

      .st66 {
        fill: #13a4c3;
      }

      .st67 {
        fill: #1698ca;
      }

      .st68 {
        fill: #1d75db;
      }

      .st69 {
        fill: #2749f2;
      }

      .st70 {
        fill: #2552ed;
      }

      .st71 {
        fill: #1c7cd8;
      }

      .st72 {
        fill: #07dea6;
      }

      .st73 {
        fill: #1a84d3;
      }

      .st74 {
        fill: #0ebdb7;
      }

      .st75 {
        fill: #1699c9;
      }

      .st76 {
        fill: #198ad0;
      }

      .st77 {
        fill: url(#linear-gradient3);
      }

      .st78 {
        fill: #1f6ddf;
      }

      .st79 {
        fill: #293df8;
      }

      .st80 {
        fill: #11aebe;
      }

      .st81 {
        fill: #2459ea;
      }

      .st82 {
        fill: #03ee9e;
      }

      .st83 {
        fill: #206ae0;
      }

      .st84 {
        fill: #2846f3;
      }

      .st85 {
        fill: #0dc0b5;
      }

      .st86 {
        fill: #03ed9f;
      }

      .st87 {
        fill: #06e2a4;
      }

      .st88 {
        fill: #08d9a9;
      }

      .st89 {
        fill: #09d4ab;
      }

      .st90 {
        fill: #09d6aa;
      }

      .st91 {
        fill: #2067e2;
      }

      .st92 {
        fill: #10b5bb;
      }

      .st93 {
        fill: #0bccaf;
      }

      .st94 {
        fill: #12acc0;
      }

      .st95 {
        fill: #2454ec;
      }

      .st96 {
        fill: #1c7dd7;
      }

      .st97 {
        fill: #1989d1;
      }

      .st98 {
        fill: #0fb8ba;
      }

      .st99 {
        fill: #264eef;
      }

      .st100 {
        fill: #2069e1;
      }

      .st101 {
        fill: #2161e5;
      }

      .st102 {
        fill: #04eba0;
      }

      .st103 {
        fill: #2456ea;
      }

      .st104 {
        fill: url(#linear-gradient);
      }

      .st105 {
        fill: #02f59b;
      }

      .st106 {
        fill: #14a5c3;
      }

      .st107 {
        fill: #13a4c4;
      }

      .st108 {
        fill: #08d8a9;
      }

      .st109 {
        fill: #1793cc;
      }

      .st110 {
        fill: #2550ee;
      }

      .st111 {
        fill: #0fb9b9;
      }

      .st112 {
        fill: #2749f1;
      }

      .st113 {
        fill: #04eca0;
      }

      .st114 {
        fill: #188ecf;
      }

      .st115 {
        fill: #2a38fa;
      }

      .st116 {
        fill: #1e70de;
      }

      .st117 {
        fill: #2747f3;
      }
    </style>
    <linearGradient id="linear-gradient" x1="-764.56" y1="749.57" x2="-812.15" y2="834.1" gradientTransform="translate(832 -668)" gradientUnits="userSpaceOnUse">
      <stop offset="0" stop-color="#2455eb"/>
      <stop offset=".79" stop-color="#00fd97"/>
      <stop offset="1" stop-color="#00fe96"/>
    </linearGradient>
    <linearGradient id="linear-gradient1" x1="-771.93" y1="699.38" x2="-800.17" y2="753.44" gradientTransform="translate(832 -668)" gradientUnits="userSpaceOnUse">
      <stop offset="0" stop-color="#2c32fd"/>
      <stop offset=".39" stop-color="#2c33fc"/>
      <stop offset="1" stop-color="#1a83d4"/>
    </linearGradient>
    <linearGradient id="linear-gradient2" x1="-670.51" y1="696.84" x2="-733.92" y2="820.54" gradientTransform="translate(832 -668)" gradientUnits="userSpaceOnUse">
      <stop offset="0" stop-color="#2c32fd"/>
      <stop offset=".55" stop-color="#2c33fc"/>
      <stop offset="1" stop-color="#0fb9b9"/>
    </linearGradient>
    <linearGradient id="linear-gradient3" x1="-693.93" y1="815.79" x2="-716.42" y2="854.77" gradientTransform="translate(832 -668)" gradientUnits="userSpaceOnUse">
      <stop offset="0" stop-color="#1a86d3"/>
      <stop offset="1" stop-color="#05e7a2"/>
    </linearGradient>
  </defs>
  <path class="st36" d="M110.77,236.98l-45.59.04c-.36-2.17-.35-3.87,0-6.03h45.64c.3,1.85.41,3.19-.05,5.99Z"/>
  <path class="st36" d="M46.06,222.43c6.47-1.19,12.63,3.71,13.73,9.28,1.28,6.52-2.9,12.44-9.86,13.69-5.36.97-11.68-2.45-13.07-8.72-1.28-5.76,1.84-12.9,9.21-14.25Z"/>
  <path class="st36" d="M51.67,215.63c0,1.8-5.12,1.91-6.59,1.09l-.04-27.45c1.75-.75,5.99-.65,6.69.88l-.07,25.49Z"/>
  <path class="st36" d="M30.91,237l-13.85-.07c-1.68,0-2.02-1.6-2.15-2.46s.05-3.15,1.4-3.18l14.56-.3.04,6.01Z"/>
  <path class="st57" d="M215.83,242.15c-1.21,1.19-2.5,2.07-4.17,2.74-6.2-.65-11.7-4.32-15.75-8.95-.21-.86.23-2.24.31-3.33.55-.83,1.26-1.83,2.17-1.84,1,0,15.62,8.91,17.23,10.1.25.18.26.68.21,1.27Z"/>
  <path class="st72" d="M216.87,240.27c-.22.89-.48,1.32-1.04,1.87-6.96-1.55-14.06-10.05-19.62-9.53.14-1.89.65-3.29,1.95-4.59,5.8,2.76,12.75,6.76,18.19,10.61.37.26.48.9.51,1.63Z"/>
  <path class="st50" d="M205.39,222.57c5.13,1.57,11.21,4.45,13.56,9.53l-.08,3.19c-.33.38-.68.71-1.09.88-.89.36-15.85-9.05-16.53-9.73-.28-.28-.2-.91-.02-1.65.74-1.77,2.51-1.72,4.17-2.22Z"/>
  <path class="st86" d="M211.66,244.89c-7.1,2.86-14.12-2.12-15.75-8.95,3.1.63,5.9,2.33,8.44,4.72,3.15.83,5.65,2.34,7.31,4.23Z"/>
  <path class="st108" d="M217.9,238.25c-.43.63-.88,1.44-1.02,2.03-6.54-3.82-13.2-7.26-18.7-12.25l.98-.97c.22-.39.46-.72.78-.85.98-.39,17.95,9.52,18.14,10.56.08.47-.01.97-.16,1.47Z"/>
  <path class="st18" d="M201.23,224.79c3.12,2.66,6.67,4.71,10.8,6.14l6.84,4.35c-.04,1.52-.35,2.04-.98,2.96l-11.78-7.47c-2.36-1.42-4.44-3.25-6.97-3.72-.15-.57.17-1.55.69-1.72.32-.11,1.23-.14,1.4-.54Z"/>
  <path class="st13" d="M218.96,232.09c-5.3-4.09-10.37-5.22-13.56-9.53,5.87-1.78,13.73,3.24,13.56,9.53Z"/>
  <path class="st32" d="M211.02,212.61c-.02,1.41.46,4.35-1.36,4.44-2.91-.82-4.84-2.29-5.77-4.4l.21-4.95c2.1-2.03,6.38,2.1,6.92,4.92Z"/>
  <path class="st7" d="M211.09,208.45l-.07,4.17c-3.08-.69-3.84-4.34-6.92-4.92v-2.17c1.55-1.81,6.51.33,6.99,2.92Z"/>
  <path class="st20" d="M210.86,196.36l.11,3.04c-1.32,2.87-6.11-1.31-6.96-3.74l.23-2.98c1.18-1.94,6.46,1.37,6.63,3.68Z"/>
  <path class="st75" d="M210.97,199.4l.03,3.03c-2.29,2.28-6.21-.89-6.87-3.75l-.12-3.02c2.66.59,3.85,3.58,6.96,3.74Z"/>
  <path class="st23" d="M210.99,202.43l-.03,2.61c-1.13,2.66-6.6-.37-6.82-3.34l-.02-3.03c2.26,1.59,4.26,3.45,6.87,3.75Z"/>
  <path class="st15" d="M211.02,193.25l-.16,3.11-6.63-3.68c.04-.52-.19-1.43.1-2.13,2.65-1.56,6.22-.51,6.69,2.7Z"/>
  <path class="st107" d="M210.96,205.04l.12,3.41c-2.36-1.19-4.45-2.77-7-2.92l.05-3.82c2.08,1.88,4.18,3.47,6.82,3.34Z"/>
  <path class="st98" d="M209.66,217.05c-1.83.09-3.87.32-5.35-.42-.71-.65-.46-2.99-.42-3.98,2.38.75,5.89,1.52,5.77,4.4Z"/>
  <path class="st61" d="M211.02,193.25c-2.3-1.03-4.27-2.95-6.69-2.7.7-1.7,3.49-2.16,5.94-1.4,1.18.37.81,2.92.75,4.1Z"/>
  <path class="st36" d="M126.07,222.44c6.71-1.26,12.43,3.73,13.51,9.53,1.2,6.45-3.24,12.37-9.71,13.52-5.94,1.06-11.66-2.65-13.29-8.76s2.18-12.92,9.49-14.3Z"/>
  <path class="st36" d="M130.85,206.21l.11,10.68-5.94-.02v-13.02c1.47-3.6,5.99-.99,5.84,2.36Z"/>
  <path class="st55" d="M130.85,206.21c-1.76-1.39-3.7-2.3-5.85-2.36,0-1.08-.45-3.49.61-3.73,1.3-.3,3.19-.51,4.72.09,1.51.79.5,4.37.52,6Z"/>
  <path class="st36" d="M176.42,231.1c6.29,1.77,8.03,3.75,5.22,5.94l-36.46-.02c-.34-2.19-.34-3.83,0-6.03l31.25.12Z"/>
  <path class="st105" d="M183.35,230.94c4.19,1.22,6.38,3.05,6.59,5.47-2.48.99-5.49.63-8.3.62.66-2.86-3.66-2.31-5.22-5.94l6.93-.16Z"/>
  <path class="st85" d="M231.23,231.17c5.26.52,7.76,2.41,7.51,5.67l-7.15.04c-4.08-.46-6.13-2.21-6.14-5.24.69-1.39,4.3-.42,5.78-.47Z"/>
  <path class="st111" d="M238.74,236.84l-7.51-5.67c3.17-.09,5.65-.62,8.51.15,1.39.38,1.65,2.67,1.18,3.88-.27.68-.66,1.64-2.18,1.64Z"/>
  <path class="st82" d="M189.94,236.41l-5.35-3.05c-1.17-.58-1.63-1.51-1.23-2.42l7.59.11c-.39,1.98-.15,3.53-1.01,5.36Z"/>
  <path class="st33" d="M231.59,236.88l-6.49-.02c-.17-1.53-.44-3.63.35-5.22l6.14,5.24Z"/>
  <path class="st104" d="M23.7,83.01l2.07-.68c2.26,1.26,4.68,1.15,7.27-.33,1.08-2.82,3.97-1.99,3.93,1.09,8.93-.06,17.99-.07,27.16-.03l3.05-1.03c2.01-1.96,5.69-.21,5.83,2.47l-.04,76.93c-2.23,2.75-6.23.97-5.71-2.49l-1.34.19c-2.31-1.71-5.06-1.74-8.24-.1-.9.89-2.92-.03-3.57-1.18l-2.01.83c-7.35-1.1-17.09-1.09-24.99-.74-1.68.07-1.7,1.03,0,1.11l24.41.06,1.43,2c3.98,1.2,9.65,4.47,13.24,7.18.2.15.08.74-.14,1.46-14.77.98-31.44.81-46.88.56-.58,0-.96-.12-1.2-.72l.03-89.92c2.63-2.04,6.94.02,5.68,3.35ZM50.98,110.06c1.99.01,3.09-1.15,3.11-2.56s-1.15-2.56-3.07-2.54l-25.74.28c-1.45.02-1.93,3.72-.9,4.65l26.6.16ZM66.41,105.93c-1.91-1.63-5.77-1.37-7.61-.25-1.35.82-1.04,2.72-.37,3.36,1.39,1.33,5.28,1.48,7.58.5.8-.34,1.92-2.32.4-3.61ZM32.64,132.81c-.42-2.34-3.7-2.85-5.06-2.78s-3.71.74-3.76,2.89c-.07,3.11,2.72,3.3,4.61,3.22,1.41-.06,4.64-.92,4.21-3.32ZM64.21,135.86c2.29,0,3.31-1.94,2.77-3.23-.29-.7-1.44-2.14-2.69-2.16l-24.1-.39c-1.91-.03-3.08,1.33-3.3,2.4-.27,1.31.33,3.48,2.17,3.47l25.15-.09Z"/>
  <path class="st31" d="M72.85,34c-.38,11.88-.33,23.67.15,35.38v15.13c-2.11-.38-4.03-1.35-5.82-2.47-9.01-.07-18.13-.1-27.35-.09l-2.86,1.15c-1.07-.6-2.72-.8-3.93-1.09-3.3-.37-6.41-.03-9.34,1.01-1.2-1.62-3.74-2.19-5.68-3.35v-45.67s54.83.01,54.83.01ZM51.2,59.87c2.36,0,3.2-2.08,2.75-3.13-.3-.7-1.14-2.46-2.4-2.47l-24.37-.19c-1.91-.01-3.08,1.31-3.3,2.4-.26,1.3.33,3.49,2.18,3.48l25.14-.09ZM67.34,58.06c-1.02-4.07-3.59-4.2-5.8-4.1-1.8.09-4.65,2.63-3.17,4.74,1.79,2.57,7.09,1.47,8.98-.64Z"/>
  <path class="st36" d="M12.03,137.42l-.04,38.58,60.84-.02c.34,2.86.35,5.11-.08,8.01H11.06c-3.36,0-6.05-2.7-6.04-6.03l.07-44.34c2.81-1.72,6.16.88,6.94,3.8Z"/>
  <path class="st25" d="M12.06,33.01c-2.05,2.83-6.3-1-7.07-3.56-.13-3.25.98-8.29,5.18-8.3l62.69-.2v8.07s-60.65-.03-60.65-.03c-.44,1.72-.12,2.87-.14,4.03Z"/>
  <path class="st46" d="M72.21,170.54c-1.3.94-3.74.45-5.62.45-1.41-.25-1.67-.39-.53-1.24l-7.31-4.38c-2.32-1.39-4.66-1.95-5.8-4.25-2.43-1.38-1.68-2.6,1.04-2.12,6.02,2.26,12.02,5.32,17.99,9.19l.22,2.35Z"/>
  <path class="st17" d="M57.68,159.03c2.26-.49,5.71-.63,5.89,2.32,3.73-.83,8.03,1.58,9.42,5.23,0,1.08.21,3.24-.78,3.96l-18.21-11.54c-1.94,0-1.87-.77.11-1.15.83.54,2.98-.16,3.57,1.18Z"/>
  <path class="st63" d="M11.88,104.41l.18,7.04c-3.03,2.85-6.33-1.54-6.98-4.84v-7c2.18-2.87,6.31,1.82,6.8,4.8Z"/>
  <path class="st36" d="M66.06,169.75c.4.24.7.94.53,1.24l-47.58.03c-.92,0-1.03-.69-1.03-1.43l48.08.16Z"/>
  <path class="st11" d="M12.06,111.45c.05,2.11.08,3.93.06,5.62-2.2,2.14-6.91.38-7.16-2.53l.13-7.93c2.55,1.48,4.24,3.91,6.98,4.84Z"/>
  <path class="st100" d="M11.88,58.4c-.08,2.12.14,3.94.13,5.65-2.85,3.7-6.46-.63-6.9-4.42l-.2-5.05c2.2-2.56,6.78.79,6.96,3.82Z"/>
  <path class="st37" d="M11.87,98.41c-.06,2.1-.05,3.94,0,6l-6.78-4.8-.07-5.06c2.15-2.43,6.38.82,6.84,3.86Z"/>
  <path class="st68" d="M12.01,64.05v5.46c-1.79,3.69-6.6.49-7.07-2.95l.17-6.93c2.09,2.23,4.11,4.14,6.9,4.42Z"/>
  <path class="st6" d="M12.1,52.44l-.22,5.96-6.96-3.82.11-5.04c1.62-3.47,6.17.23,7.06,2.9Z"/>
  <path class="st64" d="M12.01,69.51l-.12,5.87c-2.13,1.81-6-.07-6.85-2.43l-.09-6.39c2.37,1.32,4.45,2.97,7.06,2.95Z"/>
  <path class="st87" d="M12.03,122.46l-.15,5.94c-2.96,1.54-6.35-1.68-6.77-4.78v-5.01c2.73-1.43,6.56.95,6.92,3.85Z"/>
  <path class="st113" d="M11.88,128.4l-.07,4.98c-2.28,1.12-6.55-1.4-6.85-3.85l.15-5.91c2.34,1.65,4.7,2.72,6.77,4.78Z"/>
  <path class="st25" d="M73,69.38c-.39-.32-.99-.74-.99-1.44l.84-33.94.15,35.38Z"/>
  <path class="st88" d="M12.12,117.07l-.09,5.39c-2.5-.76-4.71-2.12-6.92-3.85l-.16-4.07c2.66.3,4.78,1.92,7.16,2.53Z"/>
  <path class="st102" d="M72.97,161.43l.02,5.14c-3.59-.59-6.14-4.01-9.42-5.23-.18-2.42,1.62-2.96,3.69-2.4,1.38,1.2,3.78,2.19,5.71,2.49Z"/>
  <path class="st105" d="M11.81,133.37l.22,4.05c-2.46-.83-4.64-2.2-6.94-3.8l-.13-4.1c2.64.37,4.95,1.7,6.85,3.85Z"/>
  <path class="st51" d="M11.86,86.4v3.99c-2.05,2.41-6.54-1.15-6.9-3.84l.23-4.8c2.15-1.4,6.08,2.14,6.67,4.65Z"/>
  <path class="st95" d="M11.88,49.33l.22,3.1c-2.37-.97-4.47-2.53-7.06-2.9.04-1.71.14-3.19.13-4.89,2.64-2.02,6.36,1.57,6.71,4.68Z"/>
  <path class="st97" d="M11.89,75.38l.08,4.04c-1.69,2.05-6.75-.99-6.82-3.75l-.11-2.71c2.38.17,4.65.98,6.85,2.43Z"/>
  <path class="st21" d="M11.87,90.39l.12,4.03c-1.71,2.24-6.45-1.12-7.03-3.83v-4.03s6.91,3.84,6.91,3.84Z"/>
  <path class="st117" d="M12.02,41.4l-.15,3.96c-2.08.99-6.14-1.67-6.73-3.74l-.15-4.06c1.12-3.22,6.52,1.1,7.02,3.83Z"/>
  <path class="st38" d="M12,37.42l.02,3.97c-2.73-.52-3.68-3.84-7.02-3.83l.12-4.89c2.52-1.06,6.59,2.14,6.88,4.74Z"/>
  <path class="st115" d="M12.06,33.01l-.06,4.41c-2.75-.69-4.75-2.63-6.88-4.74l-.13-3.23,7.07,3.56Z"/>
  <path class="st94" d="M11.99,94.42l-.12,3.99c-2.28-1.63-4.18-3.63-6.84-3.86l-.07-3.97c2.48,1.04,4.3,3.23,7.03,3.83Z"/>
  <path class="st99" d="M11.87,45.36v3.97c-1.94-2.25-4.15-3.53-6.71-4.68l-.02-3.03c2.42,1.04,4.87,1.6,6.73,3.74Z"/>
  <path class="st30" d="M11.96,79.41l-.12,3.9c-1.82.9-5.7-2.1-6.76-3.8l.06-3.86c1.98,1.99,4.35,2.91,6.82,3.75Z"/>
  <path class="st35" d="M11.85,83.31v3.09s-6.66-4.65-6.66-4.65l-.1-2.23c2.61.35,4.72,1.91,6.76,3.8Z"/>
  <path class="st25" d="M177.97,129.26c-.45.62-.85,1.09-1.05,1.02-1.43-.52-6.58-3.33-8.15-4.28-.34-.21-.55-.64-.72-1.14l-2-.69-.27-103.18-75.81.2-.06,54.59-2,1.19c-2.28,1.83-8.11-2.68-9.93-4.45l.2-53.25c.02-4.46,3.16-9.2,7.86-9.2h83.94c4.56,0,7.9,4.67,7.9,9.29l.09,109.91Z"/>
  <path class="st65" d="M87.87,180.98c1.73-.09,2.42.91,2.07,2.99,3.98-.65,6.58.05,7.79,2.12,4.55,1.13,12.9,3.82,12.86,8.84l-24.6-.02c-9.24,0-7.85-12.04-7.86-20.3,2.55-1.66,9.44,2.78,9.75,6.37Z"/>
  <path class="st19" d="M105.75,186.08c2.54-.3,13.24,6.07,13.42,7.34.07.47-.04.97-.19,1.47l-8.39.04-12.86-8.84c.4-3.06,7.35-2.94,8.02-.01Z"/>
  <path class="st72" d="M126.02,186.11c2.27.11,12.83,6.17,13.15,7.36.11.42-.09.93-.38,1.46h-7.19c-3.86-.75-7.33-2.27-10.41-4.57-2.31-1.06-3.03-2.47-2.18-4.25.35-3.03,6.41-2.9,7.02,0Z"/>
  <path class="st5" d="M119,186.11c4.3,4.43,9.76,6.03,12.59,8.81h-7.02c-2.1.19-12.77-5.89-13.16-6.96-.29-.8.59-1.58,1.52-1.95.07-3,5.61-2.75,6.07.1Z"/>
  <path class="st33" d="M146.73,186.1c5.15.82,9.46,3.75,13.69,6.75.71.5.81,1.16.39,2.06l-7.25.03c-2.36.19-12.63-6.52-12.76-7.33-.08-.47.05-.96.23-1.47-.41-2.99,5.22-2.89,5.7-.04Z"/>
  <path class="st89" d="M87.85,158.02c3-.09,3.03,5.42.2,6-.36.91-1.19,1.94-1.89,1.63-2.7-1.2-8.13-4.17-8.06-7.01l-.13-5.02c2.1-2.69,9.38,1.29,9.88,4.4Z"/>
  <path class="st48" d="M112.93,186.01c-.2,2.09,1.44,2,3.09,3.01l8.55,5.9-5.6-.03-13.23-8.81c.36-3.04,6.51-2.96,7.19-.07Z"/>
  <path class="st47" d="M154.02,186.14c1.72.36,11.5,5.93,11.36,7.49-.04.43-.37.84-.79,1.23l-3.78.04-14.08-8.81c-.42-3.04,6.85-2.88,7.29.04Z"/>
  <path class="st90" d="M132.02,186.13c3.03,1.32,8.55,3.94,10.72,6.45.75.87.93,1.31-.16,2.29l-3.8.05c-3.58-3.47-9.06-4.76-12.76-8.82.03-3,5.53-2.82,6,.03Z"/>
  <path class="st42" d="M168.12,186c1.2-3.82,7.65,1.57,8.68,4.23-.5,1.64-1.34,2.73-3.04,2.68-.69.64-1.53.76-2.41.58-1.59-.32-9.51-5.34-8.31-7.33,0-3,4.44-2.89,5.08-.15Z"/>
  <path class="st93" d="M141.02,186.14l12.53,8.8h-4.78c-4.32-.96-9.95-4.36-13.24-7.37-.21-.19-.05-.77.21-1.47.36-2.94,4.75-2.76,5.28.04Z"/>
  <path class="st72" d="M88.05,164.02c2.93.05,2.75,3.39-.07,4-2.03,2.97-8.37-2.08-10.02-4.46l.13-4.92c1.35,1.94,3.35,1.95,5.52,2.92,1.48.66,2.65,2.73,4.42,2.46Z"/>
  <path class="st19" d="M87.99,175.14c3-.32,2.74,5.4-.13,5.84l-9.75-6.37v-3.98c2.82-1.58,7.88,2.5,9.87,4.51Z"/>
  <path class="st111" d="M157.71,186.12c4.23,1.07,9.93,4.35,13.23,7.25.2.18.05.77-.2,1.47l-6.15.03c-2.55-4.27-8.34-5.01-10.57-8.72-.2-2.98,3.05-2.76,3.69-.02Z"/>
  <path class="st1" d="M177.87,146.38v4.98c-2.52,1.46-9.43-3.2-9.98-6.35-2.92-.2-2.57-3.5.27-3.96,2.3-2.46,9.11,2.45,9.71,5.33Z"/>
  <path class="st24" d="M87.85,153.99c2.93,0,2.81,3.36,0,4.03l-9.88-4.4.02-4.04c2.34-1.59,9.29,1.59,9.86,4.41Z"/>
  <path class="st16" d="M135.74,186.1l13.03,8.83-6.2-.05c-2.58-4.25-8.23-5.18-10.56-8.74-.23-2.94,3.03-2.82,3.72-.04Z"/>
  <path class="st28" d="M87.82,80.95c2.89.06,2.72,2.34.02,3.02-2.4,1.94-9.29-2.18-9.72-5.33l-.07-3.9c3.04-1.08,9.05,2.79,9.77,6.21Z"/>
  <path class="st110" d="M177.89,142.35l-.02,4.03-9.71-5.33c-2.93.08-2.9-3.29-.12-4.04,1.67-2.68,9.22,2.37,9.85,5.34Z"/>
  <path class="st101" d="M177.87,151.36l.06,3c-.3.52-.62.97-1.07,1.21-.48.25-7.8-4.91-8.86-5.67-3,.42-2.88-4.31-.11-4.89l9.98,6.35Z"/>
  <path class="st0" d="M177.95,167.5l.07,4.93c-2.67,1.99-8.04-2.05-9.95-4.51-3.01.31-2.72-4.41.08-4.88,2.78-1.16,7.99,2.5,9.81,4.46Z"/>
  <path class="st74" d="M87.96,147.05c2.89.08,2.7,2.37,0,3.03-2.05,2.9-9.46-.91-9.85-4.48l-.12-3.99c1.94-2.4,8.69,2.71,9.96,5.44Z"/>
  <path class="st48" d="M87.83,172.87c2.81-.04,2.74,1.36.16,2.27-3.68-.18-6.8-2.11-9.88-4.51l-.08-4.01c2.63-1.85,9.51,2.77,9.8,6.25Z"/>
  <path class="st92" d="M87.82,143.01c2.93-.09,2.91,3.28.14,4.04-4.03.35-5.25-4.62-9.96-5.44l.1-3.94c2.84-1,7.78,3.2,9.73,5.34Z"/>
  <path class="st78" d="M177.97,157.41l.04,4c-2.74.87-9.26-2.61-10.13-5.44-2.92-.05-2.74-3.32.08-3.89,2.72-1.86,8.09,2.87,10.01,5.33Z"/>
  <path class="st106" d="M177.75,187.16l-.95,3.07c-3.44-.43-5.82-4.31-8.68-4.23-2.94.09-2.79-4.41.03-4.95,2.68-1.05,8.9,2.91,9.6,6.11Z"/>
  <path class="st39" d="M87.89,90.02c2.92-.05,2.86,3.26.07,3.96-2.47,2.09-8.73-2.51-9.81-5.36l.07-3.88c2.54-1.08,7.98,2.85,9.68,5.28Z"/>
  <path class="st53" d="M178.01,161.42v3.86c-2.82,1.21-8.59-2.64-10.12-5.3-2.93,0-2.81-3.33-.01-4,3.68.98,6.71,3.28,10.13,5.44Z"/>
  <path class="st92" d="M163.04,186.15c2.16,2.5,7.43,5.48,10.72,6.75-.72,1.13-1.79,1.92-3.03,1.93l-13.03-8.71c.37-2.94,4.78-2.77,5.33.03Z"/>
  <path class="st76" d="M178.02,172.44v3.96c-1.64,2.5-9.53-2.34-9.86-5.36-2.87.01-2.8-2.32-.09-3.11,3.95-.2,6.12,3.51,9.95,4.51Z"/>
  <path class="st112" d="M177.88,138.37v3.98c-4.32-1.48-6.28-5-9.83-5.34-2.92-.07-2.71-3.37.11-3.93,1.83-.63,4.01.09,6.52,2.16,2.02.48,3.09.77,3.2,3.13Z"/>
  <path class="st45" d="M87.9,110.04c2.92.03,2.75,3.29-.06,3.88-.35.65-.64,1.14-.77,1.1-2.88-.9-9.18-4.09-8.97-7.22v-4.13c3.19.79,7.64,3.86,9.81,6.37Z"/>
  <path class="st2" d="M177.85,183.38c0,1.33.25,2.6-.11,3.77-2.3-.62-4.9-3.89-9.6-6.11-2.86-.07-2.73-2.35,0-3.03,2.69-.74,8.72,2.44,9.7,5.36Z"/>
  <path class="st9" d="M178.02,176.4l-.17,3.96c-.31.63-.58,1.12-.68,1.09-2.7-.86-8.24-3.82-9.16-6.48-2.92-.11-2.67-3.39.15-3.92l9.86,5.36Z"/>
  <path class="st6" d="M88.04,97.07c2.92.15,2.63,3.42-.21,3.91-.33.66-.61,1.17-.7,1.14-2.9-.97-8.6-3.6-9.16-6.51l.19-3.93c2.52-.75,8.47,2.95,9.88,5.4Z"/>
  <path class="st71" d="M178.02,165.27l-.06,2.23c-3.72-.17-6.98-2.19-9.81-4.46-2.89.15-2.89-2.18-.25-3.07,3.79.7,6.73,3.15,10.12,5.3Z"/>
  <path class="st58" d="M87.96,93.98c2.89,0,2.77,2.33.09,3.09-3.68-.42-6.74-3.11-9.88-5.4l-.03-3.05,9.81,5.36Z"/>
  <path class="st57" d="M87.99,168.02c2.98.23,2.61,4.36-.15,4.85-3.06-2.27-5.98-5.11-9.8-6.25l-.06-3.06c4.17.94,6.49,4.51,10.02,4.46Z"/>
  <path class="st43" d="M87.84,127.96c2.89-.07,2.83,2.24.16,3.05-2.1,2.85-8.03-2.21-9.89-4.46l.08-3.75c2.89-.47,7.78,2.95,9.65,5.16Z"/>
  <path class="st29" d="M87.84,100.98c2.88.07,2.71,2.32,0,2.98-2.97,1.1-7.7-2.09-9.79-4.42l-.07-3.94,9.86,5.38Z"/>
  <path class="st3" d="M178.11,134.11l-.24,4.26c-3.6-1.33-6.54-3.47-9.72-5.29-2.86.09-2.86-2.22-.17-3.06.2-.51.44-.95.82-1.18.41-.25,7.25,3.59,8.5,4.29.35.2.6.56.82.98Z"/>
  <path class="st67" d="M177.85,180.35v3.03c-3.2-2.23-6.75-3.07-9.7-5.36-2.89.05-2.81-2.26-.15-3.06l9.84,5.39Z"/>
  <path class="st84" d="M87.84,83.97c2.92.02,2.77,3.28-.04,3.88-2.74.25-7.67-3.06-9.69-5.3v-3.9c2.89,2.76,6.32,3.99,9.73,5.33Z"/>
  <path class="st96" d="M87.84,113.92c2.86.05,2.74,2.33.02,3.03-.47.58-.89,1.02-1.14.94-.58-.2-7.73-3.81-8.31-4.2-.26-.17-.33-.63-.35-1.17l.03-4.73c1.05,2.13,3.15,2.5,5.41,3.77l4.34,2.35Z"/>
  <path class="st116" d="M87.81,107.86c2.65.42,2.62,1.31.1,2.19-3.77-.97-7.28-3.04-9.8-6.37l-.03-1.97c3.44-.44,8.9,2.47,9.73,6.15Z"/>
  <path class="st66" d="M87.94,134.95c2.86.16,2.65,2.41-.1,3-.5.47-.95.82-1.21.71-2.32-.97-7.06-4.5-8.52-6.13l.07-3.78c.37-.46.68-.81.83-.75,2.73,1.16,8.34,4.32,8.93,6.95Z"/>
  <path class="st59" d="M87.96,150.08c2.92.07,2.71,3.35-.11,3.91-3.2-1.64-6.32-3.43-9.86-4.41l.12-3.98c3.25,2.18,6.01,4.96,9.85,4.48Z"/>
  <path class="st80" d="M87.78,140.76c2.8.1,2.67,1.48.04,2.25-3.57-.94-6.47-3.18-9.73-5.34l-.12-3c2.78-1.2,8.47,3.31,9.8,6.09Z"/>
  <path class="st41" d="M87.91,76.96c2.93.07,2.73,3.4-.09,3.99-3.22-1.98-6.15-4.7-9.77-6.21l-.07-2.24c3.67.58,6.64,2.97,9.93,4.45Z"/>
  <path class="st2" d="M88,131.01c2.92.04,2.76,3.33-.05,3.94l-9.76-6.2-.07-2.2c3.94,1.04,6.17,4.66,9.89,4.46Z"/>
  <path class="st52" d="M178.03,132.31l.09,1.8c-4.27.8-6.15-3.36-10.13-4.09-2.86-.12-2.68-2.36.07-2.97,2.76-1.96,8.31,2.49,9.98,5.26Z"/>
  <path class="st114" d="M87.84,122.11c2.92-.25,2.75,3.04-.05,3.62-2.64,1-7.8-2.88-9.7-5.15l.05-3.78c1.85-.64,6.95,2.67,8.97,4.11.35.25.56.7.73,1.2Z"/>
  <path class="st56" d="M88,119.95c2.58.72,2.45,1.6-.16,2.17-3.84.17-6.03-2.99-9.7-5.31l-.19-2.1c2.5-1.88,8.57,2.54,10.05,5.24Z"/>
  <path class="st41" d="M177.97,129.26l.05,3.06c-3.83-1.2-6.07-4.86-9.98-5.26-2.63-.53-2.56-1.44,0-2.2,3.7-.38,5.82,2.89,9.92,4.41Z"/>
  <path class="st83" d="M87.84,103.96c2.92.02,2.77,3.29-.03,3.9-2.94-2.37-6.14-4.6-9.73-6.15l-.03-2.16c3.42,1.26,6.58,2.95,9.79,4.42Z"/>
  <path class="st0" d="M87.86,116.95c2.86-.07,2.84,2.19.14,2.99-3.13-.62-5.26-4.29-10.05-5.24l.12-2.18c3.62.53,6.55,2.95,9.79,4.43Z"/>
  <path class="st26" d="M87.8,87.85c2.65.42,2.61,1.32.09,2.18l-9.68-5.28-.1-2.19c3.76.79,6.41,3.58,9.69,5.3Z"/>
  <path class="st91" d="M177.93,154.36l.04,3.05c-3.88-.69-5.72-4.83-10.01-5.33-2.62-.57-2.54-1.47.03-2.19,4.57-.25,6.11,4.36,9.93,4.46Z"/>
  <path class="st109" d="M87.79,125.74c2.64.49,2.59,1.4.04,2.22-3.51-.96-6.44-3.07-9.65-5.16l-.1-2.21c3.73.89,6.42,3.66,9.7,5.15Z"/>
  <path class="st7" d="M87.84,137.95c2.86-.13,2.68,2.19-.06,2.81-1.87-1.05-3.69-2.31-5.57-3.94-1.46-.98-2.91-1.47-4.24-2.14l.14-2.14c3.65,1.16,6.46,3.71,9.72,5.41Z"/>
  <g>
    <path class="st4" d="M162.95,24.99c-.43,32.21-.41,64.33.06,96.35l-.04,42.11c-1.88,2.28-4.11,1.63-6.7-1.94-2.5-.49-3.47-1.7-2.93-3.62l-2.05.77c-2.16-.8-4.6-.99-7.32-.56-2.11,3.11-4.54.54-5.98-2.01l-.92,2-31.34.05-2.39.56c-2.95-1.2-9.78-5.18-10.31-8.19l-.07-125.51h69.97ZM108.01,44.04c-1.32,0-2.15,1.56-2.11,2.5.07,1.48,1.28,2.56,3.08,2.54l28.71-.29c1.31-.01,1.52-2.23.94-2.87-.46-.5-.68-1.62-1.64-1.92-.1-.67-.85-1.05-1.94-1.05h-25.12c-1.08,0-1.83.37-1.93,1.09ZM152.41,44.94c-1.95-1.62-5.71-1.39-7.65-.25-1.1.65-1.1,3-.67,3.78.4.73,5.54,1.09,7.93.08.8-.34,1.91-2.34.39-3.6ZM122.01,72.03c-1.31,0-2.17,1.59-2.11,2.53.09,1.43,1.27,2.51,3.07,2.51l27.04-.03c1.49,0,2.48-.72,2.95-1.58.53-.99-.21-3.35-1.74-3.36-.34-.77-1.09-1.15-2.17-1.15h-25.12c-1.08,0-1.83.37-1.93,1.08ZM114.41,72.93c-1.91-1.63-5.77-1.37-7.61-.25-1.35.82-1.04,2.72-.37,3.36,1.39,1.33,5.28,1.48,7.58.5.8-.34,1.92-2.32.4-3.61ZM137.29,104.91c1.36,0,2.01-1.92,1.68-2.36s-.79-1.28-1.43-2.51l-28.56-.09c-1.91,0-3.06,1.13-3.07,2.55s1.16,2.57,3.07,2.56l28.31-.15ZM152.41,100.94c-1.95-1.62-5.71-1.39-7.65-.25-1.1.65-1.1,3-.67,3.78.4.73,5.54,1.09,7.93.08.8-.34,1.91-2.34.39-3.6ZM114.41,128.94c-1.91-1.61-5.78-1.38-7.61-.26-1.36.83-1.04,2.73-.37,3.37,1.39,1.33,5.27,1.48,7.59.49.79-.34,1.91-2.32.39-3.6ZM150.02,133.05c1.92,0,3.07-1.13,3.07-2.55s-1.15-2.55-3.07-2.55h-27.04c-1.92,0-3.07,1.12-3.07,2.55s1.15,2.55,3.07,2.55h27.04Z"/>
    <path class="st77" d="M105.74,158.13c1.72-.85,2.11-.23,2.84,1.04l27.73-.45c.33-.68.89-1.56,1.69-2.63l5.98,2.01c3.1,1.99,6.38.97,9.37-.21.98,1.18,3.8,1.22,4.89,2.75,1.36,1.89,2.85,2.59,4.73,2.81l-.03,16.56h-69.93s.03-29.51.03-29.51c4.26,2.62,9.26,4.31,12.69,7.63Z"/>
    <path class="st25" d="M163.01,121.34c-.39-.29-1.01-.66-1.01-1.47l.95-94.88.06,96.35Z"/>
    <path class="st25" d="M151.23,72.1l-29.22-.07c.1-.71.85-1.08,1.93-1.08h25.12c1.09,0,1.83.38,2.17,1.15Z"/>
    <path class="st25" d="M136.99,44l-28.98.04c.1-.72.85-1.09,1.93-1.09h25.12c1.09,0,1.83.38,1.94,1.05Z"/>
  </g>
  <path class="st25" d="M237.95,165.25c-1.84,2.48-7.4-1.68-6.76-4.16-1.16-.51-1.54-1.48-1.13-2.93-3.06.18-5.33-.55-6.81-2.21l-5.86-1.7c-8.69-5.69-17.54-11.13-26.55-16.31l.12-1.49,1.11-2.02,24.33-.4c1.11-.1.84-1.55.52-1.63-3-.79-20.48-.84-24.06-.43-1.29.87-2.56,1.88-3.79,3.03-.52,2.36-5.85-.57-6.06-2.51l-.02-98.5h55.04s-.08,131.26-.08,131.26ZM197.94,57.75c.74-3.89-3.61-3.93-5.34-3.77-1.99.19-4.58,2.45-3.23,4.49,1.62,2.44,8.03,2.07,8.57-.72ZM230.35,59.83c1.91,0,2.16-3.29,1.54-4.13-.48-.66-1.61-1.64-3.07-1.62l-24.36.22c-1.5.01-2.57,2.35-2.56,3.29.01,1.11,1.6,2.34,3.28,2.34l25.17-.09ZM216.02,85.05c1.91,0,3.06-1.12,3.06-2.55s-1.15-2.55-3.06-2.55h-24.05c-1.91,0-3.06,1.12-3.06,2.55s1.15,2.55,3.06,2.55h24.05ZM231.41,80.94c-1.85-1.62-5.86-1.48-7.29-.18-1.33,1.22-1.27,2.72-.69,3.29,1.33,1.31,5.31,1.47,7.58.48.79-.35,1.91-2.26.39-3.59ZM197.41,105.93c-1.91-1.63-5.77-1.37-7.61-.25-1.35.82-1.04,2.72-.37,3.36,1.39,1.33,5.28,1.48,7.58.5.8-.34,1.92-2.31.4-3.61ZM231.76,109.99c.6-2.19.23-3.39-.17-4.02-.34-.52-1.39-1.02-2.56-1.02h-24.06c-1.91,0-3.06,1.12-3.06,2.55s1.16,2.55,3.07,2.55l26.78-.06ZM231.93,131.92c-.84-1.8-3.62-2.07-5.3-1.95-1.18.09-3.55,1.29-3.43,3,.24,3.37,6.69,4.15,8.38,2.07.5-.61.86-2.01.34-3.12Z"/>
  <path class="st25" d="M250.97,171.94c-2.18,2.44-6.68-1.75-6.92-4.86l-.05-138.08h-60.86s-.02-7.99-.02-7.99l59.97-.09c2.83,0,7.82,1.46,7.82,5.28l.06,145.73Z"/>
  <path class="st62" d="M188.88,156.76c1.87-.05,2.26.57,2.15,2.14,2.97-.31,4.96.44,5.97,2.24l2.1-.66c1.45.73,11.62,7.37,11.87,8.05.3.79.11,1.63-.16,2.39l-10.23.02c-3.14-1.07-15.59-6.88-16.61-8.88l-.84-2.43-.16-6.08c1.04-3.79,8.73.11,5.93,3.22Z"/>
  <path class="st41" d="M189.07,135c2.47-1.37,2.83-1.19,1.88,1.45l32.3,19.49c-.41,2.99-5.71,2.8-6.31-.07-3.09-.77-5.93-2.32-8.53-4.64l-24.45-13.94-.88-1.7-.07-3.1,6.06,2.51Z"/>
  <path class="st79" d="M216.93,155.88c-.06,2.99-4.44,2.76-4.97,0l-4.76-1.75-23.69-13.98-.45-1.54v-3.02c2.2-.05,3.6,1.74,5.53,2.83,9.91,5.57,19.65,10.72,28.34,17.46Z"/>
  <path class="st49" d="M211.96,155.88c-.03,3-5.54,2.82-6.01-.03-7.41-4.11-14.87-8.26-22.38-12.45l-.56-1.77.05-3.02c4.43,1.58,8.3,4.3,12.49,6.72l8.3,4.79c3,1.73,6.46,2.75,8.1,5.76Z"/>
  <path class="st81" d="M201.82,159.16c2.68-1.36,3.5-.54,2.12,2.13,3.69,1.47,10.7,4.41,13.57,7.06,1.1,1.01,1.43,1.43.07,2.74l-6.77-.17-6.08-4.63c-2.65-1.86-5.73-2.67-7.73-5.15-2.46-1.56-1.56-3.49,1.28-3.2,1.79-1.77,3.47-1.57,3.54,1.21Z"/>
  <path class="st22" d="M200.57,170.94h-8.97c-4.67-.9-7.49-3.01-8.48-6.31v-5c3.74,1.64,6.66,3.88,10.2,6.03,2.77,1.68,6.19,2.36,7.25,5.28Z"/>
  <path class="st68" d="M207.02,176.08c3.7,1.29,7.13,3.12,10.28,5.48l-.02,2.37-10.24.21c-3.89-1.56-7.7-3.51-11.45-5.87l.18-2.2h11.25Z"/>
  <path class="st112" d="M205.95,155.85c.02,2.9-2.38,2.8-3.2.13-1.92,1.46-4.29.57-7.1-2.66l-11.55-6.64-1.13-2.03.04-3.01c8.09,4.15,16.36,8.06,22.94,14.22Z"/>
  <path class="st8" d="M202.75,155.98c2.6,1.28,1.92,3.24-.93,3.18-.81-.55-2.78-.08-3.54-1.21-2.42,1.58-3.61.33-2.26-2.28-5.28-.98-11.01-2.56-12.89-8.01l-.16-3.01,10.61,5.81,9.16,5.52Z"/>
  <path class="st83" d="M214.04,176.09l7.77,2.7c3.03,1.65,4.08,3.37,3.13,5.16h-7.66s-4.38-2.85-4.38-2.85c-2.4-1.5-4.56-2.81-5.88-5.02h7.02Z"/>
  <path class="st99" d="M214.06,161.12c2.42.23,14.69,6.84,14.76,8.36.02.48-.09.96-.25,1.45l-6.63-.02c-1.6-.64-13.48-7.56-13.41-8.35.04-.48.24-.95.48-1.41.07-2.99,4.5-2.78,5.06-.02Z"/>
  <path class="st12" d="M222.03,176.16c1.39.75,10,5.61,10.11,6.2.1.51-.02,1.07-.21,1.64l-7-.06c-4.22-5.16-9.49-4.75-10.9-7.86l7.99.07Z"/>
  <path class="st60" d="M195.78,176.07c5.8,5.31,11.56,4.07,11.27,8.07l-6.06-.26c-4.28-.78-8.06-3.31-11.63-5.75-.71-.48-.78-1.13-.33-2.01l6.75-.05Z"/>
  <path class="st49" d="M225.05,161.13c6.08,1.1,10.4,3.93,12.96,8.52.03,2.24-3.46,1.19-4.95,1.21-1.88-.48-14.01-7.46-14.16-8.27-.09-.47,0-.96.14-1.47.02-3,5.53-2.84,6.01.01Z"/>
  <path class="st95" d="M196.02,155.67c-.39,2.84-5.77,3.43-7.14,1.09-.63-1.88-3.97-3.06-5.93-3.22l.18-5.89c3.04.6,4.74,3.43,7.31,4.76,2.09,1.08,4.68,1.51,5.57,3.25Z"/>
  <path class="st34" d="M219.04,161.12l8.63,5.23c2.25,1.28,4.28,2.38,5.4,4.51l-4.5.07-7.32-5.16c-2.56-1.61-5.68-2.15-7.19-4.65.07-2.99,4.45-2.76,4.98,0Z"/>
  <path class="st103" d="M232.05,176.11c4.1.92,10.78,3.59,10.89,7.82l-5.98-.03-4.41-1.5c-2.37-1.05-7.98-3.99-7.81-6.28h7.31Z"/>
  <path class="st70" d="M209,161.14c5.08,5.33,12.07,5.86,12.94,9.77l-4.36.17c-1.03-3.96-10.97-5.83-13.64-9.79,0-2.99,4.43-2.89,5.06-.15Z"/>
  <path class="st10" d="M239.08,176.17c3.24.96,6.63,2.79,9.44,4.69.46.31-.01,1.41-.56,2.14-1.66.81-3.09.93-5.01.92l-10.89-7.82,7.02.07Z"/>
  <path class="st14" d="M231.18,161.08l6.76,4.16.07,4.4c-2.59-.7-4.2-2.62-6.45-4.27s-5.2-1.98-6.52-4.25c.01-3.01,5.6-2.89,6.14-.05Z"/>
  <path class="st73" d="M189.03,176.13l11.96,7.76h-6.02c-3.54-1.2-6.83-3.03-9.88-5.24-.82-.59-.65-1.56,0-2.44l3.94-.08Z"/>
  <path class="st69" d="M244.09,176.16c1.93-2.14,6.68.86,6.09,3.71-.59,1.51-.67,2.37-2.23,3.14-1.35-2.68-6.21-2.04-8.87-6.83,1.39.01,3.72-.79,5.02-.02Z"/>
  <path class="st27" d="M224.74,176.12c4.69,4.26,10.5,4.35,12.22,7.78l-5.02.1c-2.34-2.53-7.08-3.88-9.91-7.84l2.71-.04Z"/>
  <path class="st68" d="M191.6,170.95l-8.48-.04v-6.28c3.17,2.12,6.89,3.16,8.48,6.32Z"/>
  <path class="st76" d="M194.97,183.9l-5.01-.03c-3.96-.61-6.23-2.22-6.8-4.83,0-.59-.09-1.34.36-2.03.27-.41.93-.79,1.57-.81,2.21,4.23,7.75,3.74,9.87,7.69Z"/>
  <path class="st40" d="M250.97,171.94l-.08,3.99c-2.08,1.55-6.28-.59-6.99-2.95l.15-5.9,6.92,4.86Z"/>
  <path class="st44" d="M250.89,175.93c-.03,1.64-.21,2.65-.71,3.93l-6.09-3.71-.19-3.18c2.52.35,4.94,1.31,6.99,2.95Z"/>
  <path class="st54" d="M189.96,183.87l-6.87.04.07-4.88c2.22,1.68,5.23,2.21,6.8,4.83Z"/>
</svg>