<?xml version="1.0" encoding="UTF-8"?>
<svg id="Layer_1" xmlns="http://www.w3.org/2000/svg" version="1.1" xmlns:xlink="http://www.w3.org/1999/xlink" viewBox="0 0 48 48">
  <!-- Generator: Adobe Illustrator 30.4.0, SVG Export Plug-In . SVG Version: 2.1.4 Build 226)  -->
  <defs>
    <style>
      .st0 {
        fill: #436dfe;
      }

      .st1 {
        fill: #4170fe;
      }

      .st2 {
        fill: #2394fe;
      }

      .st3 {
        fill: #2790fe;
      }

      .st4 {
        fill: #3e74fe;
      }

      .st5 {
        fill: #19a0fe;
      }

      .st6 {
        fill: #0fadfe;
      }

      .st7 {
        fill: #3b77fe;
      }

      .st8 {
        fill: #426efe;
      }

      .st9 {
        fill: #17a4fe;
      }

      .st10 {
        fill: #397afe;
      }

      .st11 {
        fill: url(#linear-gradient1);
      }

      .st12 {
        fill: #446cfe;
      }

      .st13 {
        fill: #298dfe;
      }

      .st14 {
        fill: #3e73fe;
      }

      .st15 {
        fill: #1e9bfe;
      }

      .st16 {
        fill: #11aafe;
      }

      .st17 {
        fill: #16a4fe;
      }

      .st18 {
        fill: #4071fe;
      }

      .st19 {
        fill: #0facfe;
      }

      .st20 {
        fill: #2494fe;
      }

      .st21 {
        fill: #466afe;
      }

      .st22 {
        fill: #377cfe;
      }

      .st23 {
        fill: #2a8bfe;
      }

      .st24 {
        fill: #456afe;
      }

      .st25 {
        fill: #3282fe;
      }

      .st26 {
        fill: #3084fe;
      }

      .st27 {
        fill: #3183fe;
      }

      .st28 {
        fill: #1e9afe;
      }

      .st29 {
        fill: #18a2fe;
      }

      .st30 {
        fill: #288ffe;
      }

      .st31 {
        fill: #12a9fe;
      }

      .st32 {
        fill: #14a7fe;
      }

      .st33 {
        fill: #2d88fe;
      }

      .st34 {
        fill: #3a78fe;
      }

      .st35 {
        fill: #2d89fe;
      }

      .st36 {
        fill: #2b8afe;
      }

      .st37 {
        fill: #2f85fe;
      }

      .st38 {
        fill: #1b9efe;
      }

      .st39 {
        fill: #2f86fe;
      }

      .st40 {
        fill: #2691fe;
      }

      .st41 {
        fill: #2a8cfe;
      }

      .st42 {
        fill: url(#linear-gradient);
      }

      .st43 {
        fill: #3f73fe;
      }
    </style>
    <linearGradient id="linear-gradient" x1="-445" y1="819.94" x2="-919" y2="819.94" gradientTransform="translate(87.75 -52.88) scale(.09)" gradientUnits="userSpaceOnUse">
      <stop offset="0" stop-color="#5459fe"/>
      <stop offset="1" stop-color="#00bffe"/>
    </linearGradient>
    <linearGradient id="linear-gradient1" x1="-524.93" y1="926.14" x2="-838.93" y2="926.2" gradientTransform="translate(87.75 -52.88) scale(.09)" gradientUnits="userSpaceOnUse">
      <stop offset="0" stop-color="#466afe"/>
      <stop offset="1" stop-color="#0fadfe"/>
    </linearGradient>
  </defs>
  <path class="st42" d="M25.68,46.46h-3.3c-11.12-.79-19.99-9.63-20.84-20.75v-3.33C2.33,11.23,11.23,2.34,22.38,1.53h3.24c11.13.8,20.04,9.71,20.84,20.84v3.24c-.8,11.12-9.64,20.01-20.78,20.84ZM25.12,45.16l1-.08c10.36-1.05,18.41-9.45,19.04-19.83v-2.48c-.7-11.49-10.32-20.23-21.66-19.95S3.04,12.23,2.81,23.59s8.5,20.88,19.96,21.57h2.34Z"/>
  <path class="st11" d="M26.12,36.65c-.33.98-1.15,1.61-2.07,1.62-.97.02-1.83-.62-2.16-1.62h-6.24c-.25.99-1.13,1.6-2.1,1.61s-1.82-.64-2.1-1.6h-1.8c-.34.01-.58-.15-.65-.43-.07-.31.11-.67.49-.68l1.98-.05c.32-.94,1.16-1.56,2.08-1.57s1.76.61,2.09,1.59h6.28c.22-.77.73-1.28,1.51-1.5v-4.39s1.13,0,1.13,0v4.39c.78.22,1.29.73,1.51,1.51h6.28c.35-.99,1.25-1.69,2.3-1.57.91.11,1.59.73,1.89,1.56h1.89c.34.01.53.26.57.54.04.25-.15.59-.47.59h-1.98c-.28.96-1.15,1.62-2.1,1.61s-1.85-.62-2.1-1.6h-6.24Z"/>
  <g>
    <path class="st2" d="M21.04,13.04c.11.09.12.24.04.44l.02,14.66c0,.3-.1.46-.31.47-.91-.18-1.39-.88-1.39-1.8v-13.76s1.64,0,1.64,0Z"/>
    <path class="st35" d="M25.82,13.04c.07,0,.19.02.19.07.06,5.11,0,10.4-.07,15.5l-.2.1h-1.4s-.08-.19-.08-.19v-6.07s.19-.11.19-.11c-.07-.13-.05-.27.07-.43l.04-.24c-.08-.24-.08-.42.02-.56l-.19-.24v-2.75s.19-.2.19-.2c-.09-.14-.1-.33-.02-.57-.1-.25-.13-.47-.09-.65l-.19-.11.04-3.43.19-.11h1.31Z"/>
    <path class="st40" d="M22.07,13.05l.19.07-.07,15.45-.19.11c-.42,0-.82,0-1.21-.08l.13-.4v-14.5c-.05-.28,0-.46.13-.66h1.03Z"/>
    <path class="st30" d="M23,13.04c.19.03.27.17.24.42v3.37c-.14.24-.13.48-.02.73.08.02.08.05,0,.09.05,1.34.02,2.7-.08,4.07l.1.57c.02,2.07.01,4.12-.03,6.16-.03.14-.16.22-.37.25h-.85s.07-15.63.07-15.63h.94Z"/>
    <path class="st25" d="M27.55,28.49l-.19-.07c.02-5.09.03-10.18.05-15.28l.19-.11h1s-.03,14.21-.03,14.21c0,.62-.57,1.06-1.02,1.25Z"/>
    <path class="st26" d="M27.6,13.04l-.05,15.46c-.34.14-.62.18-.97.19l-.19-.07.04-15.03c0-.31.08-.51.41-.55h.76Z"/>
    <path class="st39" d="M26.84,13.04c-.16.19-.24.38-.22.66l-.04,14.98h-.84s.07-.57.07-.57v-15.08s1.04,0,1.04,0Z"/>
    <path class="st41" d="M23.91,18.09c.07.02.18.05.19.11.03.38.03,2.4-.08,2.61l-.2.09c.02.08.01.15-.05.21-.64.61-.3,1.25.54,1.07l.15.14.02,6.09c0,.12-.05.21-.12.28h-1.5c.18-.16.22-.32.22-.57v-9.92c-.01-.26-.06-.43.16-.55l.22-.07c.16.17.32.34.46.52Z"/>
    <path class="st20" d="M21.22,8.24l.22.09c.03,1.18.03,2.37,0,3.56l-.19.11h-1.85s.06-2.38.06-2.38c.16-.92.93-1.38,1.77-1.38Z"/>
    <path class="st41" d="M24.51,13.04l-.04,3.65-.22.13c-.51-.15-.84.14-.84.64l-.18.1c-.18-.15-.26-.4-.17-.67v-3.09c0-.28,0-.52-.06-.74h1.5Z"/>
    <path class="st3" d="M22.72,8.24l.19.07-.04,3.58-.19.11h-1.44s.04-3.47.04-3.47c-.01-.12-.05-.2-.06-.29h1.5Z"/>
    <path class="st13" d="M23.94,8.25l.19.07-.07,3.58-.19.11h-1.18s.04-3.76.04-3.76h1.22Z"/>
    <path class="st27" d="M27.24,12l-.19-.11.06-3.48.19-.13c.65.13,1.25.71,1.26,1.41l.04,2.32h-1.36Z"/>
    <path class="st37" d="M27.3,8.28l-.06,3.73h-1.12s-.12-.02-.12-.02c-.05-1.18-.05-2.39.01-3.62l.19-.11,1.11.02Z"/>
    <path class="st36" d="M25.07,8.25l.19.07-.07,3.58-.19.11h-1.13s.07-3.76.07-3.76h1.13Z"/>
    <polygon class="st33" points="26.2 8.26 26.12 11.99 25 12 25.07 8.25 26.2 8.26"/>
    <path class="st23" d="M24.58,21.09c-.17.14-.69,0-.77-.19l.09-.55v-2.26c.08-.2.51-.32.68-.18v3.18Z"/>
  </g>
  <path class="st28" d="M16.79,28.62c-.07,0-.19-.02-.19-.07-.07-4.37-.03-8.89.06-13.25l.25-.11h1.19s-.04,12.25-.04,12.25c0,.63-.83,1.09-1.27,1.17Z"/>
  <path class="st38" d="M16.91,15.2c-.11.2-.14.39-.13.66v12.77c-.32.06-.48.06-.72.06-.21-.04-.42-.08-.64-.1-.03-4.42-.03-8.84,0-13.27l.19-.11h1.31Z"/>
  <path class="st32" d="M12.97,15.19c.07,0,.18.04.19.09.03.41.03,2.19-.05,2.51l-.2.49c.27.04.27.33,0,.4l.19.41v2.97s-.19.41-.19.41c.25.04.33.38.1.51.08,1.85.11,3.71.07,5.59l-.19.11h-.91c-.24-.02-.38-.11-.41-.28-.05-4.19-.06-8.38-.04-12.58-.04-.37.07-.58.32-.63h1.12Z"/>
  <path class="st19" d="M10.07,15.18c.24.04.26.19.26.39v12.55c0,.27-.05.44-.36.38-.44-.16-.96-.66-.96-1.23l-.02-12.07,1.07-.02Z"/>
  <path class="st5" d="M15.6,15.19l-.03,13.35c.23.03.38.05.49.14h-1.84c-.08-.16.03-.27.32-.35-.05-1.88-.03-3.75.06-5.62-.14-1.41-.13-2.86,0-4.27-.08-1.03-.09-2.07-.02-3.11l.19-.13h.84Z"/>
  <path class="st31" d="M11.85,15.19c-.11.24-.13.46-.13.76v12.16c0,.28.11.48.27.57l-1.2-.02c-.14-.11-.16-.29-.09-.55l.03-12.81.19-.11h.94Z"/>
  <path class="st16" d="M10.91,15.2l-.04,12.73c.02.3-.01.52-.09.74-.27,0-.49-.05-.81-.17.14-.1.16-.2.16-.38v-12.26c.04-.28,0-.49-.06-.68l.84.02Z"/>
  <path class="st29" d="M14.76,15.19l-.07,2.8c0,.29,0,.48,0,.77v3.55c0,.24,0,.43,0,.67l.02,5.49-.51.2h-.2s-.25-.1-.25-.1c-.02-1.66-.01-3.33.02-5l.19-.11v-.21c.42-.25.45-.83-.01-1.08l-.08-.23c-.23-.84-.23-1.9,0-2.74v-.13c.46-.31.62-.83.11-1.16v-.21c-.31-.41-.35-1.96-.12-2.34.04-.07.09-.13.14-.18h.75Z"/>
  <path class="st9" d="M13.97,23.46l-.05,4.95c0,.12.08.22.1.26h-1.12s0-5.41,0-5.41c0-.13.05-.24.12-.28.14,0,.29.08.43.26.21.04.39.12.54.22Z"/>
  <path class="st38" d="M16.64,10.41c.07,0,.18.02.19.07.05,1.06.03,2.45-.03,3.51l-.16.16h-1.59s-.19-.06-.19-.06l.07-3.58.19-.11h1.52Z"/>
  <path class="st32" d="M12.79,10.4c.05.09.1.17.13.26.17.45.13,2.79-.06,3.23-.04.09-.09.18-.15.26h-1.41s-.12-.01-.12-.01c-.05-1.18-.05-2.39,0-3.62l.19-.11h1.41Z"/>
  <path class="st15" d="M16.64,14.15c0-.07-.04-.16-.05-.27l.05-3.47c.7,0,1.43.57,1.43,1.31l.02,2.43h-1.45Z"/>
  <path class="st29" d="M15.13,10.41l-.08,3.75h-1.21s-.19-.07-.19-.07l.07-3.58.19-.11h1.21Z"/>
  <path class="st16" d="M11.38,10.41l-.07,3.74h-1.12c-.18-.09-.26-.28-.24-.58v-2.95s.2-.17.2-.17c.4-.1.8-.05,1.23-.05Z"/>
  <path class="st17" d="M13.92,10.41l-.08,3.75h-1.12c.1-1.25.1-2.51.07-3.75h1.13Z"/>
  <path class="st6" d="M10.14,10.46v3.13c-.01.2.1.39.04.56h-1.18s-.02-2.06-.02-2.06c0-.79.42-1.44,1.16-1.63Z"/>
  <path class="st9" d="M14,15.18c-.09.84-.1,1.69-.04,2.53-.12.11-.29.18-.53.21-.17.25-.34.37-.53.36l.06-3.08h1.03Z"/>
  <path class="st17" d="M13.87,19.21c.07.91.07,1.83,0,2.74-.07.12-.21.21-.41.26-.17.21-.35.3-.55.27v-3.8s.12-.05.12-.05c.28.19.56.38.84.58Z"/>
  <path class="st7" d="M33.79,15.19c.07.02.18.05.19.11.05.63.06,1.68.04,2.3l-.07.21c.03.15,0,.33-.1.55.15.33.16.58.04.76.25.15.36.43.31.85l-.06,1.91-.18.2c.03.16-.01.35-.13.57.05.24.06.45.03.62.11.06.14.16.08.28v5.02s-.19.11-.19.11h-1.26c-.23-.08-.19-.31.11-.69l.06-12.68.19-.11h.94Z"/>
  <path class="st22" d="M30.97,15.19c.2.07.23.27.25.46,0,4.29,0,8.58,0,12.86l-.23.05c-.39-.13-1.06-.58-1.07-1.11l-.03-12.25h1.07Z"/>
  <path class="st1" d="M36.41,15.2l.19.07c0,4.44-.02,8.87-.06,13.31l-.29.11h-.94c-.07,0-.19-.03-.19-.08-.06-1.7-.05-3.61.01-5.31l.11-.37c-.11-1.29-.13-2.58-.08-3.87.07-.24.11-.45,0-.69-.27,0-.27-.21-.01-.29l-.18-.28.11-2.49.19-.1h1.13Z"/>
  <path class="st24" d="M37.98,28.52l-.19-.07-.02-12.7c-.04-.32.05-.51.28-.57h.94s-.02,12.08-.02,12.08c0,.59-.53,1.17-1,1.25Z"/>
  <path class="st10" d="M32.01,15.19l.19.07-.08,13.31-.19.11c-.32,0-.6,0-.93-.12.13-.16.03-.36.03-.64v-12.34c-.07-.17-.09-.28-.06-.4h1.03Z"/>
  <path class="st8" d="M37.25,15.19l.19.07-.07,13.29-.19.11h-.93c.08-.06.12-.13.13-.27l.04-13.2h.84Z"/>
  <path class="st12" d="M38.06,15.19c-.06.17-.09.33-.09.57l.02,12.76-.8.15.07-13.47h.81Z"/>
  <path class="st34" d="M32.84,15.19l-.07,12.83c-.05.22-.32.43-.29.65h-.56s.08-13.49.08-13.49h.84Z"/>
  <path class="st43" d="M35.31,28.69h-.75s-.19-.09-.19-.09l.04-5.02.19-.11c-.02-.08-.02-.16.04-.22.62-.6.42-1.15-.45-1.08l-.23-.1c-.06-.98.2-2.05-.07-2.95.1-.13.28-.17.52-.1l.3-.08c.16-.2.31-.39.45-.59.09.08.18.25.18.42l-.03,3.26c0,.4,0,.75,0,1.15v5.51Z"/>
  <path class="st34" d="M33.41,10.39l.12.16c-.07,1.14-.07,2.28-.02,3.43l-.16.17h-1.7c-.07,0-.18-.02-.19-.06-.04-.96-.04-2.43.06-3.37-.02-.18,0-.27.19-.32h1.7Z"/>
  <path class="st22" d="M31.72,10.4l-.07,3.76h-1.75s.02-2.43.02-2.43c0-.91.96-1.32,1.79-1.32Z"/>
  <path class="st4" d="M35.01,10.41h.12c.06,1.19.07,2.4.03,3.63l-.19.11h-1.62c-.01-.1-.05-.22-.05-.37v-3c0-.16.05-.3.12-.39l1.59.02Z"/>
  <path class="st18" d="M36.5,10.41h.12c.05,1.19.05,2.4,0,3.63l-.19.11h-1.46s.04-3.74.04-3.74h1.5Z"/>
  <path class="st0" d="M38.01,10.51v3.48s-.17.17-.17.17h-1.4s.07-3.74.07-3.74h1.09c.16-.02.26.05.41.1Z"/>
  <path class="st14" d="M34.6,23.47l-.04,5.22h-.81s0-5.15,0-5.15c0-.11.06-.2.11-.27.22-.13.57.02.74.2Z"/>
  <path class="st21" d="M37.83,14.16c-.03-.19-.04-.41-.04-.66v-2.63c.02-.16.08-.28.21-.36.53.18.99.7.99,1.29v2.35s-1.16,0-1.16,0Z"/>
  <path class="st14" d="M35.28,15.19l-.13,2.88c-.18.08-.39,0-.64-.2-.23.02-.41,0-.56-.05-.13-.12-.18-.28-.18-.47l.02-2.15h1.5Z"/>
</svg>