<?xml version="1.0" encoding="UTF-8"?>
<svg id="Layer_1" xmlns="http://www.w3.org/2000/svg" version="1.1" xmlns:xlink="http://www.w3.org/1999/xlink" viewBox="0 0 48 48">
  <!-- Generator: Adobe Illustrator 30.4.0, SVG Export Plug-In . SVG Version: 2.1.4 Build 226)  -->
  <defs>
    <style>
      .st0 {
        fill: #12aafe;
      }

      .st1 {
        fill: #1f9afe;
      }

      .st2 {
        fill: #2790fe;
      }

      .st3 {
        fill: #0bb1fe;
      }

      .st4 {
        fill: #2592fe;
      }

      .st5 {
        fill: #04bafe;
      }

      .st6 {
        fill: #14a6fe;
      }

      .st7 {
        fill: #397afe;
      }

      .st8 {
        fill: #0bb2fe;
      }

      .st9 {
        fill: url(#linear-gradient1);
      }

      .st10 {
        fill: #1c9dfe;
      }

      .st11 {
        fill: #02bdfe;
      }

      .st12 {
        fill: #3381fe;
      }

      .st13 {
        fill: #17a3fe;
      }

      .st14 {
        fill: #16a4fe;
      }

      .st15 {
        fill: #2197fe;
      }

      .st16 {
        fill: #2494fe;
      }

      .st17 {
        fill: #0daffe;
      }

      .st18 {
        fill: #278ffe;
      }

      .st19 {
        fill: #13a7fe;
      }

      .st20 {
        fill: #10acfe;
      }

      .st21 {
        fill: #0ab3fe;
      }

      .st22 {
        fill: #1aa0fe;
      }

      .st23 {
        fill: #1e9afe;
      }

      .st24 {
        fill: #18a2fe;
      }

      .st25 {
        fill: #12a9fe;
      }

      .st26 {
        fill: #14a7fe;
      }

      .st27 {
        fill: #0eaefe;
      }

      .st28 {
        fill: #10abfe;
      }

      .st29 {
        fill: #2295fe;
      }

      .st30 {
        fill: #1b9efe;
      }

      .st31 {
        fill: url(#linear-gradient);
      }

      .st32 {
        fill: #07b7fe;
      }

      .st33 {
        fill: #13a8fe;
      }

      .st34 {
        fill: #11abfe;
      }
    </style>
    <linearGradient id="linear-gradient" x1="-460.97" y1="819.96" x2="-782.97" y2="820" gradientTransform="translate(87.75 -52.88) scale(.09)" gradientUnits="userSpaceOnUse">
      <stop offset="0" stop-color="#5459fe"/>
      <stop offset="1" stop-color="#17a3fe"/>
    </linearGradient>
    <linearGradient id="linear-gradient1" x1="-694.06" y1="819.97" x2="-548.06" y2="820.01" gradientTransform="translate(87.75 -52.88) scale(.09)" gradientUnits="userSpaceOnUse">
      <stop offset="0" stop-color="#288ffe"/>
      <stop offset="1" stop-color="#436dfe"/>
    </linearGradient>
  </defs>
  <path class="st6" d="M14.15,9.66l.16.15c0,.46-.02.91-.08,1.35l-.26.08c-.44,0-.92.06-1.4-.01-.42-.06-.63-.48-.57-.85s.36-.68.79-.69l1.37-.03Z"/>
  <path class="st19" d="M11.78,33.74c-.27-.06-.19-1-.12-1.24-.02-.14.05-.21.2-.25h1.36c.4,0,.67.35.7.73.02.24-.19.73-.53.73l-1.61.02Z"/>
  <path class="st32" d="M7.35,18.76l.18.12-.07,1.25-.19.12h-1.45c-.39-.02-.6-.44-.58-.79.02-.27.22-.7.56-.7h1.55Z"/>
  <path class="st0" d="M11.03,20.25c-.45-.13-.48-1.4-.02-1.52,1.01.07,1.98-.2,2.03.73.02.36-.23.79-.67.79h-1.35Z"/>
  <path class="st24" d="M15.85,9.66l.19.1v1.35s-.19.13-.19.13h-1.87c.27-.36.04-.99.18-1.59h1.69Z"/>
  <path class="st8" d="M9.23,18.75c.33.31.3,1.24-.07,1.5h-1.88s.08-1.49.08-1.49h1.88Z"/>
  <path class="st1" d="M19.03,9.66l.19.09.08,1.36-.18.14h-1.69s-.19-.17-.19-.17l-.03-1.11c-.22-.04-.31-.14-.27-.31h2.08Z"/>
  <path class="st27" d="M11.01,18.73c-.19.5-.14,1.04.02,1.52h-1.87c.1-.49.1-1,.07-1.5.6,0,1.18.02,1.78-.02Z"/>
  <path class="st32" d="M7.16,32.26c.28-.02.16,1.28.12,1.36-.04.07-.12.1-.19.12h-1.28c-.39,0-.61-.45-.57-.78.04-.31.21-.69.59-.69h1.33Z"/>
  <path class="st6" d="M13.73,36.76c.21,0,.29.14.26.43l-.06.67c.12.17.19.33.21.47l-1.35-.02c-.43,0-.72-.31-.78-.69s.15-.85.57-.86h1.15Z"/>
  <path class="st26" d="M12.06,15.75c-.2-.37-.18-1.16.08-1.5l1.27.02c.38,0,.57.52.52.83-.06.37-.4.66-.79.66h-1.08Z"/>
  <path class="st2" d="M21.53,38.34l-.18-.17c.05-.41.05-.82.01-1.23l.15-.18,1.23.04c.39.1.64.51.6.82-.13.82-1,.72-1.81.73Z"/>
  <path class="st14" d="M13.28,24.74c-.2-.13-.25-.4-.15-.82-.05-.35.02-.57.22-.66h1.19c.37,0,.57.4.58.69.01.31-.14.76-.51.77l-1.33.02Z"/>
  <path class="st30" d="M16.95,9.66c.13.08.32.07.44.21.08.49.04.95.05,1.38h-1.59s0-1.59,0-1.59h1.1Z"/>
  <path class="st3" d="M9.32,14.25c.2.37.18,1.16-.08,1.49l-1.16-.02c-.4,0-.61-.43-.58-.78.02-.27.22-.7.56-.7h1.26Z"/>
  <path class="st20" d="M11.85,32.26l-.08,1.49h-1.6c-.2-.13-.25-.4-.15-.82-.05-.35.02-.57.22-.67h1.6Z"/>
  <path class="st33" d="M13.35,23.26l-.07,1.48h-1.6c-.33-.3-.3-1.23.08-1.49h1.6Z"/>
  <path class="st21" d="M8.66,32.26c.43.14.42,1.32.02,1.5h-1.6s.08-1.49.08-1.49h1.5Z"/>
  <path class="st16" d="M21.51,36.75c.13.5.03,1.05.02,1.58h-1.5c-.2-.4-.19-1.21.07-1.59h1.41Z"/>
  <path class="st29" d="M21.02,9.68c.01.16-.08.26-.28.33l-.03,1.11-.19.13h-1.41s-.09-1.59-.09-1.59l1.99.02Z"/>
  <path class="st8" d="M9.23,27.75c.32.34.31,1.17-.04,1.5h-1.14c-.37,0-.57-.48-.56-.79s.22-.68.58-.69l1.15-.02Z"/>
  <path class="st17" d="M10.26,32.25l-.07,1.49h-1.5c.11-.49.14-1.01-.02-1.49h1.59Z"/>
  <path class="st32" d="M7.26,23.26c.19.08.24.3.15.64.06.42-.02.71-.23.85h-1.5c-.33-.28-.29-1.25.08-1.5h1.5Z"/>
  <path class="st21" d="M8.76,23.25c.33.31.3,1.24-.07,1.5h-1.5s.08-1.5.08-1.5h1.5Z"/>
  <path class="st34" d="M12.13,14.25c.02.49.02,1-.08,1.5h-1.5c-.07-.01-.18-.03-.18-.09-.02-.15.03-1.24.07-1.29.04-.07.12-.1.19-.12h1.5Z"/>
  <path class="st17" d="M10.26,23.26c.28-.02.16,1.29.12,1.37-.03.07-.12.1-.19.12h-1.5c.1-.49.1-1,.07-1.5h1.5Z"/>
  <path class="st28" d="M11.75,23.25c-.1.5-.1,1.01-.08,1.5h-1.5s.07-1.5.07-1.5h1.5Z"/>
  <path class="st23" d="M18.7,36.7c.27.46.34,1.01.22,1.64h-2c-.07-.16.03-.26.3-.31l.06-1.13.2-.15c.42,0,.82.02,1.22-.04Z"/>
  <path class="st18" d="M21.84,11.25l-.21-.06c-.05-.51-.07-1.01-.06-1.51.83-.03,1.63-.05,1.76.72.05.28-.17.67-.52.81-.29.13-.68.04-.97.04Z"/>
  <path class="st15" d="M20.1,36.75c.03.53.02,1.07-.07,1.6h-1.11c-.36-.21-.03-.77-.2-1.19-.07-.18-.11-.32-.02-.45l1.4.04Z"/>
  <path class="st13" d="M15.23,36.74c.13.1.15.27.07.49l-.05.87c-.04.14-.17.21-.38.23h-.74c-.76-.34-.15-.84-.41-1.58l1.5-.02Z"/>
  <path class="st5" d="M5.75,23.25c-.1.5-.1,1.01-.08,1.51h-1.31c-.2-.14-.25-.41-.15-.83-.05-.35.02-.57.22-.66h1.31Z"/>
  <path class="st27" d="M10.54,27.76c.28-.02.16,1.29.12,1.37-.03.07-.12.1-.19.12h-1.27c.06-.49.06-1,.04-1.49h1.31Z"/>
  <path class="st27" d="M10.63,14.25l-.08,1.5h-1.31c-.02-.5-.02-1.01.08-1.5h1.32Z"/>
  <path class="st4" d="M21.57,9.67c.43.39.05.91.27,1.57h-1.31s.03-1.44.03-1.44c.2-.02.34-.09.46-.13.17-.06.37,0,.54,0Z"/>
  <path class="st11" d="M4.44,23.26l-.07,1.48h-.79c-.39,0-.6-.43-.58-.79.02-.31.22-.69.58-.69h.87Z"/>
  <path class="st25" d="M11.59,29.25c-.2-.37-.19-1.16.08-1.5h.79c.39.02.6.44.58.79-.02.31-.22.68-.58.69l-.86.02Z"/>
  <path class="st22" d="M16.17,36.76c.21,0,.3.15.26.43l-.05.72c.21.14.28.28.2.42h-1.7c.42-.25.07-.91.35-1.59h.94Z"/>
  <path class="st10" d="M17.48,36.75c-.05.46.01.94-.1,1.43l-.46.16h-.34c-.05-.09-.36-.2-.39-.39-.03-.4.14-.83-.02-1.19h1.31Z"/>
  <path class="st28" d="M11.67,27.75c.02.49.02,1-.08,1.5h-1.13s.07-1.49.07-1.49h1.13Z"/>
  <path class="st31" d="M31.4,40.55h-3.52c-.84.01-1.49-.67-1.51-1.48l-.05-2.46c-2.33-.61-4.35-1.81-6.01-3.5l-2.31,1.29c-.68.38-1.54-.06-1.89-.72l-1.62-2.8c-.41-.7-.38-1.64.36-2.07l2.22-1.31c-.66-2.31-.65-4.67,0-6.99l-2.11-1.25c-.77-.45-.92-1.4-.48-2.14l1.81-3.07c.42-.71,1.43-.67,2.09-.3l1.94,1.1c1.7-1.7,3.73-2.9,6.08-3.48l.05-2.75c.01-.72.79-1.2,1.49-1.2h3.42c.78,0,1.48.63,1.49,1.41l.04,2.53c2.31.62,4.38,1.83,6.04,3.53l1.98-1.15c.77-.45,1.73-.27,2.18.53l1.79,3.15c.34.6.07,1.43-.49,1.77l-2.24,1.32c.68,2.31.64,4.67.02,7l2.15,1.27c.77.46.82,1.42.39,2.16l-1.7,2.91c-.38.65-1.27.88-1.93.51l-2.18-1.21c-1.7,1.69-3.74,2.9-6.02,3.46l-.03,2.45c0,.8-.59,1.5-1.48,1.5ZM38.21,23.29c-.41-4.7-4.51-8.18-9.11-7.88-4.95.33-8.57,4.69-8.03,9.54.44,3.97,3.55,7.11,7.51,7.6,5.35.67,10.1-3.84,9.62-9.26Z"/>
  <path class="st9" d="M34.36,29.35c-2.98,2.64-7.46,2.36-10.11-.64s-2.35-7.41.66-10.09,7.41-2.36,10.09.66,2.37,7.39-.64,10.06ZM30.43,28.53l1.52-.06c.64-.12,1.23-.71,1.22-1.37l-.02-2.52c0-.74-.79-1.29-1.48-1.31l-1.3-.02v-2.34s1.38.03,1.38.03c0,.43.18.75.5.87s.75,0,.88-.39c.27-.85-.36-1.87-1.26-1.9l-1.46-.05-.07-.86c-.03-.35-.37-.56-.68-.59-.26-.03-.55.2-.7.47-.16.3-.08.67-.08,1.02l-1.52.03c-.59.01-1.26.58-1.26,1.23l-.02,2.59c0,.78.77,1.38,1.48,1.39l1.3.02v2.34s-1.38-.02-1.38-.02c0-.43-.18-.75-.5-.87s-.76-.01-.88.4c-.26.83.37,1.88,1.26,1.9l1.51.02c0,.32-.07.66.06.95.14.33.49.59.8.52.73-.17.59-.77.7-1.45Z"/>
  <polygon class="st12" points="28.88 23.24 27.49 23.22 27.49 20.94 28.88 20.91 28.88 23.24"/>
  <polygon class="st7" points="31.78 27.05 30.37 27.09 30.37 24.75 31.76 24.78 31.78 27.05"/>
</svg>