<?xml version="1.0" encoding="UTF-8"?>
<svg id="glipy_copy_4" xmlns="http://www.w3.org/2000/svg" version="1.1" xmlns:svgjs="http://svgjs.dev/svgjs" xmlns:xlink="http://www.w3.org/1999/xlink" viewBox="0 0 300 300">
  <!-- Generator: Adobe Illustrator 30.4.0, SVG Export Plug-In . SVG Version: 2.1.4 Build 226)  -->
  <defs>
    <style>
      .st0 {
        fill: #12a9c1;
      }

      .st1 {
        fill: #149fc6;
      }

      .st2 {
        fill: #13a3c4;
      }

      .st3 {
        fill: #09d4ac;
      }

      .st4 {
        fill: #2553ec;
      }

      .st5 {
        fill: #1b82d5;
      }

      .st6 {
        fill: #13a5c3;
      }

      .st7 {
        fill: #188fce;
      }

      .st8 {
        fill: #1c7bd8;
      }

      .st9 {
        fill: #1a86d3;
      }

      .st10 {
        fill: #1b80d6;
      }

      .st11 {
        fill: #1890ce;
      }

      .st12 {
        fill: #11aebf;
      }

      .st13 {
        fill: #188cd0;
      }

      .st14 {
        fill: #1794cc;
      }

      .st15 {
        fill: #159dc7;
      }

      .st16 {
        fill: #1698ca;
      }

      .st17 {
        fill: #1699c9;
      }

      .st18 {
        fill: #13a7c2;
      }

      .st19 {
        fill: #1696ca;
      }

      .st20 {
        fill: #0bcdaf;
      }

      .st21 {
        fill: #01fa98;
      }

      .st22 {
        fill: #159ec7;
      }

      .st23 {
        fill: #1989d1;
      }

      .st24 {
        fill: url(#linear-gradient);
      }

      .st25 {
        fill: #1793cc;
      }
    </style>
    <linearGradient id="linear-gradient" x1="244.03" y1="427.97" x2="10.03" y2="428.02" gradientTransform="translate(17.62 -278)" gradientUnits="userSpaceOnUse">
      <stop offset="0" stop-color="#01fb98"/>
      <stop offset="1" stop-color="#2c32fd"/>
    </linearGradient>
  </defs>
  <path class="st24" d="M264.53,136.44c.96,8.72.93,17.95.03,26.65-1.73,28.08-16.69,56.56-37.74,75.72-44.47,40.49-111.54,42.07-157.62,3.07-36.83-31.17-50.62-79.12-38.42-124.24,8.5-31.43,31.53-60.61,63.52-75.9,42.2-20.18,91.92-14.63,128.06,15.86,23.03,19.44,40.91,48.82,42.17,78.84ZM148.92,92.22l.28-8.23h50.49c1.54,6.12,6.34,8.73,12.23,8.17,6.37-.62,9.72-5.77,9.07-12.36-.54-5.44-5.25-9.25-10.62-9.48-4.8-.21-9.31,3.28-10.91,8.67l-55.23.07c-2.21,8.01-1.8,16.86,2.41,16.08.92-.17,2.22-.82,2.29-2.9ZM74.93,97.22l-.21,53.78c7.25,3.52,17.33,2.89,16.71-1.5-.44-3.12-5.35-2.36-11.15-2.64l.39-50.09c4.82-2.51,8.79-6.93,8.13-12.09-.8-6.18-4.74-9.59-10.03-9.9-6.25-.36-10.9,3.12-11.96,9.78-.86,5.38,3.89,9.61,8.12,12.65ZM128.88,87.37c-.29-2.03-1.59-2.7-3.21-2.48-2.93.4-3.09,7.88-2.16,14.74.27,2.02,1.6,2.71,3.22,2.48,2.91-.43,3.12-8.02,2.16-14.74ZM176.89,183.24c19.02-17.92,18.88-47.74,1.04-65.7-9.71-9.77-22.65-13.83-36.89-12.52-17.08,1.57-31.14,13.46-36.81,28.07-6.62,17.03-2.91,34.96,8.93,48.02,15.71,17.33,45.16,19.62,63.73,2.13ZM208.5,132.7c2.02-.27,2.69-1.6,2.47-3.22-.41-2.96-7.8-3.07-14.68-2.17-2.02.27-2.69,1.6-2.47,3.22.41,2.95,7.86,3.1,14.68,2.17ZM208.87,153c1.78.96,2.08,2.62,2.07,4.96l-.09,43.03c0,1.29-.55,2.32-1.32,3.29-3.5,1.67-7.34,8.04-5.49,13.71,1.87,5.75,6.66,8.02,13.12,7,4.33-.69,8.21-5.24,8.51-11.18.23-4.49-4.02-8.52-8.34-10.98l.12-52.72c-.8-.96-1.33-2.65-2.88-2.84-7.76-.97-14.33-.73-13.77,3.25.32,2.31,3.83,2.77,8.07,2.47ZM98.43,169.5c-.13-1.42-1.06-2.57-3.09-2.54l-10.81.17c-2.3.04-3.54,1.39-3.28,3.41.16,1.27,1.39,2.2,3.28,2.33,8.12.52,14.3.84,13.9-3.36ZM166.56,197.22c-3.89-.2-4.09,7.57-3.2,15.42.23,2.03,1.63,2.7,3.21,2.48,4.05-.57,3.09-17.74,0-17.9ZM71.19,219.67c.4,6.13,5.37,9.7,10.8,10.15,4.57.38,9.16-3.58,10.78-8.76l55.23-.1c2.17-7.98,1.88-16.72-2.4-16.06-3,.46-2.48,5.3-2.5,11.13h-50.36c-1.48-5.78-6-8.34-11.39-8.23-6.37.13-10.64,4.62-10.17,11.87Z"/>
  <path class="st21" d="M264.56,163.08l-.03-26.65c.78.67,1.16,1.42,1.16,2.5v22.12c0,1.08-.38,1.83-1.13,2.02Z"/>
  <path class="st4" d="M74.72,151l.21-53.78-.21,53.78Z"/>
  <path class="st16" d="M147.76,178.05c-.76-.13-1.89-.38-1.96-.94-.17-1.49.2-13.25.56-13.83.46-.73,1.25-1.08,2.05-1.29,4.04,1.43,6.05,4.45,5.89,8.52-.14,3.45-2.48,6.85-6.55,7.54Z"/>
  <path class="st11" d="M144.35,161.73c.81-.09,1.97.11,1.98.66.04,2.04-.03,14-.97,14.57-.73.44-1.71.26-2.57.08-4.14-1.35-5.15-4.26-4.77-8.52.27-3.03,2.9-5.62,6.33-6.79Z"/>
  <path class="st25" d="M148.42,161.99l-.66,16.06c-2.1.36-3.43-.51-4.97-1.02.9-.81,1.32-1.75,1.33-2.98l.23-12.33c1.69-.57,2.48-.3,4.07.27Z"/>
  <path class="st8" d="M121.27,129.55c2.68-1.37,4.5,4.11,2,5.56-1.83,1.02-4.89,5.97-8.4,4.8-1.28-.42-1.9-1.81-1.7-3.34.18-1.4.94-2.28,2.43-3.27l5.67-3.76Z"/>
  <path class="st5" d="M130.4,124.8c3.13-.16,2.61,5.39-.12,6.42l-7.02,3.89-2-5.56c3.05-2.02,5.71-3.57,9.13-4.75Z"/>
  <path class="st19" d="M153.13,135.81c2.96.59,2.47,5.88-.42,6.33-2.64-.35-5.33-1.39-7.81-.97-2.94-.65-2.32-5.92.58-6.29,3.03-.24,5.38.57,7.66.92Z"/>
  <path class="st23" d="M137.31,122.73c3.24.16,3.78,5.69.52,6.37-2.39.65-5.62,1.05-7.55,2.12l.12-6.42c2.33-.81,4.61-1.45,6.91-2.07Z"/>
  <path class="st9" d="M133.81,144.1c-2.03.76-3.54,2.79-5.85,2.76-3.55.58-3.28-4.1-.63-5.74,1.99-2.44,4.52-3.33,7.23-4.06,3.19,1.02,1.9,5.71-.75,7.04Z"/>
  <path class="st15" d="M160.4,138.19c2.55,1.51,2.61,5.97-.55,6.62-2.12-1.29-4.6-2.33-7.14-2.67l.42-6.33c2.64.41,4.55.75,7.27,2.38Z"/>
  <path class="st1" d="M162.49,124.96c3.21,1.82,2.8,5.34-.83,6.15-2.1-1.22-4.65-1.54-6.96-1.98-1.8-1.97-2.29-5.57.63-6.26,3.18.1,4.77,1.08,7.15,2.09Z"/>
  <path class="st22" d="M153.9,156.76c-2-1.78-.92-4.83,1.53-5.82,2.97,1.28,6.52,3.94,6.73,5.61s-.57,2.99-1.76,3.36c-3.46,1.08-4.8-2.65-6.5-3.16Z"/>
  <path class="st10" d="M127.95,146.86c-.46,2.45-2.08,2.8-3.34,3.2-1.67.52-4.1-.21-3.93-2.37.25-3.22,3.83-5.69,6.65-6.57.47,1.92-.4,3.96.63,5.74Z"/>
  <path class="st23" d="M137.99,157.14c-1.48,1.22-3.3,3.69-5.82,2.76s-2.15-4.53-.23-6.09c1.76-1.43,3.67-1.82,5.51-2.8,2.3.82,2.55,4.85.54,6.13Z"/>
  <path class="st7" d="M144.57,149.03c2.97.39,2.14,5.89-.74,6.05-1.94.39-4.3.78-5.84,2.05-.98-1.99-1.05-4.04-.54-6.13,2.29-1.22,4.39-1.95,7.13-1.97Z"/>
  <path class="st2" d="M166.16,142.08c3,1.89,2.43,5.71-1.24,5.84l-5.07-3.1.55-6.62c1.98,1.19,4.75,1.83,5.76,3.88Z"/>
  <path class="st7" d="M144.61,121.99c2.96.44,2.04,5.92-.84,6.03-2.05.02-3.93.53-5.94,1.08.36-2.23-.17-4.13-.52-6.37,2.49-.67,4.52-.75,7.29-.74Z"/>
  <path class="st12" d="M172.27,136.68c-2.06-1.82-1.67-4.52,1.04-5.42l4.48,2.92c1.58,1.03,1.65,3.13.81,4.84-.51,1.03-3.12,1.34-4.31.64-.92-.54-1.64-1.2-2.01-2.98Z"/>
  <path class="st6" d="M169.21,128.24c1.56,2.16,1.19,4.72-1.32,5.89-1.95-.6-4.22-1.85-6.23-3.01.69-2.06,1.37-4.12.83-6.15,2.37,1.01,4.5,1.97,6.72,3.27Z"/>
  <path class="st17" d="M155.34,122.87c.13,2.27.28,4.33-.63,6.26-2.08-.39-3.84-1.19-6.02-1.17-2.94-.36-2.14-5.81.76-5.96,2.35.01,4.27.81,5.89.86Z"/>
  <path class="st18" d="M164.92,147.92c1.18-1.81,1.25-3.82,1.24-5.84,3.82,1.19,6.73,4.26,5.15,6.65-.69,1.05-1.85,2.12-3.34,1.88s-2.05-2.08-3.06-2.7Z"/>
  <path class="st17" d="M155.43,150.94c-.09,2.07-.32,4.07-1.53,5.82-1.7-.51-3.4-1.54-5.14-1.74-2.97-.36-2.2-5.85.68-6.03,2.47-.02,4.08,1.13,5.99,1.95Z"/>
  <path class="st11" d="M145.47,134.89l-.58,6.29-5.95,1c-3.04-.72-2.46-5.62.35-6.38,2.2-.59,3.99-.73,6.17-.91Z"/>
  <path class="st0" d="M173.31,131.26c-.2,1.93-.15,3.99-1.04,5.42-2.59.41-3.3-2.09-4.38-2.56-.06-2.14.02-4.18,1.32-5.89,1.58.94,2.64,2.07,4.11,3.03Z"/>
  <polygon class="st13" points="139.3 135.8 138.95 142.17 133.81 144.1 134.55 137.06 139.3 135.8"/>
  <polygon class="st14" points="149.45 122.01 148.68 127.97 143.77 128.02 144.61 121.99 149.45 122.01"/>
  <path class="st14" d="M149.43,148.99l-.68,6.03c-1.67-.19-3.38-.24-4.92.07l.74-6.05,4.86-.04Z"/>
  <g>
    <path class="st20" d="M209.53,204.28c.77-.96,1.32-2,1.32-3.29l.09-43.03c0-2.34-.29-4-2.07-4.96.8-.06,1.64-.21,3,.24l-.02,49.73c0,1.28-1.67,1-2.33,1.31Z"/>
    <path class="st3" d="M217.33,202.83l.12-52.72-.12,52.72Z"/>
  </g>
</svg>