<svg width="120" height="63" viewBox="0 0 120 63" fill="none" xmlns="http://www.w3.org/2000/svg">
<path d="M19.4638 62.4082L13.8348 62.4316L6.68829 51.8834L6.61473 62.4277L1.24902 62.4433V43.7646L6.93993 43.7256L14.1136 54.3713L14.1678 43.7451L19.4444 43.7334L19.4638 62.4082Z" fill="#20603D"/>
<path d="M89.2763 62.3537L83.4848 62.4434L79.9773 56.4069C79.4082 56.2041 78.843 56.2119 78.1887 56.325L78.1578 62.4278L72.6914 62.4434V43.749H81.7504C82.846 43.749 83.9261 44.0259 84.9172 44.3067C87.3678 45.1451 88.7111 47.243 88.8118 49.7621C88.9163 52.3592 87.6542 54.5585 84.983 55.4437L89.2763 62.3576V62.3537ZM81.4329 51.9887C82.7802 51.9653 83.3764 50.9827 83.3261 49.8557C83.2757 48.7287 82.544 47.9449 81.3323 47.9332L78.2004 47.902L78.1771 52.0433L81.4368 51.9887H81.4329Z" fill="#20603D"/>
<path d="M45.906 55.3499L42.2515 55.3382L42.2437 51.6844L50.9349 51.6688L50.9427 55.7594C50.9504 59.1325 48.5463 61.8856 45.2944 62.6304C42.9638 63.1646 40.61 63.1412 38.3104 62.4198C33.328 60.8561 32.1743 54.9015 33.1189 50.031C33.7654 46.693 36.1967 44.1739 39.4951 43.5149C44.3188 42.5517 49.6342 44.0725 50.6059 49.1614L45.3834 49.7424C44.9692 48.5336 43.9975 47.8472 42.7857 47.8355C40.7958 47.4222 39.015 48.5725 38.473 50.5379C38.0007 52.2576 38.0704 54.0865 38.5737 55.7906C39.0769 57.4947 40.4319 58.4462 42.174 58.5904C43.6684 58.7113 45.155 58.2551 45.8557 56.824C46.0222 56.4847 45.9641 55.9661 45.906 55.346V55.3499Z" fill="#20603D"/>
<path d="M67.4805 55.2097L59.8694 55.2409L59.9081 58.3254L69.1375 58.3332L69.1607 62.4316L54.4805 62.4473V43.7412L69.0717 43.7334V47.8474L59.8733 47.8591V51.1035L67.4612 51.1191L67.4805 55.2097Z" fill="#20603D"/>
<path d="M113.283 59.1639L107.015 59.1561L105.962 62.42L100.252 62.4317L107.209 43.7529H113.12L120 62.4434L114.34 62.4356L113.283 59.16V59.1639ZM111.978 55.1201L110.105 49.5164L108.304 55.1513L111.978 55.124V55.1201Z" fill="#20603D"/>
<path d="M97.8792 62.4044L92.3896 62.4434V43.7607L97.8715 43.7802L97.8792 62.4044Z" fill="#20603D"/>
<path d="M29.4025 62.3653L24.0059 62.4433L24.0175 43.7295L29.3909 43.7568L29.4025 62.3653Z" fill="#20603D"/>
<path d="M15.1477 32.5416V35.1698H11.3305C10.6066 35.1698 10.1924 34.4562 9.79748 33.8323C7.72242 36.2188 2.80579 36.3397 0.982379 34.1677C-0.678438 32.1867 -0.148056 29.188 1.93087 27.7841L3.53748 26.6962C2.73998 25.8578 2.05862 24.9219 1.86505 23.7403C1.59405 22.0986 2.53867 20.6324 4.04076 19.9617C5.54285 19.291 7.29271 19.3183 8.82577 19.8915C10.564 20.5388 11.3576 22.2702 10.8699 24.0484C10.4672 25.5107 9.39486 26.4466 8.08634 27.2655L9.75102 29.2075L10.986 27.1134H14.2147L11.7332 31.4536C11.586 31.9839 12.5771 32.4948 13.0068 32.5026L15.1477 32.5377V32.5416ZM6.30938 25.2962C7.13011 24.8361 7.64887 24.3331 7.82308 23.5726C7.96632 22.9331 7.68372 22.2702 7.18818 22.044C6.69265 21.8179 5.99967 21.8374 5.58157 22.2078C4.8731 22.8356 5.13636 24.3331 6.30938 25.3001V25.2962ZM8.02052 31.7851L5.50801 28.7746C4.51694 29.2075 3.63039 30.0615 3.66911 31.2391C3.69621 32.0931 4.32724 32.6547 4.94279 32.9198C5.99968 33.3722 7.18043 32.8223 8.02052 31.7851Z" fill="#105B33"/>
<path d="M95.8616 35.1856L91.785 35.2012L88.7576 29.8159L86.8413 29.7847L86.7948 35.1895L83.1093 35.2129L83.1016 19.8877L90.0352 19.915C91.3089 19.9189 92.6058 20.2426 93.5736 20.9874C94.7544 21.8765 95.277 23.0619 95.3622 24.5008C95.4899 26.6534 94.4292 28.5213 92.2303 29.2271L95.8616 35.1856ZM89.7681 26.6846C91.0263 26.6729 91.6766 25.8501 91.6728 24.7894C91.6689 23.7287 91.003 22.9176 89.8455 22.902L86.8181 22.8669V26.708L89.7681 26.6846Z" fill="#105B33"/>
<path d="M50.3352 31.9918L44.8959 31.9333L43.8158 35.1894L39.9561 35.1972L45.5541 19.8955L49.6732 19.876L55.2093 35.1816L51.3998 35.2323L50.3352 31.9957V31.9918ZM49.4099 29.0711L47.5981 23.483L45.7825 29.1335L49.4099 29.0711Z" fill="#105B33"/>
<path d="M62.944 35.1153L59.3243 35.2167L59.3127 22.98L54.6709 22.9644L54.7019 19.8838L67.4503 19.8721L67.4696 22.9683L62.944 22.98V35.1153Z" fill="#105B33"/>
<path d="M78.9751 34.803C77.895 35.2202 76.4084 35.6531 75.2895 35.1228C73.6713 34.3546 72.0879 34.0738 70.3032 34.8264C70.1019 33.832 70.0941 33.0521 70.4348 32.1591C71.5149 31.9368 72.8428 31.582 73.9191 32.0226C75.6147 32.7207 77.1478 32.9741 78.9906 32.1942L78.9751 34.803Z" fill="#027397"/>
<path d="M78.9168 28.6738C77.1825 29.4927 75.5487 29.2158 73.9654 28.4398C72.8349 27.8861 71.4412 28.3189 70.2411 28.6348L70.2295 26.1703C71.8168 25.4216 73.5666 25.5932 75.15 26.2795C76.3308 26.7903 77.527 26.4433 78.8626 26.104C79.1259 26.8878 79.0446 27.7574 78.9168 28.6777V28.6738Z" fill="#027397"/>
<path d="M78.9786 22.4068C77.2558 23.37 75.4905 23.0268 73.8568 22.2274C72.7805 21.697 71.4372 22.1806 70.3532 22.4341C70.0667 21.5762 70.1325 20.7534 70.3338 19.876C71.7043 19.4392 73.2373 19.3534 74.6039 19.9267C77.1126 20.9795 78.6727 19.6147 78.905 20.2425C79.1373 20.8704 78.9863 21.5801 78.9747 22.4107L78.9786 22.4068Z" fill="#027397"/>
<path d="M25.4336 29.153C25.4685 29.3402 25.5381 29.3908 25.6349 29.309L28.1397 19.9111H31.3104L33.5867 28.5602C33.8268 28.7669 33.9003 29.4805 33.8616 29.383C33.8306 29.309 33.8887 29.0711 34.0126 29.0711L36.0992 19.9033L39.7306 19.9111L36.045 35.1777L32.2666 35.2167L29.6805 25.5147L27.1177 35.1816H23.405L19.6924 19.8838L23.3431 19.9033L25.4414 29.153H25.4336Z" fill="#105B33"/>
<path d="M34.0089 29.0714C33.9818 29.1962 34.0824 29.3756 33.9082 29.5744C33.703 29.2859 33.6837 28.931 33.5869 28.5605L34.0089 29.0714Z" fill="#BDD1C6"/>
<path d="M25.4336 29.1533L25.6349 29.3093C25.6427 29.6759 25.2555 29.4536 25.4336 29.1533Z" fill="#BFD3C8"/>
<path d="M77.8446 15.7929L74.8056 10.3608L72.8002 10.3452L72.7847 15.7344L69.1689 15.75L69.1611 0.424805L76.7413 0.502794C79.6642 0.53399 81.6928 2.88541 81.3753 5.81786C81.263 7.72083 80.0513 9.19095 78.2318 9.74858L81.8553 15.7149L77.8369 15.7929H77.8446ZM76.0289 7.20999C77.202 7.19439 77.7749 6.13371 77.6936 5.15493C77.6123 4.17615 76.9039 3.47033 75.8818 3.45474L72.8041 3.41184V7.25288L76.0289 7.20609V7.20999Z" fill="#105B33"/>
<path d="M26.7774 14.7754C24.3771 16.5146 20.9665 16.5652 18.4191 15.1263C14.4161 12.8646 13.6612 6.25488 16.5492 2.67901C17.9816 0.908625 19.8709 0.10532 22.0969 0.00783135C26.1773 -0.171547 29.4602 2.7492 29.8203 6.85541C30.0835 9.83855 29.3518 12.9114 26.7774 14.7754ZM22.3795 12.9816C23.9861 12.9777 25.1708 12.1276 25.7244 10.7198C26.3554 9.12104 26.3554 7.26486 25.8212 5.63095C25.2482 3.88396 23.6958 2.97538 21.915 3.17425C20.68 3.31074 19.6812 3.91126 19.1276 5.08502C18.2642 6.9256 18.2759 9.15613 19.1276 11.0318C19.7044 12.3031 20.9123 12.9855 22.3795 12.9816Z" fill="#105B33"/>
<path d="M8.97281 10.4466L4.60591 10.5207L4.58656 15.7266L0.970703 15.7578V0.428711H7.96239L9.93292 0.803069C12.0893 1.4075 13.1384 3.25587 13.1694 5.42011C13.2081 7.9938 11.7215 10.1229 8.97281 10.4427V10.4466ZM9.63869 5.5215C9.63869 4.32434 8.88378 3.56003 7.78431 3.55223L4.59817 3.52494V7.52196L7.78817 7.51806C8.89926 7.51806 9.63482 6.71086 9.63869 5.5254V5.5215Z" fill="#105B33"/>
<path d="M64.7942 3.55613L54.9803 3.56393L54.9609 0.432599L64.7671 0.424805L64.7942 3.55613Z" fill="#F36F22"/>
<path d="M64.7825 15.8238L54.9531 15.8355L54.9802 12.7549L64.798 12.7666L64.7825 15.8238Z" fill="#F36F22"/>
<path d="M64.7982 9.72915L54.9804 9.73694L54.9727 6.69531H64.7982V9.72915Z" fill="#F36E21"/>
<path d="M37.1529 9.88505C37.18 10.041 37.2342 10.0839 37.3116 10.0254L39.7932 0.45599L42.9677 0.416992L45.577 10.158L47.772 0.424793L51.3957 0.432588L47.7256 15.7188H43.9317L41.4695 6.41447C41.3417 6.1493 41.2682 6.11031 41.2488 6.29359L38.8253 15.7265H35.0933L31.3613 0.459887L35.0043 0.436491L37.1568 9.87725L37.1529 9.88505Z" fill="#105B33"/>
<path d="M41.4652 6.41491L41.2446 6.29403C41.2794 6.15365 41.1013 5.89238 41.4033 5.77539L41.4614 6.41491H41.4652Z" fill="#9ABAA9"/>
<path d="M37.1527 9.88574L37.3114 10.0261C37.3927 10.4005 36.9359 10.2016 37.1527 9.88574Z" fill="#719D86"/>
</svg>
