<?xml version="1.0" encoding="UTF-8"?>
<svg id="Layer_1" xmlns="http://www.w3.org/2000/svg" version="1.1" xmlns:xlink="http://www.w3.org/1999/xlink" viewBox="0 0 256 256">
  <!-- Generator: Adobe Illustrator 30.4.0, SVG Export Plug-In . SVG Version: 2.1.4 Build 226)  -->
  <defs>
    <style>
      .st0 {
        fill: #00bf9b;
      }

      .st1 {
        fill: #00c39a;
      }

      .st2 {
        fill: #00b89b;
      }

      .st3 {
        fill: #00bb9b;
      }

      .st4 {
        fill: #00f797;
      }

      .st5 {
        fill: #00e898;
      }

      .st6 {
        fill: #00de99;
      }

      .st7 {
        fill: #00ed97;
      }

      .st8 {
        fill: #00d899;
      }

      .st9 {
        fill: #00ca9a;
      }

      .st10 {
        fill: #00d599;
      }

      .st11 {
        fill: #00c69a;
      }

      .st12 {
        fill: #00d299;
      }

      .st13 {
        fill: #00d799;
      }

      .st14 {
        fill: #00b69b;
      }

      .st15 {
        fill: #00f497;
      }

      .st16 {
        fill: #00f397;
      }

      .st17 {
        fill: #00f197;
      }

      .st18 {
        fill: #00da99;
      }

      .st19 {
        fill: #00d099;
      }

      .st20 {
        fill: #00ce9a;
      }

      .st21 {
        fill: #00f897;
      }

      .st22 {
        fill: #00fc96;
      }

      .st23 {
        fill: #0d9;
      }

      .st24 {
        fill: url(#linear-gradient);
      }

      .st25 {
        fill: #00d399;
      }

      .st26 {
        fill: #00e198;
      }

      .st27 {
        fill: #00f597;
      }

      .st28 {
        fill: #00fa97;
      }
    </style>
    <linearGradient id="linear-gradient" x1="-623.85" y1="729.99" x2="-755.83" y2="732.37" gradientTransform="translate(832 -668)" gradientUnits="userSpaceOnUse">
      <stop offset="0" stop-color="#00be9b"/>
      <stop offset="1" stop-color="#00ea98"/>
    </linearGradient>
  </defs>
  <path class="st24" d="M181.12,106.44c-2.87-.43-4.63-1.82-4.85-4.1-.6-6.1,7.25-4.61,16.29-2.9l-29.97-52.93c-7.39-13.05-19.42-21.16-34.15-21.44-14.91-.28-27.34,8.3-34.95,21.46l-10.21,17.65c-1.3,2.25-3.35,3.31-5.36,2.45s-3.81-3.62-2.37-6.02l15.36-25.61c9.09-11.88,22.2-18.61,36.77-18.62,13.78-.01,28.36,5.96,36.86,18.25l35.77,60.63,4.48-9.42c1.16-2.43,2.37-4.19,4.72-3.9s4.61,3.18,3.41,5.97l-7.83,18.12c-1.02,2.37-3.57,3.45-6.08,3.07l-17.89-2.68Z"/>
  <path class="st18" d="M128.36,178.2c.02,4.16-4.34,7.83-6.21,11.72l-2.66-.83c-.68-11.45-.82-22.89-.42-34.33l3.21-14.53c-2.01-.52-3.11-.05-4.29-.09-2.03-.82-2.46-3.21-1.31-7.17-.52-13.42-.16-26.72,1.09-39.91l8.87-15.05c2.94-.63,3.3,1.39,3.35,3.95l.36,91.64-1.98,4.61Z"/>
  <path class="st8" d="M136.98,101.99l-2.93,11.26c-.28,1.07-.05,1.93.59,2.43.29.22.84.38,1.29.42.83-.12,1.99.09,2,.67.24,15.7.32,31.64-.64,47.28l-3.19,6.06c-1.49,2.84-2.54,6.16-5.74,8.08l-.37-96.16c0-1.72-.39-2.85-1.35-4.04l7.55-12.91c1.84-1.91,2.96-.48,3.27,1.91.37,11.69.24,23.41-.48,34.98Z"/>
  <path class="st6" d="M117.99,140.13l-8.06-.26-2.6-.75c-.51-9.33-.57-18.68-.2-28.05l10.63-18.02c1.08,1.05.91,2.11.91,3.51v36.45c0,2.54-.89,4.89-.68,7.12Z"/>
  <path class="st10" d="M144.1,116.13l2.76,1.01c.6,8.76.97,17.52,1.12,26.28l-1.82,5.73-8.86,14.91c-.92-1.16-1.38-2.45-1.38-4.01l.02-43.94c2.72-.31,5.45.07,8.17.03Z"/>
  <path class="st23" d="M122.15,189.92c-3.57,7.38-8.23,15.66-11.97,11.5-.71-.79-1.62-2.87-1.24-4.45l10.13-42.21c1.17.9,1.81,2.44,1.81,4.31l.02,24.97c0,2.26,0,4.2,1.25,5.88Z"/>
  <path class="st10" d="M136.98,101.99c-.57-.19-1.12-.85-1.13-1.95l-.37-32.82c-.01-1.04-.66-1.78-1.29-2.12,3.91-6.68,7.1-14.35,11.42-10.19,1.06,1.02,2.01,3.11,1.52,5.15l-10.14,41.94Z"/>
  <path class="st26" d="M109.93,139.87c-7.14-.23-13.95,1.59-16.22-2.15-.54-.89-.79-2.55.02-3.93l13.4-22.72c1.05.91,1.65,2.25,1.87,3.96l-.08,21.99c.1,1.24.49,2.15,1.01,2.85Z"/>
  <path class="st12" d="M152.05,116l2.02,2.34c.5,6.54.11,12.85-1.17,18.91-.97,4.11-4.44,8.01-6.75,11.9l-.89-28.2c0-1.97-.07-3.58-1.16-4.82l7.95-.13Z"/>
  <path class="st19" d="M152.91,137.24c-1.35-7.19-.72-14.23-.86-21.24l6.98.14c1.44.03,4.1,3.02,3.5,4.66-2.24,6.14-6.21,11.4-9.62,16.45Z"/>
  <path class="st14" d="M232.51,200.27l-1.33.04c-1.28-4.27-1.59-9.06-.92-14.39,2.63-11.09.63-14.15,1.07-18.04-.69-3.03-1.53-11.52,0-13.86.44-.68,1.36-.91,2.18-1.09,9.16,14.03,8.92,33.21-.99,47.34Z"/>
  <path class="st18" d="M129.99,222.82c-.49.1-1.11.81-1.21,1.3,2.45,2.08,1.38,9.31-1.95,9.72-2.51-2.73-4.26-5.72-6.78-9.05-1.66-2.18-4.77-5.51-2.59-8.31l9.67-12.47c3.76.24,3.53,6.57,2.05,9.3,1.3,2.48,1.51,6.74.81,9.51Z"/>
  <path class="st3" d="M226.36,141.01c1.03,3.63,1.85,10.62-2.8,10.98l-8.19-13.34c-1.14-1.86-1.93-3.79-.9-5.62.91-1.62,2.83-2.3,4.95-2.12,3.45.3,5.79,8.83,6.95,10.11Z"/>
  <path class="st8" d="M131.87,214.22c4.31-.1,4.37,8.82.22,8.54-.63-.11-1.47-.06-2.1.06-3.87-3.14-.29-10.83-2.86-18.81,1.58-2.04,3.66-5.46,6.93-5.72,1.45-.11,4.41,2.95,3.86,4.48-1.54,4.26-4.72,7.26-7.8,10.69.3.48,1.2.67,1.76.76Z"/>
  <path class="st2" d="M232.51,200.27c.39,4.58-5.56,8.07-8.44,11.1-3.59-.04-4.28-6.78-2.39-9.39,3.93-4.49,7.21-10.31,8.58-16.06,1.46,1.51,1.41,4.37,1.64,7.07l.62,7.28Z"/>
  <path class="st2" d="M233.5,152.93l-2.17,14.96-4.04-9.19-3.74-6.71c2.54-3.76.47-7.85,2.8-10.98,3.2,3.54,4.66,8.11,7.14,11.92Z"/>
  <path class="st25" d="M153.99,214.14c1.35,1.84,1.38,7.04,0,8.86l-13.97-.07c-3.98-1.59-3.46-8.24.92-8.79h13.06Z"/>
  <path class="st20" d="M167.02,215.03c3.06.41,2.89,7.33-.04,7.96h-12.99c-1.72-2.94-1.71-6.09,0-8.86,4.37,0,8.56.87,13.03.89Z"/>
  <path class="st3" d="M224.07,211.38c-3.23,3.4-6.77,5.75-11.12,7.62-2.57-.87-2.88-7.36-.9-8.95,3.48-2.1,6.98-5,9.64-8.05l2.39,9.39Z"/>
  <path class="st0" d="M212.94,219c-3.88,1.67-7.76,3.73-12.07,3.8-3.07-.49-2.86-8.25.13-8.98,3.69-.7,7.74-1.79,11.04-3.77,1.25,2.92,1.14,5.94.9,8.95Z"/>
  <path class="st8" d="M126.83,233.84l1.95-9.72c2.67.7,3.44,3.68,5.36,5.72,2.36,2.52,4.37,5.91,1.36,8.73-1.23,1.16-4.5.66-5.97-.38-1.14-.81-1.59-3.14-2.7-4.36Z"/>
  <path class="st9" d="M179.02,215.09c3.32.69,2.13,7.69-1.03,7.85l-11.01.06.04-7.96,11.99.06Z"/>
  <path class="st1" d="M201,213.81l-.13,8.98-10.86.17c-3.06-.38-2.94-7.28-.02-7.92,3.75-.02,7.29-.52,11.01-1.23Z"/>
  <path class="st11" d="M189.99,215.04l.02,7.92-12.02-.02c.42-2.69,1.2-5.21,1.03-7.85l10.97-.05Z"/>
  <path class="st13" d="M140.93,214.13c-1.91,2.66-1.56,5.7-.92,8.79-2.63-.01-5.29.31-7.93-.17,1.17-2.75,1.29-6.03-.22-8.54l9.06-.09Z"/>
  <path class="st22" d="M24.76,166.83c1.06,2.24-3.62,13.13,4.57,28.3l.75,4.47c.6,3.79-.14,6.23-2.21,7.3l-2.65-2.1c-11.61-15.49-12.5-36.44-2.52-52.24l2.32.22c1.32,4.54,1.24,9.22-.24,14.05Z"/>
  <path class="st17" d="M60.15,88.67c3.92.99,4.03,11.52.75,13.3.05,2.75-1.97,4.97-3.43,7.44l-5.61,9.5c-1.02,0-2.16-.08-2.79-.82-1.7-1.98-.8-7.68-.26-10.23l5.23-9.64-4.05-.28c-2.12-1.83-2.19-4.52-.22-8.07,3.29-1.62,6.86-.22,10.36-1.21Z"/>
  <path class="st7" d="M60.9,101.97c-.08-4.33.49-8.81-.75-13.3,1.81-.51,4.71-.73,5.95,2.4l7.92,19.91c.99,2.49-1.7,4.91-3.51,5.08-1.99.18-3.64-.88-4.58-3.04l-5.03-11.04Z"/>
  <path class="st21" d="M43.44,209.75c2.59,1.9,2.88,8.16-.43,9.14-5.95-2.53-11.63-6.64-15.14-11.98l.26-8.97c0-1.21.35-2.11,1.21-2.8,3.12,5.78,8.54,10.98,14.1,14.62Z"/>
  <path class="st27" d="M51.87,118.91l-9.9,17.05c-5.32-.04-3.98-7.21-3.07-11.21l9.92-16.89c1.95,3.33.36,7.66,3.05,11.04Z"/>
  <path class="st4" d="M41.96,135.96l-9.43,16.03c-5-.3-3.95-7.52-2.68-11.34-.55.61,5.55-9.97,9.04-15.9,1.73,3.81.33,8.14,3.07,11.21Z"/>
  <path class="st16" d="M58.99,214.78c3.27,1.07,2.61,7.88-.98,8.23-5.19.03-10.27-2.11-15.01-4.12l.43-9.14c4.35,2.84,10.45,4.97,15.55,5.03Z"/>
  <path class="st7" d="M75,214.98c3.26,1.43,3.12,6.56-.15,7.91l-16.84.11c1.23-2.44.64-5.05.98-8.23l16.01.21Z"/>
  <path class="st28" d="M32.53,152l-5.44,10.13c-.87,1.62-.58,3.89-2.32,4.7-1.97-4.15.51-9.62-2.07-14.27,2.39-3.79,4.12-8.49,7.16-11.9,1.76,3.78.1,7.93,2.68,11.34Z"/>
  <path class="st5" d="M74.85,222.89c.39-2.67.45-5.32.15-7.91l13.76.4c1.61.05,1.62,3.55,1.09,4.81-.39.93-1.13,2.68-2.97,2.68h-12.03Z"/>
  <path class="st15" d="M49.79,89.88c2.43,1.88.11,4.37.22,8.07-1.88-.13-3.85.53-6.06,1.03-3.1.71-5.53-.94-5.99-3.5-.51-2.86.92-4.73,4.25-5.42,2.39-.5,5.91.64,7.59-.18Z"/>
</svg>