<?xml version="1.0" encoding="UTF-8"?>
<svg id="Layer_1" xmlns="http://www.w3.org/2000/svg" version="1.1" xmlns:xlink="http://www.w3.org/1999/xlink" viewBox="0 0 256 256">
  <!-- Generator: Adobe Illustrator 30.4.0, SVG Export Plug-In . SVG Version: 2.1.4 Build 226)  -->
  <defs>
    <style>
      .st0 {
        fill: #159cc6;
      }

      .st1 {
        fill: #2358e9;
      }

      .st2 {
        fill: #1987d1;
      }

      .st3 {
        fill: #2161e4;
      }

      .st4 {
        fill: #235ae8;
      }

      .st5 {
        fill: #2260e5;
      }

      .st6 {
        fill: #159dc6;
      }

      .st7 {
        fill: #0fb6b9;
      }

      .st8 {
        fill: #0bcbaf;
      }

      .st9 {
        fill: #09d4aa;
      }

      .st10 {
        fill: #1a82d4;
      }

      .st11 {
        fill: #0ebdb6;
      }

      .st12 {
        fill: #14a0c5;
      }

      .st13 {
        fill: #0acfad;
      }

      .st14 {
        fill: url(#linear-gradient1);
      }

      .st15 {
        fill: #1696c9;
      }

      .st16 {
        fill: #1d77d9;
      }

      .st17 {
        fill: #11acbe;
      }

      .st18 {
        fill: #2068e1;
      }

      .st19 {
        fill: #08d6a9;
      }

      .st20 {
        fill: #1698c9;
      }

      .st21 {
        fill: #13a4c2;
      }

      .st22 {
        fill: #0dc2b3;
      }

      .st23 {
        fill: #1792cc;
      }

      .st24 {
        fill: #0ebcb6;
      }

      .st25 {
        fill: #1988d1;
      }

      .st26 {
        fill: #1f6dde;
      }

      .st27 {
        fill: #188ccf;
      }

      .st28 {
        fill: #09d3ab;
      }

      .st29 {
        fill: #0fb7b9;
      }

      .st30 {
        fill: #14a0c4;
      }

      .st31 {
        fill: #1e72dc;
      }

      .st32 {
        fill: #1989d0;
      }

      .st33 {
        fill: #2457e9;
      }

      .st34 {
        fill: #0cc7b1;
      }

      .st35 {
        fill: #0cc6b1;
      }

      .st36 {
        fill: #13a4c3;
      }

      .st37 {
        fill: #10b3bb;
      }

      .st38 {
        fill: #225fe5;
      }

      .st39 {
        fill: #11adbe;
      }

      .st40 {
        fill: #1a84d3;
      }

      .st41 {
        fill: #2162e4;
      }

      .st42 {
        fill: #225ce7;
      }

      .st43 {
        fill: #198ad0;
      }

      .st44 {
        fill: #1a83d3;
      }

      .st45 {
        fill: #11acbf;
      }

      .st46 {
        fill: #0fb9b8;
      }

      .st47 {
        fill: #0bcaaf;
      }

      .st48 {
        fill: #188ece;
      }

      .st49 {
        fill: #10b0bc;
      }

      .st50 {
        fill: #0dc1b4;
      }

      .st51 {
        fill: #12aabf;
      }

      .st52 {
        fill: #1599c8;
      }

      .st53 {
        fill: #2066e2;
      }

      .st54 {
        fill: #12a7c1;
      }

      .st55 {
        fill: #1f6ae0;
      }

      .st56 {
        fill: #1a86d2;
      }

      .st57 {
        fill: #2164e3;
      }

      .st58 {
        fill: url(#linear-gradient);
      }

      .st59 {
        fill: #10b1bc;
      }

      .st60 {
        fill: #1b7dd6;
      }

      .st61 {
        fill: #1c7bd7;
      }

      .st62 {
        fill: #10b4bb;
      }
    </style>
    <linearGradient id="linear-gradient" x1="-770.19" y1="859.48" x2="-678.19" y2="859.57" gradientTransform="translate(832 -668)" gradientUnits="userSpaceOnUse">
      <stop offset="0" stop-color="#1e70dd"/>
      <stop offset="1" stop-color="#13a6c2"/>
    </linearGradient>
    <linearGradient id="linear-gradient1" x1="-656.97" y1="754.43" x2="-754.97" y2="754.46" gradientTransform="translate(832 -668)" gradientUnits="userSpaceOnUse">
      <stop offset="0" stop-color="#10b3bb"/>
      <stop offset="1" stop-color="#1c79d8"/>
    </linearGradient>
  </defs>
  <path class="st3" d="M42.09,221.72l-9.09.16-.08-38.92c0-2.9,1.32-4.55,3.67-5.04,2.47-.51,5.26,1.07,5.28,4.27l.22,39.52Z"/>
  <path class="st41" d="M43,165.16c3.6,1.02,2.83,8.48-.99,7.68-1.92-.07-3.49-.94-5.02-2.02-.78-.21-1.95-.55-2-1.15-.57-7.44-.35-18.13-.04-25.66l1.18-1.78c1.21-.26,2.65-.51,3.83.26.82.54,1.88,2.14,1.89,3.66l.05,14.88c0,1.81.86,2.99,1.09,4.12Z"/>
  <path class="st38" d="M36.99,170.82c-1.72,1.56-3.6,2.96-5.95,3.02-3.54.88-4.46-6.92-1.09-7.72.67-1.16,1.86-1.96,3.11-3.13l-.1-17.01c-.01-2.18,1.57-3.39,3.16-3.74.39.6.87,1.57.87,2.73v25.85Z"/>
  <path class="st55" d="M49.84,177.87c-2.7-1.7-3.03-7.75.21-8.75,3.34.64,8.02,2.99,8.81,6.94.55,2.77-2.5,4.02-4.25,4.1-2.37.11-3.18-1.15-4.77-2.29Z"/>
  <path class="st53" d="M50.05,169.12l-.21,8.75c-2.4-1.72-6.44-1.88-7.83-5.03,1.27-2.2,1.49-5.14.99-7.68,2.92.22,5.11,2.01,7.05,3.96Z"/>
  <path class="st4" d="M29.96,166.11c0,2.61-.12,5.33,1.09,7.72-1.43,2.61-4.47,3.68-7.27,4.17-3.49-.38-4.3-6.71-.98-7.9,1.63-2.39,4.37-3.58,7.16-4Z"/>
  <path class="st33" d="M22.79,170.11c.13,2.66-.25,5.5.98,7.9-.69,2.27-3.17,2.5-5.1,1.79-1.66-.6-3.33-2.49-2.57-4.69,1.02-2.95,4.09-4.71,6.69-5Z"/>
  <g>
    <path class="st9" d="M228.61,237.96c-3.01-.69-2.18-7.53.79-7.87l6.61-.13c2.69-.05,4.27,2.27,4.04,4.47-.19,1.79-1.66,3.64-4.04,3.61l-7.4-.08Z"/>
    <path class="st27" d="M116.32,230.25c1.8,1.93,1.09,7.02-1.67,7.78l-10.02-.03c-3.01-.69-2.21-7.57.77-7.94l10.93.19Z"/>
    <path class="st60" d="M90.4,230.04c3.01.7,2.18,7.58-.8,7.94h-10c-3-.71-2.16-7.58.82-7.93h9.98Z"/>
    <path class="st20" d="M135.4,230.24c3,.65,2.19,7.42-.78,7.73h-10.02c-3.01-.68-2.19-7.51.78-7.85l10.01.12Z"/>
    <path class="st59" d="M179.4,230.08c3.01.69,2.18,7.53-.8,7.87l-10,.09c-3.01-.71-2.19-7.61.78-8l10.01.04Z"/>
    <path class="st29" d="M189.4,230.03c3.01.7,2.2,7.6-.77,7.99l-10.02-.07.8-7.87,10-.05Z"/>
    <path class="st23" d="M125.39,230.12l-.78,7.85-9.96.06c.46-2.64-.03-5.47,1.67-7.78l9.06-.13Z"/>
    <path class="st16" d="M80.42,230.04l-.82,7.93c-3.04,0-5.92-.13-8.85.53-3.55-.56-3.83-7.53-.36-8.45h10.03Z"/>
    <path class="st26" d="M62.4,230.04c3.01.69,2.18,7.54-.8,7.88l-9.03.06c-3-.71-2.15-7.59.82-7.94h9Z"/>
    <path class="st13" d="M229.4,230.09l-.79,7.87-9.03-.03c-3-.69-2.15-7.53.82-7.86h9Z"/>
    <path class="st1" d="M26.34,230.11c2.91,1.03,1.31,7.76-1.68,7.77l-4.63.16c-2.71.09-4.29-2.26-4.06-4.48.19-1.8,1.67-3.67,4.06-3.61l6.32.15Z"/>
    <path class="st31" d="M70.39,230.05c-.49,2.93-.28,5.78.36,8.45l-9.14-.57.8-7.88h7.99Z"/>
    <path class="st56" d="M105.4,230.06l-.77,7.94-8.04-.03c-3.01-.71-2.17-7.58.81-7.94l8,.04Z"/>
    <path class="st45" d="M169.39,230.04l-.78,8-8.05-.03c-3-.72-2.14-7.6.83-7.95l8-.02Z"/>
    <path class="st11" d="M197.43,230.05c3,.7,2.15,7.54-.83,7.87l-7.97.09.77-7.99,8.03.02Z"/>
    <path class="st50" d="M205.41,230.07c3.01.7,2.18,7.57-.8,7.93l-8.01-.08.83-7.87,7.98.02Z"/>
    <path class="st35" d="M213.41,230.06c3.01.69,2.2,7.56-.78,7.93h-8.01s.8-7.92.8-7.92h8Z"/>
    <path class="st42" d="M33.45,230.03c3,.72,2.12,7.59-.85,7.93l-7.94-.07,1.68-7.77,7.11-.08Z"/>
    <path class="st18" d="M53.4,230.04l-.82,7.94-6.97-.04c-3.01-.69-2.18-7.54.8-7.89h6.99Z"/>
    <polygon class="st10" points="97.4 230.02 96.59 237.96 89.6 237.97 90.4 230.04 97.4 230.02"/>
    <path class="st6" d="M142.36,230.1c3.01.68,2.2,7.54-.77,7.9l-6.96-.04.78-7.73,6.96-.14Z"/>
    <path class="st54" d="M161.4,230.06l-.83,7.95h-7.01c-3-.73-2.13-7.61.85-7.95h6.99Z"/>
    <polygon class="st47" points="220.4 230.08 219.58 237.94 212.63 237.99 213.41 230.06 220.4 230.08"/>
    <path class="st57" d="M46.41,230.05l-.8,7.89-7.03.04c-1.75-1.77-1.82-6.95.8-7.93h7.03Z"/>
    <path class="st5" d="M39.38,230.05c-.1,2.74.89,5.38-.8,7.93l-5.99-.02.85-7.93,5.93.02Z"/>
    <path class="st30" d="M148.39,230.06c3,.7,2.15,7.56-.83,7.9l-5.98.04.77-7.9,6.03-.04Z"/>
    <polygon class="st36" points="154.41 230.05 153.56 238 147.57 237.96 148.39 230.06 154.41 230.05"/>
  </g>
  <path class="st8" d="M223.09,221.72l-9.16.15.31-39.43c.02-2.46,1.64-4.3,3.29-4.55,1.88-.29,5.32.64,5.34,3.23l.22,40.61Z"/>
  <path class="st8" d="M222.59,163.01c2.52,1.94,1.65,8.38-1.64,8.84-1.42-1.48-4.43-.07-5.95,1.02-2.44-1.27-3.65-7.06-.85-8.61l.14-17.84c.02-2.95,1.77-4.69,4.19-4.58,2.07.09,4.56,1.31,4.49,4.16l-.4,17.01Z"/>
  <path class="st22" d="M206.16,168.91c3.71-.69,4.06,6.92.87,7.92-1,2.27-3.25,3.14-5.61,3.27-1.83.1-4.81-1.39-4.28-3.99.84-4.16,5.64-6.3,9.03-7.19Z"/>
  <path class="st34" d="M215.01,172.87c-2.49,1.78-4.85,3.77-7.98,3.95,0-2.63.31-5.43-.87-7.92,1.74-2.67,5.01-3.49,8-4.64-.02,2.74,1.61,5.61.85,8.61Z"/>
  <path class="st13" d="M228.91,167.16c2.53,2.27,1.97,8.47-1.83,8.69-2.17-1.16-4.35-2.16-6.13-4l1.64-8.84,6.32,4.16Z"/>
  <path class="st28" d="M233.97,170.1c2.97,1.88,2.25,8.11-1.19,8.79l-5.69-3.04c1.61-2.73.85-5.87,1.83-8.69l5.06,2.94Z"/>
  <path class="st19" d="M232.78,178.9c.52-3.03,1.33-5.83,1.19-8.79,1.89,1.1,4.4,1.85,5.7,4.3,1.1,2.07-.16,4.25-1.64,5.09-2.15,1.23-3.51.34-5.26-.59Z"/>
  <path class="st58" d="M83.68,190.17l-.27,31.26-5.41.57-17.14-.09c-4.09-22.45,3.57-44.44,19.51-60.91,35.56,4.4,65.45,27.61,79.16,60.96l-36.5.1-.35-33.72c-.21-1.73-4.22-2.35-5.73-2.35h-28c-2.19,0-5.21,1.95-5.28,4.19Z"/>
  <path class="st24" d="M188.79,221.99c-.78-.21-1.96-.58-1.99-1.19-.57-12.12.03-25.7,1.13-37.68l2.5.15c5.8,11.62,6.67,24.94,4.92,37.96-1.42,1.37-5.01.77-6.56.76Z"/>
  <path class="st49" d="M174.38,221.95c-1.8.01-6.22.91-7.11-.76l-.33-27.52,1.54-3.76c2-2,3.56-3.51,5.79-5.05,2.52,1.08,3.44,3.86,2.76,8.33l-.62,27.35-2.03,1.41Z"/>
  <path class="st21" d="M154.92,193.99c-.36.48-.75,2.01-1.41,1.92-.77-.1-1.13-1.5-1.45-1.87l-5.23-6.22c-.76-7.81-1.1-15.7-1.01-23.69l.97-2.22c2.09-2.1,4.52-3.86,7-5.79.78.08,1.97.34,2,.89.62,9.74.46,21.96.09,31.78.38,1.65.06,3.38-.96,5.2Z"/>
  <path class="st7" d="M184.3,179.85c.85.13,1.79.32,2.36,1,1.29,1.53.24,35.27-.06,39.97l-2.01,1.15-5-.05-1.98-1.19.45-33.72c-.7-2.33-.29-4.07,1.22-5.19,1.68-.94,3.27-1.19,5.03-1.96Z"/>
  <path class="st54" d="M158.76,152.78c.79.18,1.96.49,2.04,1.1.52,4.3,1.63,27,.88,29.91-.3,1.16-.74,2.38-1.83,2.99-.45,2.38-3.57,5.39-4.93,7.21l-1.03-5.05-.1-32.82c1.53-1.19,3.36-2.58,4.97-3.34Z"/>
  <path class="st37" d="M179.59,221.91l-5.2.04.65-27.95c0-3.27,0-6.18-.77-9.14,1.65-1.14,3.24-2.06,5-3.05.24,1.62.78,3.26.78,5.16l-.46,34.94Z"/>
  <path class="st44" d="M99.36,194.14c.78.1,1.94.36,1.99.92.46,5.5.15,14.47-.24,20.07.62,3.53-.08,5.8-2.08,6.8l-7.04-.03v-27.79s7.38.02,7.38.02Z"/>
  <path class="st23" d="M125.42,142.01c.77.13,1.9.42,1.95,1,.37,4.09-.39,20.71-1.21,24.66l-2.07,1.35c-2.33-1.31-4.59-2.9-7.32-4.22l-1.97-2.11c-.46-1.68.28-18.62.98-19.33.33-.33.81-.51,1.34-.64,2.79-.63,5.21-.75,8.28-.71Z"/>
  <path class="st43" d="M111.42,194.11c.78.11,1.94.4,1.97.96.14,2.86,0,24.43-.75,25.46-.53.71-1.15,1.21-2.04,1.39-2.07,0-3.94.18-5.88.62l-2.18-.94c-.16-8.74-.2-17.47-.12-26.19l2-1.43,7,.13Z"/>
  <path class="st17" d="M167.27,221.19l-8.03-17.84c1.02-5.4,5.83-10.03,9.24-13.44,1.21,7.16.37,14.41.6,22.12.1,3.42.34,6.92-1.81,9.16Z"/>
  <path class="st15" d="M131.46,142.08c.77.22,1.93.56,1.98,1.16.57,6.88-.29,16.09-1.45,22.84-1.47,1.85-2.66,3.68-4.64,4.77l-3.25-1.83,1.32-27.01,6.04.07Z"/>
  <path class="st46" d="M190.43,183.27c-.86.63-1.22,1.52-1.37,2.74l-.27,35.98-4.2-.02.44-38.98c-.13-1.24-.47-2.15-.73-3.13,1.35-.59,3.47-1.69,4.6-.25.6.76.96,2.54,1.53,3.67Z"/>
  <path class="st51" d="M164.98,153.07l1.18,2.12v24.72s-1.03,2.17-1.03,2.17c-1.58.85-2.51,4.47-5.29,4.7l-1.09-34c.94-.45,1.93-2.33,3.48-1.73.83.32,1.86,1.84,2.75,2.02Z"/>
  <path class="st2" d="M104.43,193.98l-.03,22.83c0,2.12-.06,3.98.33,5.72l-5.7-.6.34-27.8,5.06-.16Z"/>
  <path class="st12" d="M146.83,187.82c-1.72-2.04-3.54-4.51-5.8-5.94-3.15-3.84-2.99-9.77-.31-13.87l6.08-6.1c.94,1.19,1.32,2.45,1.31,4.01l-.06,18.15c0,1.54-.39,2.8-1.21,3.74Z"/>
  <path class="st48" d="M117.14,142.72l-.36,22.08c-2.53-1.24-5.22-1.94-7.09-4.15-.77-.12-1.9-.34-1.98-.9-.54-3.85-.18-11.62,1.33-15,2.96-.91,5.35-1.41,8.1-2.03Z"/>
  <polygon class="st48" points="110.6 221.92 111.42 194.11 116.01 194.15 116.01 221.9 110.6 221.92"/>
  <path class="st39" d="M170.19,156.83l1.41,2.06c-.66,5.73-1.03,11.58.2,17.27l-1.54,2.1c-1.57.93-3.19,2.77-5.13,3.81-.89-1.15-1.24-2.43-1.24-4l.04-21.17c0-1.54.35-2.8,1.04-3.84,1.99.41,3.78,2.78,5.21,3.76Z"/>
  <path class="st49" d="M176.19,161.86c.96,3.66,1.31,7.61,1.03,11.84l-1.91,1.57-5.05,3c-1.75-6.2-1.67-15.09-.08-21.43,2.1,1.44,4.25,3.16,6,5.02Z"/>
  <path class="st32" d="M109.04,144.75c.54,1.03.91,1.97.9,3.18l-.25,12.72c-3.31.73-5.57-1.97-7.95-2.57-3.17-1.01-2.48-9.72.51-11.24l6.79-2.09Z"/>
  <path class="st52" d="M136.35,142.22l1.98.91c.69,4.48.08,14.35-2.34,18.03-1.6,1.36-2.71,3.29-4,4.92-.45-.96-.83-1.86-.94-3.07l.42-20.94,4.89.14Z"/>
  <path class="st0" d="M141.87,143.22c3.38,1.53,2.68,9.36.91,12.16l-6.79,5.78.36-18.94,5.52,1Z"/>
  <path class="st40" d="M101.74,158.08c-4.48-1.14-8.38-1.57-12.91-3.51,4.07-3.28,8.39-6.19,13.42-7.73l-.51,11.24Z"/>
  <path class="st12" d="M142.78,155.38c-1.51-4.25-.32-8.33-.91-12.16l11.82,3.58-10.91,8.57Z"/>
  <path class="st62" d="M175.31,175.27c-.24-4.63-.82-9.02.88-13.41,2.55,2.72,5.48,5.52,7.7,9.73-2.26,1.87-6.23,2.28-8.58,3.68Z"/>
  <path class="st0" d="M141.02,181.89c-2.48-1.57-4.49-3.78-6.83-6.18,1.47-3.38,4.27-5.44,6.51-7.69l.31,13.87Z"/>
  <path class="st61" d="M78,221.99c.86-1.14,3.03-1.12,4.83-1.03l.85-30.79.33,31.72-6.01.11Z"/>
  <path class="st14" d="M179.79,20.13c.16,44.63-.08,89.2-.72,133.73l-1.33-.93c-12.11-10.28-26.73-16.67-42.75-18.02-5.13-1.55-9.71-.47-15-.06-16.71,1.28-31.61,9.02-43.96,20.27l-.07-100.09c0-2.3.7-4.38,3.1-5.18l95.83-31.96c1.8-.6,3.88,1.15,4.9,2.24ZM159.44,65.93c2.99-.02,4.56-2.5,4.56-4.93v-13.99c0-2.92-2.08-5.02-5.02-5.01h-13.97c-2.93.01-5.01,2.09-5.01,5.02v13.97c0,2.91,2.09,5.03,5.02,5.02l14.43-.08ZM111.46,98.04c2.97-.41,4.54-2.49,4.54-5.05v-13.97c0-2.92-2.08-5.02-5.02-5.02l-13.97.02c-2.94,0-5.02,2.07-5.02,5v13.97c0,2.95,2.08,5.02,5.02,5.02l14.44.03ZM159.44,97.93c2.99-.02,4.56-2.5,4.56-4.93v-13.99c0-2.92-2.08-5.02-5.02-5.01h-13.97c-2.93.01-5.01,2.09-5.01,5.02v13.97c0,2.91,2.09,5.03,5.02,5.02l14.43-.08ZM111.46,130.04c2.97-.41,4.54-2.49,4.54-5.05v-13.97c0-2.92-2.08-5.02-5.02-5.02l-13.97.02c-2.94,0-5.02,2.07-5.02,5v13.97c0,2.95,2.08,5.02,5.02,5.02l14.44.03ZM159.44,129.93c2.99-.02,4.56-2.5,4.56-4.93v-13.99c0-2.92-2.08-5.02-5.02-5.01h-13.97c-2.93.01-5.01,2.09-5.01,5.02v13.97c0,2.91,2.09,5.03,5.02,5.02l14.43-.08Z"/>
  <path class="st37" d="M177.74,152.93c.63.11,1.26-.23,1.26-1.1l.79-131.7.26,134.71c-1.49.18-1.68-1.37-2.32-1.91Z"/>
  <polygon class="st21" points="156.02 57.9 148.06 58.01 148.06 50.05 155.94 50.04 156.02 57.9"/>
  <polygon class="st25" points="108.02 89.9 100.06 89.93 100.06 82.05 107.94 82.05 108.02 89.9"/>
  <polygon class="st21" points="156.02 89.9 148.06 90.01 148.06 82.05 155.94 82.04 156.02 89.9"/>
  <polygon class="st25" points="108.02 121.9 100.06 121.93 100.06 114.05 107.94 114.05 108.02 121.9"/>
  <polygon class="st21" points="156.02 121.9 148.06 122.01 148.06 114.05 155.94 114.04 156.02 121.9"/>
</svg>