<svg width="80" height="46" viewBox="0 0 80 46" fill="none" xmlns="http://www.w3.org/2000/svg">
<g clip-path="url(#clip0_395_76)">
<path d="M29.4939 22.1801L32.4909 22.7945C32.0896 24.1902 31.4644 25.2248 30.6175 25.9005C29.7706 26.5761 28.7399 26.914 27.5255 26.914C25.84 26.914 24.539 26.3502 23.6203 25.2227C22.5368 23.9115 21.9961 22.0766 21.9961 19.7181C21.9961 17.3596 22.541 15.5332 23.6308 14.1354C24.5559 12.9551 25.7513 12.366 27.2171 12.366C28.8476 12.366 30.1254 12.9677 31.0505 14.1734C32.115 15.5543 32.6472 17.5897 32.6472 20.2797L32.6345 20.6999H25.0839C25.1008 21.8021 25.3479 22.6573 25.8253 23.2611C26.3026 23.865 26.8771 24.1669 27.5508 24.1669C28.5223 24.1669 29.1686 23.5039 29.4939 22.1779V22.1801ZM29.6502 18.4512C29.6248 17.3659 29.3925 16.5488 28.9574 16.0019C28.5202 15.455 28.0028 15.1806 27.4008 15.1806C26.763 15.1806 26.2265 15.4656 25.7915 16.0336C25.3458 16.6121 25.1283 17.4166 25.1367 18.4512H29.6502Z" fill="#293F6D"/>
<path d="M38.495 26.5889H35.4727V12.6954H38.2732V14.6718C38.7527 13.747 39.1835 13.1325 39.5616 12.8264C39.9418 12.5202 40.379 12.3682 40.8774 12.3682C41.5659 12.3682 42.2249 12.5983 42.8543 13.0607L41.9123 16.2659C41.416 15.8648 40.945 15.6642 40.4994 15.6642C40.0812 15.6642 39.7116 15.8183 39.3947 16.1287C39.0758 16.4391 38.8477 16.9986 38.7083 17.8115C38.5689 18.6244 38.4992 20.1172 38.4992 22.2899V26.5868L38.495 26.5889Z" fill="#293F6D"/>
<path d="M49.8656 12.6954V15.6261H47.8105V21.2341C47.8105 22.4482 47.8401 23.1514 47.9013 23.3435C48.0238 23.694 48.271 23.8671 48.6469 23.8671C48.9257 23.8671 49.327 23.7489 49.8508 23.5145L50.1127 26.3671C49.4157 26.7324 48.6258 26.9161 47.7451 26.9161C46.9763 26.9161 46.3617 26.7324 45.8991 26.365C45.4366 25.9976 45.1261 25.4697 44.9698 24.7793C44.8473 24.2725 44.7861 23.2421 44.7861 21.6881V15.624H43.3984V12.6933H44.7861V9.93358L47.8084 7.78833V12.6933H49.8634L49.8656 12.6954Z" fill="#293F6D"/>
<path d="M59.1033 22.1801L62.1003 22.7945C61.699 24.1902 61.0738 25.2248 60.2269 25.9005C59.38 26.5761 58.3493 26.914 57.1348 26.914C55.4494 26.914 54.1484 26.3502 53.2296 25.2227C52.1462 23.9115 51.6055 22.0766 51.6055 19.7181C51.6055 17.3596 52.1504 15.5332 53.2402 14.1354C54.1653 12.9551 55.3607 12.366 56.8265 12.366C58.457 12.366 59.7348 12.9677 60.6599 14.1734C61.7243 15.5543 62.2566 17.5897 62.2566 20.2797L62.2439 20.6999H54.6933C54.7102 21.8021 54.9573 22.6573 55.4346 23.2611C55.912 23.865 56.4864 24.1669 57.1602 24.1669C58.1317 24.1669 58.778 23.5039 59.1033 22.1779V22.1801ZM59.2596 18.4512C59.2342 17.3659 59.0019 16.5488 58.5668 16.0019C58.1296 15.455 57.6122 15.1806 57.0102 15.1806C56.3724 15.1806 55.8359 15.4656 55.4008 16.0336C54.9552 16.6121 54.7377 17.4166 54.7461 18.4512H59.2596Z" fill="#293F6D"/>
<path d="M63.7598 26.5888L67.8487 19.4837L63.9308 12.6953H67.6206L69.6925 16.2785L71.7539 12.6953H75.2874L71.4603 19.3359L75.6549 26.5888H71.9503L69.6144 22.5411L67.2806 26.5888H63.7598Z" fill="#293F6D"/>
<path d="M76.0004 28.6284H5.13672V28.7826H76.0004V28.6284Z" fill="#293F6D"/>
<path d="M53.8892 30.9553L51.9609 33.8227H55.7204V33.8248H59.8917V43.962H63.1823V33.8248H67.4296V30.9553H53.8892Z" fill="#293F6D"/>
<path d="M33.9327 38.8734V36.1285V33.8249H40.385V30.9448H30.6484V44H40.385V41.12H33.9327V38.8734Z" fill="#293F6D"/>
<path d="M44.2123 30.9553H40.9238L45.3021 37.4671L40.9238 43.9514H44.2123L48.5885 37.4671L44.2123 30.9553Z" fill="#293F6D"/>
<path d="M47.4453 40.611L49.701 43.9514H52.9873L49.0885 38.1765L47.4453 40.611Z" fill="#293F6D"/>
<path d="M52.9873 30.9553H49.701L47.4453 34.3104L49.0885 36.7576L52.9873 30.9553Z" fill="#293F6D"/>
<path d="M35.168 38.8607H43.4937L44.4293 37.4671L43.4852 36.063H35.168V38.8607Z" fill="#293F6D"/>
<path d="M29.8597 30.9448V33.7425H26.0305V44H22.0176L17.7745 36.4557V44H14.4902V30.9448H18.2919L22.7484 38.8924V30.9448H29.8597Z" fill="#293F6D"/>
<path d="M4 15.9829C4.5597 15.909 5.1215 15.8393 5.6812 15.7612C6.5218 15.6429 7.35817 15.5141 8.19877 15.3938C8.43109 15.36 8.67609 15.3579 8.89786 15.2966C9.21044 15.208 9.40686 15.322 9.59695 15.5162C9.9729 15.9026 10.3615 16.2806 10.7459 16.6649C10.7713 16.6902 10.8072 16.7134 10.7839 16.7683C10.6424 16.7599 10.4988 16.7451 10.3531 16.7451C8.47967 16.7451 6.60628 16.743 4.73288 16.7451C4.56814 16.7451 4.46254 16.7198 4.37172 16.5741C4.26401 16.3988 4.1753 16.2067 4 16.0673C4 16.0399 4 16.0103 4 15.9829Z" fill="#293F6D"/>
<path d="M36.346 1C35.7842 1.28294 35.2182 1.56165 34.6627 1.85303C34.2614 2.06207 33.8707 2.28799 33.48 2.51181C33.3765 2.57093 33.2751 2.60683 33.1484 2.60471C32.6563 2.60049 32.162 2.60471 31.6699 2.60471C31.6741 2.56671 31.7291 2.56248 31.7692 2.54348C33.1462 1.91004 34.5465 1.32728 36.0778 1.04012C36.1052 1.03378 36.1306 1.01478 36.158 1C36.2214 1 36.2848 1 36.3481 1H36.346Z" fill="#293F6D"/>
<path d="M4.95914 17.4167H7.62033C8.81998 17.4167 10.0175 17.4209 11.2172 17.4125C11.3925 17.4125 11.5192 17.4526 11.6311 17.5708C12.0219 17.9847 12.4295 18.3859 12.8054 18.806C13.137 19.1755 13.1244 19.1861 13.401 18.7828C13.7009 18.3457 14.0452 17.934 14.3726 17.5138C14.4549 17.4082 14.5521 17.4167 14.6619 17.4167C16.1615 17.4167 17.6632 17.4167 19.1627 17.4167C19.3085 17.4167 19.4542 17.4019 19.6274 17.3914C19.3507 17.8411 19.0846 18.2676 18.8206 18.6984C18.696 18.9032 18.5713 19.1059 18.4594 19.3149C18.3623 19.4986 18.2313 19.5767 17.9842 19.5746C14.3008 19.5662 10.6173 19.5683 6.9318 19.5704C6.79874 19.5704 6.66146 19.5493 6.53051 19.5894C6.45237 19.6126 6.41435 19.5788 6.37845 19.5239C5.91379 18.8335 5.44703 18.1409 4.95703 17.4167H4.95914Z" fill="#293F6D"/>
<path d="M17.8617 20.2439C17.8849 20.3094 17.8532 20.3431 17.8321 20.3811C17.4836 21.0125 17.133 21.6417 16.7909 22.2751C16.7212 22.4039 16.6367 22.4419 16.4804 22.4419C13.8446 22.4377 11.2087 22.4377 8.57286 22.4419C8.43346 22.4419 8.34898 22.4145 8.27084 22.2984C7.84842 21.6649 7.41334 21.0378 6.97826 20.4107C6.86632 20.2481 6.96347 20.2439 7.11132 20.2439C8.42079 20.2439 9.73027 20.2439 11.0397 20.2439C13.2299 20.2439 15.4223 20.2439 17.6125 20.2439H17.8617Z" fill="#293F6D"/>
<path d="M8.83805 23.0733H9.16753C11.4211 23.0733 13.6768 23.0733 15.9303 23.0733C16.0021 23.0733 16.074 23.067 16.1437 23.0733C16.2176 23.0796 16.3042 22.9825 16.3549 23.0691C16.3929 23.1303 16.3084 23.1958 16.2788 23.2591C15.981 23.8778 15.679 24.4964 15.3875 25.1172C15.3368 25.2249 15.2798 25.2692 15.1468 25.2692C13.5838 25.265 12.0188 25.2671 10.4559 25.2692C10.3651 25.2692 10.289 25.2608 10.2341 25.1784C9.77791 24.5049 9.3196 23.8334 8.86128 23.162C8.85072 23.1451 8.85072 23.1219 8.83594 23.0733H8.83805Z" fill="#293F6D"/>
<path d="M15.0509 16.7431C15.5937 16.116 16.1598 15.567 16.6646 14.9779C16.9497 14.6464 17.2644 14.5746 17.6952 14.581C18.8759 14.6021 20.0586 14.5873 21.2393 14.5894C21.3132 14.5894 21.4146 14.5493 21.4547 14.6274C21.4843 14.6865 21.4103 14.7393 21.3744 14.7921C20.9858 15.3601 20.593 15.9281 20.2149 16.5024C20.1051 16.6692 19.9847 16.7473 19.7503 16.7452C18.276 16.7346 16.7997 16.7389 15.3255 16.7389H15.0488L15.0509 16.7431Z" fill="#293F6D"/>
<path d="M23.6172 11.7621C23.1631 12.3639 22.7112 12.9192 22.3141 13.5062C22.0965 13.8292 21.8473 13.9369 21.4228 13.9264C20.2907 13.8947 19.1545 13.9158 18.0203 13.9137C17.9442 13.9137 17.8386 13.9517 17.8006 13.882C17.7584 13.806 17.8661 13.768 17.9168 13.7195C18.487 13.1578 19.0594 12.5962 19.6276 12.0345C19.8071 11.8571 19.9908 11.7473 20.295 11.7537C21.389 11.7748 22.4831 11.7621 23.6172 11.7621Z" fill="#293F6D"/>
<path d="M20.6777 11.0864C20.8383 10.9196 20.9607 10.776 21.1001 10.6472C21.6873 10.1067 22.2829 9.57245 22.87 9.03192C22.9757 8.93479 23.0855 8.88834 23.2418 8.89045C24.1457 8.89678 25.0497 8.89467 25.9769 8.89467C25.8903 9.10793 25.7192 9.25362 25.5798 9.41198C25.1532 9.89762 24.7371 10.3896 24.3358 10.89C24.2218 11.0315 24.0993 11.0969 23.8881 11.0948C22.8341 11.0822 21.7802 11.0885 20.6777 11.0885V11.0864Z" fill="#293F6D"/>
<path d="M23.7949 8.2593C23.8477 8.14317 23.9069 8.07349 23.9808 8.00803C24.6672 7.41471 25.3515 6.82139 26.0379 6.23018C26.1668 6.12038 26.3104 6.05704 26.5026 6.06126C27.1594 6.07182 27.8184 6.06337 28.4752 6.06548C28.5344 6.06548 28.6167 6.03592 28.6484 6.09927C28.6801 6.16261 28.5998 6.19639 28.5576 6.23229C27.8712 6.8235 27.3009 7.5055 26.6927 8.15583C26.6314 8.22129 26.5786 8.26141 26.4793 8.26141C25.5923 8.26141 24.7052 8.26141 23.7949 8.26141V8.2593Z" fill="#293F6D"/>
<path d="M10.7228 25.9005C12.0386 25.9005 13.3354 25.9005 14.6322 25.9005C14.704 25.9005 14.7759 25.9005 14.8455 25.9005C14.9702 25.8984 15.023 25.9258 14.968 26.0504C14.7906 26.4537 14.6132 26.8591 14.4527 27.2687C14.402 27.3954 14.3239 27.4229 14.1908 27.4229C13.4305 27.4186 12.668 27.4229 11.9077 27.4229C11.8295 27.4229 11.7535 27.4313 11.7007 27.3532C11.3754 26.8676 11.0481 26.384 10.7207 25.9026L10.7228 25.9005Z" fill="#293F6D"/>
<path d="M27.0742 5.432C27.3403 5.23141 27.5473 5.06461 27.7691 4.91258C28.5674 4.36149 29.3827 3.83151 30.2317 3.34376C30.3585 3.27197 30.4789 3.23185 30.6288 3.23397C31.1674 3.23819 31.7081 3.23397 32.2826 3.23397C32.1326 3.41978 31.9277 3.51479 31.7566 3.63303C31.0618 4.11867 30.3775 4.61698 29.7523 5.17229C29.5538 5.34754 29.3426 5.44467 29.0427 5.43411C28.4112 5.413 27.7796 5.42778 27.0742 5.42778V5.432Z" fill="#293F6D"/>
</g>
<defs>
<clipPath id="clip0_395_76">
<rect width="72" height="43" fill="white" transform="translate(4 1)"/>
</clipPath>
</defs>
</svg>
